G04*
G04 #@! TF.GenerationSoftware,Altium Limited,Altium Designer,26.4.1 (12)*
G04*
G04 Layer_Color=16711935*
%FSLAX44Y44*%
%MOMM*%
G71*
G04*
G04 #@! TF.SameCoordinates,69C08BF3-0464-4516-A73B-7AD5F2A8760F*
G04*
G04*
G04 #@! TF.FilePolarity,Negative*
G04*
G01*
G75*
%ADD58C,2.1500*%
%ADD59C,1.7000*%
%ADD60R,1.7000X1.7000*%
%ADD61C,0.6500*%
G04:AMPARAMS|DCode=62|XSize=0.9mm|YSize=2.4mm|CornerRadius=0.45mm|HoleSize=0mm|Usage=FLASHONLY|Rotation=270.000|XOffset=0mm|YOffset=0mm|HoleType=Round|Shape=RoundedRectangle|*
%AMROUNDEDRECTD62*
21,1,0.9000,1.5000,0,0,270.0*
21,1,0.0000,2.4000,0,0,270.0*
1,1,0.9000,-0.7500,0.0000*
1,1,0.9000,-0.7500,0.0000*
1,1,0.9000,0.7500,0.0000*
1,1,0.9000,0.7500,0.0000*
%
%ADD62ROUNDEDRECTD62*%
G04:AMPARAMS|DCode=63|XSize=0.9mm|YSize=1.7mm|CornerRadius=0.45mm|HoleSize=0mm|Usage=FLASHONLY|Rotation=270.000|XOffset=0mm|YOffset=0mm|HoleType=Round|Shape=RoundedRectangle|*
%AMROUNDEDRECTD63*
21,1,0.9000,0.8000,0,0,270.0*
21,1,0.0000,1.7000,0,0,270.0*
1,1,0.9000,-0.4000,0.0000*
1,1,0.9000,-0.4000,0.0000*
1,1,0.9000,0.4000,0.0000*
1,1,0.9000,0.4000,0.0000*
%
%ADD63ROUNDEDRECTD63*%
G04:AMPARAMS|DCode=64|XSize=2.15mm|YSize=2.15mm|CornerRadius=0.575mm|HoleSize=0mm|Usage=FLASHONLY|Rotation=180.000|XOffset=0mm|YOffset=0mm|HoleType=Round|Shape=RoundedRectangle|*
%AMROUNDEDRECTD64*
21,1,2.1500,1.0000,0,0,180.0*
21,1,1.0000,2.1500,0,0,180.0*
1,1,1.1500,-0.5000,0.5000*
1,1,1.1500,0.5000,0.5000*
1,1,1.1500,0.5000,-0.5000*
1,1,1.1500,-0.5000,-0.5000*
%
%ADD64ROUNDEDRECTD64*%
%ADD65C,5.0000*%
D58*
X689200Y77300D02*
D03*
X714600D02*
D03*
X790800D02*
D03*
Y102700D02*
D03*
X765400D02*
D03*
X714600D02*
D03*
X689200D02*
D03*
X740000D02*
D03*
X765400Y77300D02*
D03*
X740000D02*
D03*
X870000Y710500D02*
D03*
X920000D02*
D03*
X945000D02*
D03*
X895000D02*
D03*
X970000Y89500D02*
D03*
X920000D02*
D03*
X895000D02*
D03*
X945000D02*
D03*
D59*
X22100Y97500D02*
D03*
X47500D02*
D03*
X72900D02*
D03*
X98300D02*
D03*
X22100Y122900D02*
D03*
X47500D02*
D03*
X72900D02*
D03*
X882100Y387100D02*
D03*
X907500D02*
D03*
X932900D02*
D03*
X958300D02*
D03*
X882100Y412500D02*
D03*
X907500D02*
D03*
X932900D02*
D03*
X22100Y667100D02*
D03*
X47500D02*
D03*
X72900D02*
D03*
X98300D02*
D03*
X22100Y692500D02*
D03*
X47500D02*
D03*
X72900D02*
D03*
D60*
X98300Y122900D02*
D03*
X958300Y412500D02*
D03*
X98300Y692500D02*
D03*
D61*
X66750Y399750D02*
D03*
Y391250D02*
D03*
Y382750D02*
D03*
Y374250D02*
D03*
Y365750D02*
D03*
Y357250D02*
D03*
Y348750D02*
D03*
Y340250D02*
D03*
X80250D02*
D03*
Y348750D02*
D03*
Y357250D02*
D03*
Y365750D02*
D03*
Y374250D02*
D03*
Y382750D02*
D03*
Y391250D02*
D03*
Y399750D02*
D03*
D62*
X70450Y326750D02*
D03*
Y413250D02*
D03*
D63*
X36650Y326750D02*
D03*
Y413250D02*
D03*
D64*
X970000Y710500D02*
D03*
X870000Y89500D02*
D03*
D65*
X1060000Y760000D02*
D03*
Y40000D02*
D03*
X40000Y760000D02*
D03*
Y40000D02*
D03*
M02*
