G04*
G04 #@! TF.GenerationSoftware,Altium Limited,Altium Designer,26.4.1 (12)*
G04*
G04 Layer_Physical_Order=4*
G04 Layer_Color=16711680*
%FSLAX44Y44*%
%MOMM*%
G71*
G04*
G04 #@! TF.SameCoordinates,69C08BF3-0464-4516-A73B-7AD5F2A8760F*
G04*
G04*
G04 #@! TF.FilePolarity,Positive*
G04*
G01*
G75*
%ADD11C,0.2000*%
%ADD14C,0.1250*%
%ADD59C,1.7000*%
%ADD60R,1.7000X1.7000*%
%ADD61C,0.6500*%
G04:AMPARAMS|DCode=62|XSize=0.9mm|YSize=2.4mm|CornerRadius=0.45mm|HoleSize=0mm|Usage=FLASHONLY|Rotation=270.000|XOffset=0mm|YOffset=0mm|HoleType=Round|Shape=RoundedRectangle|*
%AMROUNDEDRECTD62*
21,1,0.9000,1.5000,0,0,270.0*
21,1,0.0000,2.4000,0,0,270.0*
1,1,0.9000,-0.7500,0.0000*
1,1,0.9000,-0.7500,0.0000*
1,1,0.9000,0.7500,0.0000*
1,1,0.9000,0.7500,0.0000*
%
%ADD62ROUNDEDRECTD62*%
G04:AMPARAMS|DCode=63|XSize=0.9mm|YSize=1.7mm|CornerRadius=0.45mm|HoleSize=0mm|Usage=FLASHONLY|Rotation=270.000|XOffset=0mm|YOffset=0mm|HoleType=Round|Shape=RoundedRectangle|*
%AMROUNDEDRECTD63*
21,1,0.9000,0.8000,0,0,270.0*
21,1,0.0000,1.7000,0,0,270.0*
1,1,0.9000,-0.4000,0.0000*
1,1,0.9000,-0.4000,0.0000*
1,1,0.9000,0.4000,0.0000*
1,1,0.9000,0.4000,0.0000*
%
%ADD63ROUNDEDRECTD63*%
%ADD65C,5.0000*%
%ADD70C,1.0000*%
%ADD72C,2.0000*%
G04:AMPARAMS|DCode=73|XSize=2mm|YSize=2mm|CornerRadius=0.5mm|HoleSize=0mm|Usage=FLASHONLY|Rotation=180.000|XOffset=0mm|YOffset=0mm|HoleType=Round|Shape=RoundedRectangle|*
%AMROUNDEDRECTD73*
21,1,2.0000,1.0000,0,0,180.0*
21,1,1.0000,2.0000,0,0,180.0*
1,1,1.0000,-0.5000,0.5000*
1,1,1.0000,0.5000,0.5000*
1,1,1.0000,0.5000,-0.5000*
1,1,1.0000,-0.5000,-0.5000*
%
%ADD73ROUNDEDRECTD73*%
%ADD74C,0.4500*%
G36*
X1080000Y797961D02*
X1081769D01*
X1085239Y797271D01*
X1088508Y795917D01*
X1091449Y793951D01*
X1093951Y791449D01*
X1095917Y788508D01*
X1097271Y785239D01*
X1097961Y781769D01*
X1097961Y780000D01*
X1097961Y20000D01*
Y18231D01*
X1097271Y14761D01*
X1095917Y11492D01*
X1093951Y8551D01*
X1091449Y6049D01*
X1088508Y4083D01*
X1085239Y2729D01*
X1081769Y2039D01*
X1080000Y2039D01*
X20000Y2039D01*
X18231D01*
X14761Y2729D01*
X11492Y4083D01*
X8551Y6049D01*
X6049Y8551D01*
X4083Y11492D01*
X2729Y14761D01*
X2039Y18231D01*
X2039Y20000D01*
Y400000D01*
Y780000D01*
X2039Y781769D01*
X2729Y785239D01*
X4083Y788508D01*
X6049Y791449D01*
X8551Y793951D01*
X11492Y795917D01*
X14761Y797271D01*
X18231Y797961D01*
X20000Y797961D01*
X1080000Y797961D01*
D02*
G37*
%LPC*%
G36*
X946450Y721516D02*
X943550D01*
X940748Y720765D01*
X938236Y719315D01*
X936185Y717264D01*
X934735Y714752D01*
X933984Y711950D01*
Y709050D01*
X934735Y706248D01*
X936185Y703736D01*
X938236Y701685D01*
X940748Y700235D01*
X943550Y699484D01*
X946450D01*
X949252Y700235D01*
X951764Y701685D01*
X953815Y703736D01*
X955265Y706248D01*
X956016Y709050D01*
Y711950D01*
X955265Y714752D01*
X953815Y717264D01*
X951764Y719315D01*
X949252Y720765D01*
X946450Y721516D01*
D02*
G37*
G36*
X921450D02*
X918550D01*
X915748Y720765D01*
X913236Y719315D01*
X911185Y717264D01*
X909735Y714752D01*
X908984Y711950D01*
Y709050D01*
X909735Y706248D01*
X911185Y703736D01*
X913236Y701685D01*
X915748Y700235D01*
X918550Y699484D01*
X921450D01*
X924252Y700235D01*
X926764Y701685D01*
X928815Y703736D01*
X930265Y706248D01*
X931016Y709050D01*
Y711950D01*
X930265Y714752D01*
X928815Y717264D01*
X926764Y719315D01*
X924252Y720765D01*
X921450Y721516D01*
D02*
G37*
G36*
X896450D02*
X893550D01*
X890748Y720765D01*
X888236Y719315D01*
X886185Y717264D01*
X884735Y714752D01*
X883984Y711950D01*
Y709050D01*
X884735Y706248D01*
X886185Y703736D01*
X888236Y701685D01*
X890748Y700235D01*
X893550Y699484D01*
X896450D01*
X899252Y700235D01*
X901764Y701685D01*
X903815Y703736D01*
X905265Y706248D01*
X906016Y709050D01*
Y711950D01*
X905265Y714752D01*
X903815Y717264D01*
X901764Y719315D01*
X899252Y720765D01*
X896450Y721516D01*
D02*
G37*
G36*
X975000Y721634D02*
X965000D01*
X962653Y721167D01*
X960663Y719837D01*
X959333Y717847D01*
X958866Y715500D01*
Y705500D01*
X959333Y703153D01*
X960663Y701163D01*
X962653Y699833D01*
X965000Y699366D01*
X975000D01*
X977347Y699833D01*
X979337Y701163D01*
X980667Y703153D01*
X981134Y705500D01*
Y715500D01*
X980667Y717847D01*
X979337Y719837D01*
X977347Y721167D01*
X975000Y721634D01*
D02*
G37*
G36*
X99553Y676616D02*
X97047D01*
X94627Y675967D01*
X92457Y674715D01*
X90685Y672943D01*
X89432Y670773D01*
X88784Y668353D01*
Y665847D01*
X89389Y663590D01*
X86457Y660658D01*
X85600Y659904D01*
X84743Y660658D01*
X81811Y663590D01*
X82416Y665847D01*
Y668353D01*
X81768Y670773D01*
X80515Y672943D01*
X78743Y674715D01*
X76573Y675967D01*
X74153Y676616D01*
X71647D01*
X69227Y675967D01*
X67057Y674715D01*
X65285Y672943D01*
X64033Y670773D01*
X63384Y668353D01*
Y665847D01*
X64033Y663427D01*
X65285Y661257D01*
X67057Y659485D01*
X69227Y658232D01*
X71647Y657584D01*
X74153D01*
X76573Y658232D01*
X78743Y659485D01*
X79422Y660165D01*
X82037Y657551D01*
Y600908D01*
X82037Y600908D01*
X82193Y600121D01*
X82639Y599455D01*
X238937Y443157D01*
Y369520D01*
X238915D01*
X237621Y368984D01*
X236631Y367994D01*
X236095Y366700D01*
Y365300D01*
X236631Y364006D01*
X237621Y363016D01*
X238915Y362480D01*
X240315D01*
X241609Y363016D01*
X242500Y363907D01*
X243391Y363016D01*
X244685Y362480D01*
X246085D01*
X247379Y363016D01*
X248369Y364006D01*
X248905Y365300D01*
Y366700D01*
X248369Y367994D01*
X247379Y368984D01*
X246085Y369520D01*
X246063D01*
Y445257D01*
X246063Y445257D01*
X245907Y446044D01*
X245462Y446711D01*
X89164Y603009D01*
Y657551D01*
X91777Y660165D01*
X92457Y659485D01*
X94627Y658232D01*
X97047Y657584D01*
X99553D01*
X101973Y658232D01*
X104143Y659485D01*
X105915Y661257D01*
X107168Y663427D01*
X107816Y665847D01*
Y668353D01*
X107168Y670773D01*
X105915Y672943D01*
X104143Y674715D01*
X101973Y675967D01*
X99553Y676616D01*
D02*
G37*
G36*
X186467Y717923D02*
X186467Y717923D01*
X65033D01*
X64392Y717796D01*
X63850Y717433D01*
X63849Y717433D01*
X49294Y702878D01*
X48932Y702335D01*
X48885Y702098D01*
X48753Y702016D01*
X46247D01*
X43827Y701367D01*
X41657Y700115D01*
X39885Y698343D01*
X38633Y696173D01*
X37984Y693753D01*
Y691247D01*
X38633Y688827D01*
X39885Y686657D01*
X41657Y684885D01*
X43827Y683633D01*
X46247Y682984D01*
X48753D01*
X51173Y683633D01*
X53343Y684885D01*
X55115Y686657D01*
X56368Y688827D01*
X57016Y691247D01*
Y693753D01*
X56368Y696173D01*
X55115Y698343D01*
X53343Y700115D01*
X53163Y700218D01*
X52954Y701806D01*
X58154Y707005D01*
X59327Y706519D01*
Y684943D01*
X55307Y680923D01*
X35943D01*
X29896Y686971D01*
X30968Y688827D01*
X31616Y691247D01*
Y693753D01*
X30968Y696173D01*
X29715Y698343D01*
X27943Y700115D01*
X25773Y701367D01*
X23353Y702016D01*
X20847D01*
X18427Y701367D01*
X16257Y700115D01*
X14485Y698343D01*
X13233Y696173D01*
X12584Y693753D01*
Y691247D01*
X13233Y688827D01*
X14485Y686657D01*
X16257Y684885D01*
X18427Y683633D01*
X20847Y682984D01*
X23353D01*
X25773Y683633D01*
X27503Y684631D01*
X34067Y678067D01*
X34610Y677704D01*
X35250Y677577D01*
X35250Y677577D01*
X56000D01*
X56000Y677577D01*
X56640Y677704D01*
X57183Y678067D01*
X62183Y683067D01*
X62183Y683067D01*
X62546Y683610D01*
X62673Y684250D01*
Y688993D01*
X63943Y689160D01*
X64033Y688827D01*
X65285Y686657D01*
X67057Y684885D01*
X69227Y683633D01*
X71647Y682984D01*
X74153D01*
X76573Y683633D01*
X78743Y684885D01*
X80515Y686657D01*
X81768Y688827D01*
X82416Y691247D01*
Y693753D01*
X81768Y696173D01*
X80515Y698343D01*
X78743Y700115D01*
X76573Y701367D01*
X74153Y702016D01*
X71647D01*
X69227Y701367D01*
X67057Y700115D01*
X65285Y698343D01*
X64033Y696173D01*
X63943Y695840D01*
X62673Y696007D01*
Y708320D01*
X66664Y712311D01*
X114085D01*
X114571Y711137D01*
X105450Y702016D01*
X88784D01*
Y682984D01*
X107816D01*
Y699650D01*
X117993Y709827D01*
X183807D01*
X325791Y567843D01*
Y566395D01*
X325470Y566262D01*
X324480Y565271D01*
X323944Y563978D01*
Y562577D01*
X324480Y561284D01*
X325470Y560293D01*
X326764Y559757D01*
X328164D01*
X329458Y560293D01*
X330349Y561185D01*
X331240Y560293D01*
X332534Y559757D01*
X333934D01*
X335228Y560293D01*
X336119Y561185D01*
X337010Y560293D01*
X338304Y559757D01*
X339704D01*
X340998Y560293D01*
X341988Y561284D01*
X342524Y562577D01*
Y563978D01*
X341988Y565271D01*
X340998Y566262D01*
X339704Y566797D01*
X338304D01*
X338291Y566792D01*
X187651Y717433D01*
X187108Y717796D01*
X186467Y717923D01*
D02*
G37*
G36*
X266700Y546020D02*
X265300D01*
X264006Y545484D01*
X263016Y544494D01*
X262480Y543200D01*
Y541800D01*
X263016Y540506D01*
X264006Y539516D01*
X265300Y538980D01*
X266700D01*
X267994Y539516D01*
X268984Y540506D01*
X269520Y541800D01*
Y543200D01*
X268984Y544494D01*
X267994Y545484D01*
X266700Y546020D01*
D02*
G37*
G36*
X338111Y501247D02*
X336711D01*
X335417Y500711D01*
X334427Y499721D01*
X333891Y498427D01*
Y497027D01*
X334427Y495733D01*
X335417Y494743D01*
X336711Y494207D01*
X338111D01*
X339405Y494743D01*
X340395Y495733D01*
X340931Y497027D01*
Y498427D01*
X340395Y499721D01*
X339405Y500711D01*
X338111Y501247D01*
D02*
G37*
G36*
X223200Y518520D02*
X221800D01*
X220506Y517984D01*
X219516Y516994D01*
X218980Y515700D01*
Y514300D01*
X219516Y513006D01*
X220506Y512016D01*
X220827Y511883D01*
Y504500D01*
X220827Y504500D01*
X220954Y503860D01*
X221317Y503317D01*
X226422Y498212D01*
X226422Y498212D01*
X226965Y497849D01*
X227605Y497722D01*
X275632D01*
X276158Y496452D01*
X276016Y496310D01*
X275480Y495016D01*
Y493616D01*
X276016Y492322D01*
X277006Y491332D01*
X278300Y490796D01*
X279700D01*
X280021Y490929D01*
X281406Y489543D01*
X281406Y489543D01*
X281949Y489181D01*
X282415Y489088D01*
X282290Y487818D01*
X227048D01*
X225887Y488979D01*
X226020Y489300D01*
Y490700D01*
X225484Y491994D01*
X224494Y492984D01*
X223200Y493520D01*
X221800D01*
X220506Y492984D01*
X219516Y491994D01*
X218980Y490700D01*
Y489300D01*
X219516Y488006D01*
X220506Y487016D01*
X221800Y486480D01*
X223200D01*
X223521Y486613D01*
X225172Y484962D01*
X225172Y484962D01*
X225715Y484599D01*
X226355Y484472D01*
X226355Y484472D01*
X258839D01*
X259688Y483202D01*
X259480Y482700D01*
Y481300D01*
X260016Y480006D01*
X261006Y479016D01*
X261288Y478899D01*
Y477525D01*
X261190Y477484D01*
X260200Y476494D01*
X259664Y475200D01*
Y473800D01*
X260200Y472506D01*
X261190Y471516D01*
X261204Y471510D01*
Y470135D01*
X261190Y470129D01*
X260200Y469139D01*
X259664Y467845D01*
Y466445D01*
X260200Y465151D01*
X261190Y464161D01*
X262483Y463625D01*
X263884D01*
X265177Y464161D01*
X266168Y465151D01*
X266704Y466445D01*
Y467845D01*
X266168Y469139D01*
X265177Y470129D01*
X265163Y470135D01*
Y471510D01*
X265177Y471516D01*
X266168Y472506D01*
X266301Y472827D01*
X276808D01*
X278243Y471392D01*
X278496Y469849D01*
X277960Y468555D01*
Y467155D01*
X277449Y466390D01*
X277297D01*
X276004Y465854D01*
X275014Y464864D01*
X274478Y463571D01*
Y462170D01*
X275014Y460877D01*
X276004Y459886D01*
X277297Y459350D01*
X278698D01*
X279991Y459886D01*
X280982Y460877D01*
X281518Y462170D01*
Y463571D01*
X282028Y464335D01*
X282180D01*
X283474Y464871D01*
X284464Y465861D01*
X285000Y467155D01*
Y468555D01*
X284792Y469057D01*
X285641Y470327D01*
X290243D01*
X290617Y469581D01*
X290691Y469057D01*
X287615Y465981D01*
X287252Y465438D01*
X287125Y464798D01*
X287125Y464798D01*
Y442283D01*
X285855Y442158D01*
X285812Y442374D01*
X285449Y442917D01*
X285449Y442917D01*
X281635Y446731D01*
Y447165D01*
X281437Y447645D01*
X281976Y449242D01*
X281994Y449250D01*
X282984Y450240D01*
X283520Y451534D01*
Y452934D01*
X282984Y454228D01*
X281994Y455218D01*
X280700Y455754D01*
X279300D01*
X278006Y455218D01*
X277016Y454228D01*
X276883Y453907D01*
X276234D01*
X276234Y453907D01*
X275594Y453780D01*
X275051Y453417D01*
X275051Y453417D01*
X271364Y449730D01*
X269602Y449764D01*
X268506Y450860D01*
X267963Y451223D01*
X267323Y451350D01*
X267323Y451350D01*
X266301D01*
X266168Y451671D01*
X265177Y452661D01*
X263884Y453197D01*
X263871Y454447D01*
X265165Y454983D01*
X266155Y455973D01*
X266691Y457267D01*
Y458667D01*
X266155Y459961D01*
X265165Y460951D01*
X263871Y461487D01*
X262471D01*
X261177Y460951D01*
X260187Y459961D01*
X259651Y458667D01*
Y457267D01*
X260187Y455973D01*
X261177Y454983D01*
X262471Y454447D01*
X262483Y453197D01*
X261190Y452661D01*
X260200Y451671D01*
X259664Y450377D01*
Y448977D01*
X260200Y447683D01*
X261073Y446810D01*
X261136Y446089D01*
X261073Y445367D01*
X260200Y444494D01*
X259664Y443200D01*
Y441800D01*
X260200Y440506D01*
X261190Y439516D01*
X261937Y439206D01*
X261956Y439092D01*
X261811Y437884D01*
X260845Y437484D01*
X259855Y436494D01*
X259319Y435200D01*
Y433800D01*
X259855Y432506D01*
X260845Y431516D01*
X261166Y431383D01*
Y429596D01*
X261166Y429596D01*
X261103Y429520D01*
X259873D01*
X258579Y428984D01*
X257589Y427994D01*
X257053Y426700D01*
Y425300D01*
X257589Y424006D01*
X258579Y423016D01*
X259873Y422480D01*
X261273D01*
X261775Y422688D01*
X263045Y421839D01*
Y234322D01*
X263045Y234322D01*
X263172Y233682D01*
X263535Y233139D01*
X266346Y230328D01*
X265619Y229359D01*
X264325Y229895D01*
X262925D01*
X262604Y229762D01*
X260791Y231575D01*
X260248Y231938D01*
X259608Y232065D01*
X259608Y232065D01*
X157162D01*
X156984Y232494D01*
X155994Y233484D01*
X154700Y234020D01*
X153300D01*
X152006Y233484D01*
X151016Y232494D01*
X150480Y231200D01*
Y229800D01*
X151016Y228506D01*
X152006Y227516D01*
X153300Y226980D01*
X154700D01*
X155994Y227516D01*
X156984Y228506D01*
X157072Y228719D01*
X258915D01*
X260238Y227396D01*
X260105Y227075D01*
Y225675D01*
X260641Y224381D01*
X261631Y223391D01*
X261789Y223326D01*
X261536Y222055D01*
X259000D01*
X259000Y222055D01*
X258213Y221899D01*
X257547Y221453D01*
X257547Y221453D01*
X242149Y206056D01*
X241922D01*
X240994Y206984D01*
X239700Y207520D01*
X238300D01*
X237006Y206984D01*
X236016Y205994D01*
X235480Y204700D01*
Y203300D01*
X236016Y202006D01*
X237006Y201016D01*
X238300Y200480D01*
X239700D01*
X240994Y201016D01*
X241922Y201945D01*
X243000D01*
X243000Y201945D01*
X243787Y202101D01*
X244454Y202547D01*
X259851Y217945D01*
X327149D01*
X332944Y212149D01*
Y158923D01*
X332016Y157994D01*
X331480Y156700D01*
Y155300D01*
X332016Y154006D01*
X333006Y153016D01*
X334300Y152480D01*
X335700D01*
X336994Y153016D01*
X337984Y154006D01*
X338520Y155300D01*
Y156700D01*
X337984Y157994D01*
X337056Y158923D01*
Y211296D01*
X338326Y211822D01*
X339827Y210320D01*
Y182591D01*
X339827Y182591D01*
X339954Y181950D01*
X340317Y181408D01*
X471908Y49817D01*
X471908Y49817D01*
X472450Y49454D01*
X473091Y49327D01*
X473091Y49327D01*
X491643D01*
X491643Y49327D01*
X492071Y49412D01*
X492428Y49341D01*
X493300Y48980D01*
X494700D01*
X495994Y49516D01*
X496984Y50506D01*
X497520Y51800D01*
Y53200D01*
X496984Y54494D01*
X495994Y55484D01*
X494700Y56020D01*
X493300D01*
X492006Y55484D01*
X491016Y54494D01*
X490480Y53200D01*
Y52673D01*
X473784D01*
X395554Y130904D01*
X396040Y132077D01*
X434228D01*
X434361Y131756D01*
X435351Y130766D01*
X436645Y130230D01*
X438045D01*
X439339Y130766D01*
X440329Y131756D01*
X440865Y133050D01*
Y134450D01*
X440329Y135744D01*
X439339Y136734D01*
X438045Y137270D01*
X436645D01*
X435351Y136734D01*
X434361Y135744D01*
X434228Y135423D01*
X416060D01*
X415837Y135855D01*
X415671Y136693D01*
X416484Y137506D01*
X417020Y138800D01*
Y140200D01*
X416484Y141494D01*
X415494Y142484D01*
X415034Y142675D01*
X415287Y143945D01*
X457149D01*
X460888Y140205D01*
X460659Y138638D01*
X460016Y137994D01*
X459480Y136700D01*
Y135300D01*
X460016Y134006D01*
X461006Y133016D01*
X462300Y132480D01*
X463700D01*
X464994Y133016D01*
X465984Y134006D01*
X466520Y135300D01*
Y136700D01*
X465984Y137994D01*
X465973Y138005D01*
X466055Y138422D01*
X466055Y138422D01*
Y140000D01*
X466055Y140000D01*
X465899Y140787D01*
X465453Y141454D01*
X465453Y141454D01*
X459454Y147453D01*
X458787Y147899D01*
X458000Y148055D01*
X458000Y148055D01*
X392851D01*
X377520Y163387D01*
Y164700D01*
X376984Y165994D01*
X375994Y166984D01*
X374700Y167520D01*
X373300D01*
X372006Y166984D01*
X371016Y165994D01*
X370480Y164700D01*
Y164182D01*
X369210Y163656D01*
X347923Y184943D01*
Y213336D01*
X347923Y213336D01*
X347796Y213977D01*
X347433Y214519D01*
X347433Y214520D01*
X330581Y231371D01*
X331067Y232545D01*
X355908D01*
X356718Y231275D01*
X356480Y230700D01*
Y229572D01*
X356032Y228968D01*
X355428Y228520D01*
X354300D01*
X353006Y227984D01*
X352016Y226994D01*
X351480Y225700D01*
Y224300D01*
X352016Y223006D01*
X353006Y222016D01*
X354300Y221480D01*
X355428D01*
X356032Y221032D01*
X356480Y220428D01*
Y219572D01*
X356032Y218968D01*
X355428Y218520D01*
X354300D01*
X353006Y217984D01*
X352016Y216994D01*
X351480Y215700D01*
Y214300D01*
X352016Y213006D01*
X353006Y212016D01*
X354300Y211480D01*
X355428D01*
X356032Y211032D01*
X356480Y210428D01*
Y209572D01*
X356032Y208968D01*
X355428Y208520D01*
X354300D01*
X353006Y207984D01*
X352016Y206994D01*
X351480Y205700D01*
Y204300D01*
X352016Y203006D01*
X353006Y202016D01*
X354300Y201480D01*
X355700D01*
X356994Y202016D01*
X357984Y203006D01*
X358520Y204300D01*
Y205428D01*
X358968Y206032D01*
X359572Y206480D01*
X360700D01*
X361994Y207016D01*
X362984Y208006D01*
X363520Y209300D01*
Y210700D01*
X362984Y211994D01*
X361994Y212984D01*
X360700Y213520D01*
X359572D01*
X358968Y213968D01*
X358520Y214572D01*
Y215428D01*
X358968Y216032D01*
X359572Y216480D01*
X360700D01*
X361994Y217016D01*
X362984Y218006D01*
X363520Y219300D01*
Y220700D01*
X362984Y221994D01*
X361994Y222984D01*
X360700Y223520D01*
X359572D01*
X358968Y223968D01*
X358520Y224572D01*
Y225428D01*
X358968Y226032D01*
X359572Y226480D01*
X360700D01*
X361994Y227016D01*
X362984Y228006D01*
X363520Y229300D01*
Y230700D01*
X363282Y231275D01*
X364092Y232545D01*
X442089D01*
X480817Y193817D01*
X481360Y193454D01*
X482000Y193327D01*
X482000Y193327D01*
X496780D01*
X497016Y192756D01*
X498006Y191766D01*
X499300Y191230D01*
X500700D01*
X501994Y191766D01*
X502984Y192756D01*
X503520Y194050D01*
Y195450D01*
X502984Y196744D01*
X501994Y197734D01*
X500700Y198270D01*
X499300D01*
X498006Y197734D01*
X497016Y196744D01*
X496987Y196673D01*
X482693D01*
X443965Y235401D01*
X443422Y235764D01*
X442782Y235891D01*
X442782Y235891D01*
X410433D01*
X409947Y237064D01*
X443112Y270230D01*
X444200D01*
X445494Y270766D01*
X446484Y271756D01*
X447020Y273050D01*
Y274450D01*
X446484Y275744D01*
X445494Y276734D01*
X444200Y277270D01*
X442800D01*
X441506Y276734D01*
X440516Y275744D01*
X439980Y274450D01*
Y273050D01*
X440337Y272187D01*
X406307Y238157D01*
X382183D01*
X381697Y239331D01*
X409979Y267613D01*
X410300Y267480D01*
X411700D01*
X412994Y268016D01*
X413984Y269006D01*
X414520Y270300D01*
Y271700D01*
X413984Y272994D01*
X412994Y273984D01*
X411700Y274520D01*
X410300D01*
X410169Y274466D01*
X409449Y275542D01*
X412851Y278944D01*
X460627D01*
X461016Y278006D01*
X462006Y277016D01*
X463300Y276480D01*
X464700D01*
X465994Y277016D01*
X466984Y278006D01*
X467520Y279300D01*
Y280700D01*
X466984Y281994D01*
X465994Y282984D01*
X464700Y283520D01*
X463300D01*
X462006Y282984D01*
X461995Y282973D01*
X461578Y283055D01*
X461578Y283055D01*
X412000D01*
X412000Y283055D01*
X411213Y282899D01*
X410546Y282453D01*
X374149Y246056D01*
X372741D01*
X372304Y247325D01*
X372984Y248006D01*
X373520Y249300D01*
Y250700D01*
X372984Y251994D01*
X371994Y252984D01*
X370700Y253520D01*
X369572D01*
X368968Y253968D01*
X368520Y254572D01*
Y255428D01*
X368968Y256032D01*
X369572Y256480D01*
X370700D01*
X371994Y257016D01*
X372984Y258006D01*
X373520Y259300D01*
Y260428D01*
X373968Y261032D01*
X374572Y261480D01*
X375428D01*
X376032Y261032D01*
X376480Y260428D01*
Y259300D01*
X377016Y258006D01*
X378006Y257016D01*
X379300Y256480D01*
X380700D01*
X381994Y257016D01*
X382984Y258006D01*
X383520Y259300D01*
Y260700D01*
X382984Y261994D01*
X381994Y262984D01*
X380700Y263520D01*
X379572D01*
X378968Y263968D01*
X378520Y264572D01*
Y265428D01*
X378968Y266032D01*
X379572Y266480D01*
X380700D01*
X381994Y267016D01*
X382984Y268006D01*
X383520Y269300D01*
Y270700D01*
X382984Y271994D01*
X381994Y272984D01*
X380700Y273520D01*
X379572D01*
X378968Y273968D01*
X378520Y274572D01*
Y275428D01*
X378968Y276032D01*
X379572Y276480D01*
X380700D01*
X381994Y277016D01*
X382984Y278006D01*
X383520Y279300D01*
Y280700D01*
X382984Y281994D01*
X381994Y282984D01*
X380700Y283520D01*
X379300D01*
X378006Y282984D01*
X377016Y281994D01*
X376480Y280700D01*
Y279572D01*
X376032Y278968D01*
X375428Y278520D01*
X374572D01*
X373968Y278968D01*
X373520Y279572D01*
Y280700D01*
X372984Y281994D01*
X371994Y282984D01*
X370700Y283520D01*
X369300D01*
X368006Y282984D01*
X367016Y281994D01*
X366480Y280700D01*
Y279572D01*
X366032Y278968D01*
X365428Y278520D01*
X364572D01*
X363968Y278968D01*
X363520Y279572D01*
Y280700D01*
X362984Y281994D01*
X361994Y282984D01*
X360700Y283520D01*
X359300D01*
X358006Y282984D01*
X357016Y281994D01*
X356480Y280700D01*
Y279300D01*
X357016Y278006D01*
X358006Y277016D01*
X359300Y276480D01*
X360428D01*
X361032Y276032D01*
X361480Y275428D01*
Y274572D01*
X361032Y273968D01*
X360428Y273520D01*
X359300D01*
X358006Y272984D01*
X357016Y271994D01*
X356480Y270700D01*
Y269300D01*
X357016Y268006D01*
X358006Y267016D01*
X359300Y266480D01*
X360428D01*
X361032Y266032D01*
X361480Y265428D01*
Y264572D01*
X361032Y263968D01*
X360428Y263520D01*
X359300D01*
X358006Y262984D01*
X357016Y261994D01*
X356480Y260700D01*
Y259300D01*
X357016Y258006D01*
X358006Y257016D01*
X359300Y256480D01*
X360428D01*
X361032Y256032D01*
X361480Y255428D01*
Y254572D01*
X361032Y253968D01*
X360428Y253520D01*
X359300D01*
X358006Y252984D01*
X357016Y251994D01*
X356480Y250700D01*
Y249300D01*
X357016Y248006D01*
X357696Y247325D01*
X357259Y246056D01*
X343923D01*
X342994Y246984D01*
X341700Y247520D01*
X340300D01*
X339006Y246984D01*
X338016Y245994D01*
X337480Y244700D01*
Y243300D01*
X338016Y242006D01*
X338329Y241693D01*
X337803Y240423D01*
X290662D01*
X290406Y240807D01*
X290889Y242369D01*
X291244Y242516D01*
X292136Y243408D01*
X293104Y242439D01*
X294398Y241903D01*
X295799D01*
X297092Y242439D01*
X298083Y243429D01*
X298618Y244722D01*
Y246123D01*
X298083Y247417D01*
X297092Y248407D01*
X296709Y248566D01*
Y332499D01*
X296709Y332500D01*
X296706Y332516D01*
Y407850D01*
X297976Y408102D01*
X298016Y408006D01*
X299006Y407016D01*
X300300Y406480D01*
X301700D01*
X302994Y407016D01*
X303984Y408006D01*
X304520Y409300D01*
Y410700D01*
X303984Y411994D01*
X302994Y412984D01*
X301700Y413520D01*
X300300D01*
X299006Y412984D01*
X298016Y411994D01*
X297976Y411898D01*
X296706Y412150D01*
Y417385D01*
X299382Y420061D01*
X319734D01*
X319734Y420061D01*
X320374Y420188D01*
X320917Y420551D01*
X327433Y427067D01*
X327433Y427067D01*
X327796Y427610D01*
X327923Y428250D01*
X327923Y428250D01*
Y431798D01*
X329193Y432213D01*
X329890Y431516D01*
X331184Y430980D01*
X332584D01*
X333878Y431516D01*
X334868Y432506D01*
X335404Y433800D01*
Y435200D01*
X334868Y436494D01*
X333878Y437484D01*
X333085Y437813D01*
Y439187D01*
X333878Y439516D01*
X334868Y440506D01*
X335001Y440827D01*
X342750D01*
X343599Y439557D01*
X343391Y439055D01*
Y437655D01*
X343927Y436361D01*
X344917Y435371D01*
X345535Y435115D01*
Y433740D01*
X344917Y433484D01*
X343927Y432494D01*
X343391Y431200D01*
Y429800D01*
X343927Y428506D01*
X344917Y427516D01*
X346211Y426980D01*
X347611D01*
X348905Y427516D01*
X349895Y428506D01*
X350431Y429800D01*
Y431200D01*
X349895Y432494D01*
X348905Y433484D01*
X348287Y433740D01*
Y435115D01*
X348905Y435371D01*
X349895Y436361D01*
X349965Y436529D01*
X512355D01*
X541037Y407846D01*
X540551Y406673D01*
X439709D01*
X426183Y420199D01*
X425640Y420562D01*
X425000Y420689D01*
X425000Y420689D01*
X423117D01*
X422984Y421010D01*
X421994Y422000D01*
X420700Y422536D01*
X419300D01*
X418006Y422000D01*
X417016Y421010D01*
X416480Y419716D01*
Y418316D01*
X417016Y417022D01*
X417907Y416131D01*
X417016Y415240D01*
X416480Y413946D01*
Y412546D01*
X417016Y411252D01*
X417907Y410361D01*
X417016Y409470D01*
X416480Y408176D01*
Y406776D01*
X417016Y405482D01*
X417907Y404591D01*
X417016Y403700D01*
X416480Y402406D01*
Y401006D01*
X417016Y399712D01*
X417907Y398821D01*
X417016Y397930D01*
X416480Y396636D01*
Y395236D01*
X417016Y393942D01*
X417907Y393051D01*
X417016Y392160D01*
X416480Y390866D01*
Y389466D01*
X417016Y388172D01*
X417907Y387281D01*
X417016Y386390D01*
X416480Y385096D01*
Y383696D01*
X417016Y382402D01*
X417907Y381511D01*
X417016Y380620D01*
X416480Y379326D01*
Y377926D01*
X417016Y376632D01*
X417907Y375741D01*
X417016Y374850D01*
X416480Y373556D01*
Y372156D01*
X417016Y370862D01*
X418006Y369872D01*
X419300Y369336D01*
X420700D01*
X421994Y369872D01*
X422984Y370862D01*
X423117Y371183D01*
X425000D01*
X425000Y371183D01*
X425640Y371310D01*
X426183Y371673D01*
X439709Y385199D01*
X534843D01*
X546917Y373125D01*
X546917Y373125D01*
X547460Y372762D01*
X548101Y372635D01*
X621999D01*
X726327Y268307D01*
Y232801D01*
X714940Y221414D01*
X714684Y221520D01*
X713284D01*
X711990Y220984D01*
X711000Y219994D01*
X710464Y218700D01*
Y217300D01*
X711000Y216006D01*
X711990Y215016D01*
X713284Y214480D01*
X714684D01*
X715978Y215016D01*
X716869Y215907D01*
X717760Y215016D01*
X719054Y214480D01*
X720454D01*
X721748Y215016D01*
X722639Y215907D01*
X723530Y215016D01*
X724824Y214480D01*
X726224D01*
X727518Y215016D01*
X728409Y215907D01*
X729300Y215016D01*
X730594Y214480D01*
X731994D01*
X733288Y215016D01*
X734179Y215907D01*
X735070Y215016D01*
X736364Y214480D01*
X737764D01*
X739058Y215016D01*
X739949Y215907D01*
X740840Y215016D01*
X742134Y214480D01*
X743534D01*
X744828Y215016D01*
X745719Y215907D01*
X746610Y215016D01*
X747904Y214480D01*
X749304D01*
X750598Y215016D01*
X751489Y215907D01*
X752380Y215016D01*
X753674Y214480D01*
X755074D01*
X756368Y215016D01*
X757259Y215907D01*
X758150Y215016D01*
X759444Y214480D01*
X760844D01*
X762138Y215016D01*
X763128Y216006D01*
X763664Y217300D01*
Y218700D01*
X763128Y219994D01*
X762138Y220984D01*
X760844Y221520D01*
X759444D01*
X759188Y221414D01*
X747801Y232801D01*
Y276509D01*
X747801Y276509D01*
X747674Y277149D01*
X747311Y277692D01*
X747311Y277692D01*
X633148Y391856D01*
X633634Y393029D01*
X749557D01*
X757599Y384987D01*
X757480Y384700D01*
Y383300D01*
X758016Y382006D01*
X759006Y381016D01*
X760300Y380480D01*
X761700D01*
X762994Y381016D01*
X763984Y382006D01*
X764520Y383300D01*
Y384700D01*
X763984Y385994D01*
X763236Y386742D01*
X763092Y387500D01*
X763236Y388258D01*
X763984Y389006D01*
X764520Y390300D01*
Y391700D01*
X763984Y392994D01*
X763808Y393170D01*
X763009Y394000D01*
X763808Y394830D01*
X763984Y395006D01*
X764520Y396300D01*
Y397700D01*
X763984Y398994D01*
X763808Y399170D01*
X763009Y400000D01*
X763808Y400830D01*
X763984Y401006D01*
X764520Y402300D01*
Y403700D01*
X763984Y404994D01*
X762994Y405984D01*
X761700Y406520D01*
X761372D01*
X760725Y407790D01*
X761115Y408327D01*
X785883D01*
X786016Y408006D01*
X787006Y407016D01*
X788300Y406480D01*
X789700D01*
X790994Y407016D01*
X791984Y408006D01*
X792520Y409300D01*
Y410700D01*
X791984Y411994D01*
X790994Y412984D01*
X789700Y413520D01*
X788300D01*
X787006Y412984D01*
X786016Y411994D01*
X785883Y411673D01*
X763071D01*
X762818Y412943D01*
X762994Y413016D01*
X763984Y414006D01*
X764520Y415300D01*
Y416700D01*
X763984Y417994D01*
X762994Y418984D01*
X762201Y419313D01*
Y420687D01*
X762994Y421016D01*
X763984Y422006D01*
X764520Y423300D01*
Y424700D01*
X763984Y425994D01*
X762994Y426984D01*
X761700Y427520D01*
X760300D01*
X759006Y426984D01*
X758016Y425994D01*
X757883Y425673D01*
X756796D01*
X756795Y425673D01*
X756155Y425546D01*
X755612Y425183D01*
X755612Y425183D01*
X742666Y412237D01*
X563811D01*
X520801Y455247D01*
X520259Y455610D01*
X519618Y455737D01*
X519618Y455737D01*
X414379D01*
X378207Y491910D01*
X377664Y492272D01*
X377024Y492400D01*
X377023Y492400D01*
X326871D01*
X326022Y493670D01*
X326230Y494171D01*
Y495572D01*
X325694Y496866D01*
X324704Y497856D01*
X323410Y498391D01*
X322010D01*
X320716Y497856D01*
X319726Y496866D01*
X319190Y495572D01*
Y494171D01*
X319398Y493670D01*
X318549Y492400D01*
X306424D01*
X306071Y492966D01*
X305802Y493670D01*
X306270Y494800D01*
Y496200D01*
X305734Y497494D01*
X304744Y498484D01*
X303450Y499020D01*
X302050D01*
X300756Y498484D01*
X299766Y497494D01*
X299562Y497002D01*
X298188D01*
X297984Y497494D01*
X296994Y498484D01*
X295700Y499020D01*
X294300D01*
X293979Y498887D01*
X292288Y500578D01*
X291745Y500941D01*
X291105Y501068D01*
X291105Y501068D01*
X228298D01*
X224173Y505193D01*
Y511883D01*
X224494Y512016D01*
X225484Y513006D01*
X226020Y514300D01*
Y515700D01*
X225484Y516994D01*
X224494Y517984D01*
X223200Y518520D01*
D02*
G37*
G36*
X822700Y461520D02*
X821300D01*
X820006Y460984D01*
X819016Y459994D01*
X818480Y458700D01*
Y457300D01*
X819016Y456006D01*
X820006Y455016D01*
X821300Y454480D01*
X822700D01*
X823994Y455016D01*
X824984Y456006D01*
X825520Y457300D01*
Y458700D01*
X824984Y459994D01*
X823994Y460984D01*
X822700Y461520D01*
D02*
G37*
G36*
X359700Y429729D02*
X358300D01*
X357006Y429193D01*
X356016Y428203D01*
X355480Y426909D01*
Y425509D01*
X356016Y424215D01*
X357006Y423225D01*
X358300Y422689D01*
X359700D01*
X360994Y423225D01*
X361984Y424215D01*
X362520Y425509D01*
Y426909D01*
X361984Y428203D01*
X360994Y429193D01*
X359700Y429729D01*
D02*
G37*
G36*
X959553Y396616D02*
X957047D01*
X954627Y395967D01*
X952457Y394715D01*
X950685Y392943D01*
X949433Y390773D01*
X948784Y388353D01*
Y385847D01*
X949433Y383427D01*
X950685Y381257D01*
X952457Y379485D01*
X954627Y378232D01*
X957047Y377584D01*
X959553D01*
X961973Y378232D01*
X964143Y379485D01*
X965915Y381257D01*
X967168Y383427D01*
X967816Y385847D01*
Y388353D01*
X967168Y390773D01*
X965915Y392943D01*
X964143Y394715D01*
X961973Y395967D01*
X959553Y396616D01*
D02*
G37*
G36*
X934153D02*
X931647D01*
X929227Y395967D01*
X927057Y394715D01*
X925285Y392943D01*
X924033Y390773D01*
X923384Y388353D01*
Y385847D01*
X924033Y383427D01*
X925285Y381257D01*
X927057Y379485D01*
X929227Y378232D01*
X931647Y377584D01*
X934153D01*
X936573Y378232D01*
X938743Y379485D01*
X940515Y381257D01*
X941768Y383427D01*
X942416Y385847D01*
Y388353D01*
X941768Y390773D01*
X940515Y392943D01*
X938743Y394715D01*
X936573Y395967D01*
X934153Y396616D01*
D02*
G37*
G36*
X908753D02*
X906247D01*
X903827Y395967D01*
X901657Y394715D01*
X899885Y392943D01*
X898633Y390773D01*
X897984Y388353D01*
Y385847D01*
X898633Y383427D01*
X899885Y381257D01*
X901657Y379485D01*
X903827Y378232D01*
X906247Y377584D01*
X908753D01*
X911173Y378232D01*
X913343Y379485D01*
X915115Y381257D01*
X916367Y383427D01*
X917016Y385847D01*
Y388353D01*
X916367Y390773D01*
X915115Y392943D01*
X913343Y394715D01*
X911173Y395967D01*
X908753Y396616D01*
D02*
G37*
G36*
X883353D02*
X880847D01*
X878427Y395967D01*
X876257Y394715D01*
X874485Y392943D01*
X873232Y390773D01*
X872584Y388353D01*
Y385847D01*
X873232Y383427D01*
X874485Y381257D01*
X876257Y379485D01*
X878427Y378232D01*
X880847Y377584D01*
X883353D01*
X885773Y378232D01*
X887943Y379485D01*
X889715Y381257D01*
X890967Y383427D01*
X891616Y385847D01*
Y388353D01*
X890967Y390773D01*
X889715Y392943D01*
X887943Y394715D01*
X885773Y395967D01*
X883353Y396616D01*
D02*
G37*
G36*
X81145Y395750D02*
X79355D01*
X77701Y395065D01*
X76435Y393799D01*
X75750Y392145D01*
Y390355D01*
X76435Y388701D01*
X77344Y387792D01*
X77574Y387000D01*
X77344Y386208D01*
X76435Y385299D01*
X75750Y383645D01*
Y381855D01*
X76435Y380201D01*
X77344Y379292D01*
X77574Y378500D01*
X77344Y377708D01*
X76435Y376799D01*
X75750Y375145D01*
Y373355D01*
X76435Y371701D01*
X77344Y370792D01*
X77574Y370000D01*
X77344Y369208D01*
X76435Y368299D01*
X75750Y366645D01*
Y364855D01*
X76435Y363201D01*
X77344Y362292D01*
X77574Y361500D01*
X77344Y360708D01*
X76435Y359799D01*
X75750Y358145D01*
Y356355D01*
X76435Y354701D01*
X77344Y353792D01*
X77574Y353000D01*
X77344Y352208D01*
X76435Y351299D01*
X75750Y349645D01*
Y347855D01*
X76435Y346201D01*
X77701Y344935D01*
X79355Y344250D01*
X81145D01*
X82799Y344935D01*
X84065Y346201D01*
X84750Y347855D01*
Y349645D01*
X84065Y351299D01*
X83156Y352208D01*
X82926Y353000D01*
X83156Y353792D01*
X84065Y354701D01*
X84750Y356355D01*
Y358145D01*
X84065Y359799D01*
X83156Y360708D01*
X82926Y361500D01*
X83156Y362292D01*
X84065Y363201D01*
X84750Y364855D01*
Y366645D01*
X84065Y368299D01*
X83156Y369208D01*
X82926Y370000D01*
X83156Y370792D01*
X84065Y371701D01*
X84750Y373355D01*
Y375145D01*
X84065Y376799D01*
X83156Y377708D01*
X82926Y378500D01*
X83156Y379292D01*
X84065Y380201D01*
X84750Y381855D01*
Y383645D01*
X84065Y385299D01*
X83156Y386208D01*
X82926Y387000D01*
X83156Y387792D01*
X84065Y388701D01*
X84750Y390355D01*
Y392145D01*
X84065Y393799D01*
X82799Y395065D01*
X81145Y395750D01*
D02*
G37*
G36*
X67645D02*
X65855D01*
X64201Y395065D01*
X62935Y393799D01*
X62250Y392145D01*
Y390355D01*
X62935Y388701D01*
X63844Y387792D01*
X64074Y387000D01*
X63844Y386208D01*
X62935Y385299D01*
X62250Y383645D01*
Y381855D01*
X62935Y380201D01*
X63844Y379292D01*
X64074Y378500D01*
X63844Y377708D01*
X62935Y376799D01*
X62250Y375145D01*
Y373355D01*
X62935Y371701D01*
X63844Y370792D01*
X64074Y370000D01*
X63844Y369208D01*
X62935Y368299D01*
X62250Y366645D01*
Y364855D01*
X62935Y363201D01*
X63844Y362292D01*
X64074Y361500D01*
X63844Y360708D01*
X62935Y359799D01*
X62250Y358145D01*
Y356355D01*
X62935Y354701D01*
X63844Y353792D01*
X64074Y353000D01*
X63844Y352208D01*
X62935Y351299D01*
X62250Y349645D01*
Y347855D01*
X62935Y346201D01*
X64201Y344935D01*
X65855Y344250D01*
X67645D01*
X69299Y344935D01*
X70565Y346201D01*
X71250Y347855D01*
Y349645D01*
X70565Y351299D01*
X69656Y352208D01*
X69426Y353000D01*
X69656Y353792D01*
X70565Y354701D01*
X71250Y356355D01*
Y358145D01*
X70565Y359799D01*
X69656Y360708D01*
X69426Y361500D01*
X69656Y362292D01*
X70565Y363201D01*
X71250Y364855D01*
Y366645D01*
X70565Y368299D01*
X69656Y369208D01*
X69426Y370000D01*
X69656Y370792D01*
X70565Y371701D01*
X71250Y373355D01*
Y375145D01*
X70565Y376799D01*
X69656Y377708D01*
X69426Y378500D01*
X69656Y379292D01*
X70565Y380201D01*
X71250Y381855D01*
Y383645D01*
X70565Y385299D01*
X69656Y386208D01*
X69426Y387000D01*
X69656Y387792D01*
X70565Y388701D01*
X71250Y390355D01*
Y392145D01*
X70565Y393799D01*
X69299Y395065D01*
X67645Y395750D01*
D02*
G37*
G36*
X51700Y343520D02*
X50300D01*
X49006Y342984D01*
X48016Y341994D01*
X47480Y340700D01*
Y339300D01*
X48016Y338006D01*
X49006Y337016D01*
X50300Y336480D01*
X51700D01*
X52994Y337016D01*
X53984Y338006D01*
X54520Y339300D01*
Y340700D01*
X53984Y341994D01*
X52994Y342984D01*
X51700Y343520D01*
D02*
G37*
G36*
X315821Y315141D02*
X314421D01*
X313127Y314605D01*
X312137Y313615D01*
X311601Y312321D01*
Y310921D01*
X312137Y309627D01*
X313127Y308637D01*
X314421Y308101D01*
X315821D01*
X317115Y308637D01*
X318105Y309627D01*
X318641Y310921D01*
Y312321D01*
X318105Y313615D01*
X317115Y314605D01*
X315821Y315141D01*
D02*
G37*
G36*
X316700Y306391D02*
X315300D01*
X314006Y305855D01*
X313016Y304865D01*
X312480Y303571D01*
Y302171D01*
X313016Y300877D01*
X314006Y299887D01*
X315300Y299351D01*
X316700D01*
X317994Y299887D01*
X318984Y300877D01*
X319520Y302171D01*
Y303571D01*
X318984Y304865D01*
X317994Y305855D01*
X316700Y306391D01*
D02*
G37*
G36*
X390700Y283520D02*
X389300D01*
X388006Y282984D01*
X387016Y281994D01*
X386480Y280700D01*
Y279300D01*
X387016Y278006D01*
X388006Y277016D01*
X389300Y276480D01*
X390700D01*
X391994Y277016D01*
X392984Y278006D01*
X393520Y279300D01*
Y280700D01*
X392984Y281994D01*
X391994Y282984D01*
X390700Y283520D01*
D02*
G37*
G36*
X545700Y278520D02*
X544300D01*
X543006Y277984D01*
X542016Y276994D01*
X541480Y275700D01*
Y274300D01*
X542016Y273006D01*
X543006Y272016D01*
X544300Y271480D01*
X545700D01*
X546994Y272016D01*
X547984Y273006D01*
X548520Y274300D01*
Y275700D01*
X547984Y276994D01*
X546994Y277984D01*
X545700Y278520D01*
D02*
G37*
G36*
X535700D02*
X534300D01*
X533006Y277984D01*
X532016Y276994D01*
X531480Y275700D01*
Y274300D01*
X532016Y273006D01*
X533006Y272016D01*
X534300Y271480D01*
X535700D01*
X536994Y272016D01*
X537984Y273006D01*
X538520Y274300D01*
Y275700D01*
X537984Y276994D01*
X536994Y277984D01*
X535700Y278520D01*
D02*
G37*
G36*
X525700D02*
X524300D01*
X523006Y277984D01*
X522016Y276994D01*
X521480Y275700D01*
Y274300D01*
X522016Y273006D01*
X523006Y272016D01*
X524300Y271480D01*
X525700D01*
X526994Y272016D01*
X527984Y273006D01*
X528520Y274300D01*
Y275700D01*
X527984Y276994D01*
X526994Y277984D01*
X525700Y278520D01*
D02*
G37*
G36*
X515700D02*
X514300D01*
X513006Y277984D01*
X512016Y276994D01*
X511480Y275700D01*
Y274300D01*
X512016Y273006D01*
X513006Y272016D01*
X514300Y271480D01*
X515700D01*
X516994Y272016D01*
X517984Y273006D01*
X518520Y274300D01*
Y275700D01*
X517984Y276994D01*
X516994Y277984D01*
X515700Y278520D01*
D02*
G37*
G36*
X390700Y273520D02*
X389300D01*
X388006Y272984D01*
X387016Y271994D01*
X386480Y270700D01*
Y269300D01*
X387016Y268006D01*
X388006Y267016D01*
X389300Y266480D01*
X390700D01*
X391994Y267016D01*
X392984Y268006D01*
X393520Y269300D01*
Y270700D01*
X392984Y271994D01*
X391994Y272984D01*
X390700Y273520D01*
D02*
G37*
G36*
X545700Y268520D02*
X544300D01*
X543006Y267984D01*
X542016Y266994D01*
X541480Y265700D01*
Y264300D01*
X542016Y263006D01*
X543006Y262016D01*
X544300Y261480D01*
X545700D01*
X546994Y262016D01*
X547984Y263006D01*
X548520Y264300D01*
Y265700D01*
X547984Y266994D01*
X546994Y267984D01*
X545700Y268520D01*
D02*
G37*
G36*
X535700D02*
X534300D01*
X533006Y267984D01*
X532016Y266994D01*
X531480Y265700D01*
Y264300D01*
X532016Y263006D01*
X533006Y262016D01*
X534300Y261480D01*
X535700D01*
X536994Y262016D01*
X537984Y263006D01*
X538520Y264300D01*
Y265700D01*
X537984Y266994D01*
X536994Y267984D01*
X535700Y268520D01*
D02*
G37*
G36*
X525700D02*
X524300D01*
X523006Y267984D01*
X522016Y266994D01*
X521480Y265700D01*
Y264300D01*
X522016Y263006D01*
X523006Y262016D01*
X524300Y261480D01*
X525700D01*
X526994Y262016D01*
X527984Y263006D01*
X528520Y264300D01*
Y265700D01*
X527984Y266994D01*
X526994Y267984D01*
X525700Y268520D01*
D02*
G37*
G36*
X515700D02*
X514300D01*
X513006Y267984D01*
X512016Y266994D01*
X511480Y265700D01*
Y264300D01*
X512016Y263006D01*
X513006Y262016D01*
X514300Y261480D01*
X515700D01*
X516994Y262016D01*
X517984Y263006D01*
X518520Y264300D01*
Y265700D01*
X517984Y266994D01*
X516994Y267984D01*
X515700Y268520D01*
D02*
G37*
G36*
X225700Y263520D02*
X224300D01*
X223006Y262984D01*
X222016Y261994D01*
X221480Y260700D01*
Y259300D01*
X222016Y258006D01*
X223006Y257016D01*
X224300Y256480D01*
X225700D01*
X226994Y257016D01*
X227984Y258006D01*
X228520Y259300D01*
Y260700D01*
X227984Y261994D01*
X226994Y262984D01*
X225700Y263520D01*
D02*
G37*
G36*
X215700D02*
X214300D01*
X213006Y262984D01*
X212016Y261994D01*
X211480Y260700D01*
Y259300D01*
X212016Y258006D01*
X213006Y257016D01*
X214300Y256480D01*
X215700D01*
X216994Y257016D01*
X217984Y258006D01*
X218520Y259300D01*
Y260700D01*
X217984Y261994D01*
X216994Y262984D01*
X215700Y263520D01*
D02*
G37*
G36*
X205700D02*
X204300D01*
X203006Y262984D01*
X202016Y261994D01*
X201480Y260700D01*
Y259300D01*
X202016Y258006D01*
X203006Y257016D01*
X204300Y256480D01*
X205700D01*
X206994Y257016D01*
X207984Y258006D01*
X208520Y259300D01*
Y260700D01*
X207984Y261994D01*
X206994Y262984D01*
X205700Y263520D01*
D02*
G37*
G36*
X195700D02*
X194300D01*
X193006Y262984D01*
X192016Y261994D01*
X191480Y260700D01*
Y259300D01*
X192016Y258006D01*
X193006Y257016D01*
X194300Y256480D01*
X195700D01*
X196994Y257016D01*
X197984Y258006D01*
X198520Y259300D01*
Y260700D01*
X197984Y261994D01*
X196994Y262984D01*
X195700Y263520D01*
D02*
G37*
G36*
X550700Y258520D02*
X549300D01*
X548006Y257984D01*
X547016Y256994D01*
X546480Y255700D01*
Y254300D01*
X547016Y253006D01*
X548006Y252016D01*
X549300Y251480D01*
X550700D01*
X551994Y252016D01*
X552984Y253006D01*
X553520Y254300D01*
Y255700D01*
X552984Y256994D01*
X551994Y257984D01*
X550700Y258520D01*
D02*
G37*
G36*
X540700D02*
X539300D01*
X538006Y257984D01*
X537016Y256994D01*
X536480Y255700D01*
Y254300D01*
X537016Y253006D01*
X538006Y252016D01*
X539300Y251480D01*
X540700D01*
X541994Y252016D01*
X542984Y253006D01*
X543520Y254300D01*
Y255700D01*
X542984Y256994D01*
X541994Y257984D01*
X540700Y258520D01*
D02*
G37*
G36*
X530700D02*
X529300D01*
X528006Y257984D01*
X527016Y256994D01*
X526480Y255700D01*
Y254300D01*
X527016Y253006D01*
X528006Y252016D01*
X529300Y251480D01*
X530700D01*
X531994Y252016D01*
X532984Y253006D01*
X533520Y254300D01*
Y255700D01*
X532984Y256994D01*
X531994Y257984D01*
X530700Y258520D01*
D02*
G37*
G36*
X225700Y253520D02*
X224300D01*
X223006Y252984D01*
X222016Y251994D01*
X221480Y250700D01*
Y249300D01*
X222016Y248006D01*
X223006Y247016D01*
X224300Y246480D01*
X225700D01*
X226994Y247016D01*
X227984Y248006D01*
X228520Y249300D01*
Y250700D01*
X227984Y251994D01*
X226994Y252984D01*
X225700Y253520D01*
D02*
G37*
G36*
X215700D02*
X214300D01*
X213006Y252984D01*
X212016Y251994D01*
X211480Y250700D01*
Y249300D01*
X212016Y248006D01*
X213006Y247016D01*
X214300Y246480D01*
X215700D01*
X216994Y247016D01*
X217984Y248006D01*
X218520Y249300D01*
Y250700D01*
X217984Y251994D01*
X216994Y252984D01*
X215700Y253520D01*
D02*
G37*
G36*
X205700D02*
X204300D01*
X203006Y252984D01*
X202016Y251994D01*
X201480Y250700D01*
Y249300D01*
X202016Y248006D01*
X203006Y247016D01*
X204300Y246480D01*
X205700D01*
X206994Y247016D01*
X207984Y248006D01*
X208520Y249300D01*
Y250700D01*
X207984Y251994D01*
X206994Y252984D01*
X205700Y253520D01*
D02*
G37*
G36*
X195700D02*
X194300D01*
X193006Y252984D01*
X192016Y251994D01*
X191480Y250700D01*
Y249300D01*
X192016Y248006D01*
X193006Y247016D01*
X194300Y246480D01*
X195700D01*
X196994Y247016D01*
X197984Y248006D01*
X198520Y249300D01*
Y250700D01*
X197984Y251994D01*
X196994Y252984D01*
X195700Y253520D01*
D02*
G37*
G36*
X510700Y250520D02*
X509300D01*
X508006Y249984D01*
X507016Y248994D01*
X506480Y247700D01*
Y246300D01*
X506613Y245979D01*
X493655Y233021D01*
X460796D01*
X460663Y233342D01*
X459673Y234332D01*
X458379Y234868D01*
X456979D01*
X455685Y234332D01*
X454695Y233342D01*
X454159Y232048D01*
Y230648D01*
X454695Y229354D01*
X455685Y228364D01*
X456979Y227828D01*
X458379D01*
X459673Y228364D01*
X460663Y229354D01*
X460796Y229675D01*
X494348D01*
X494348Y229675D01*
X494988Y229802D01*
X495531Y230165D01*
X508979Y243613D01*
X509300Y243480D01*
X510700D01*
X511994Y244016D01*
X512984Y245006D01*
X513520Y246300D01*
Y247700D01*
X512984Y248994D01*
X511994Y249984D01*
X510700Y250520D01*
D02*
G37*
G36*
X550700Y248520D02*
X549300D01*
X548006Y247984D01*
X547016Y246994D01*
X546480Y245700D01*
Y244300D01*
X547016Y243006D01*
X548006Y242016D01*
X549300Y241480D01*
X550700D01*
X551994Y242016D01*
X552984Y243006D01*
X553520Y244300D01*
Y245700D01*
X552984Y246994D01*
X551994Y247984D01*
X550700Y248520D01*
D02*
G37*
G36*
X540700D02*
X539300D01*
X538006Y247984D01*
X537016Y246994D01*
X536480Y245700D01*
Y244300D01*
X537016Y243006D01*
X538006Y242016D01*
X539300Y241480D01*
X540700D01*
X541994Y242016D01*
X542984Y243006D01*
X543520Y244300D01*
Y245700D01*
X542984Y246994D01*
X541994Y247984D01*
X540700Y248520D01*
D02*
G37*
G36*
X530700D02*
X529300D01*
X528006Y247984D01*
X527016Y246994D01*
X526480Y245700D01*
Y244300D01*
X527016Y243006D01*
X528006Y242016D01*
X529300Y241480D01*
X530700D01*
X531994Y242016D01*
X532984Y243006D01*
X533520Y244300D01*
Y245700D01*
X532984Y246994D01*
X531994Y247984D01*
X530700Y248520D01*
D02*
G37*
G36*
X225700Y243520D02*
X224300D01*
X223006Y242984D01*
X222016Y241994D01*
X221480Y240700D01*
Y239300D01*
X222016Y238006D01*
X223006Y237016D01*
X224300Y236480D01*
X225700D01*
X226994Y237016D01*
X227984Y238006D01*
X228520Y239300D01*
Y240700D01*
X227984Y241994D01*
X226994Y242984D01*
X225700Y243520D01*
D02*
G37*
G36*
X215700D02*
X214300D01*
X213006Y242984D01*
X212016Y241994D01*
X211480Y240700D01*
Y239300D01*
X212016Y238006D01*
X213006Y237016D01*
X214300Y236480D01*
X215700D01*
X216994Y237016D01*
X217984Y238006D01*
X218520Y239300D01*
Y240700D01*
X217984Y241994D01*
X216994Y242984D01*
X215700Y243520D01*
D02*
G37*
G36*
X205700D02*
X204300D01*
X203006Y242984D01*
X202016Y241994D01*
X201480Y240700D01*
Y239300D01*
X202016Y238006D01*
X203006Y237016D01*
X204300Y236480D01*
X205700D01*
X206994Y237016D01*
X207984Y238006D01*
X208520Y239300D01*
Y240700D01*
X207984Y241994D01*
X206994Y242984D01*
X205700Y243520D01*
D02*
G37*
G36*
X195700D02*
X194300D01*
X193006Y242984D01*
X192016Y241994D01*
X191480Y240700D01*
Y239300D01*
X192016Y238006D01*
X193006Y237016D01*
X194300Y236480D01*
X195700D01*
X196994Y237016D01*
X197984Y238006D01*
X198520Y239300D01*
Y240700D01*
X197984Y241994D01*
X196994Y242984D01*
X195700Y243520D01*
D02*
G37*
G36*
X550700Y238520D02*
X549300D01*
X548006Y237984D01*
X547016Y236994D01*
X546480Y235700D01*
Y234300D01*
X547016Y233006D01*
X548006Y232016D01*
X549300Y231480D01*
X550700D01*
X551994Y232016D01*
X552984Y233006D01*
X553520Y234300D01*
Y235700D01*
X552984Y236994D01*
X551994Y237984D01*
X550700Y238520D01*
D02*
G37*
G36*
X540700D02*
X539300D01*
X538006Y237984D01*
X537016Y236994D01*
X536480Y235700D01*
Y234300D01*
X537016Y233006D01*
X538006Y232016D01*
X539300Y231480D01*
X540700D01*
X541994Y232016D01*
X542984Y233006D01*
X543520Y234300D01*
Y235700D01*
X542984Y236994D01*
X541994Y237984D01*
X540700Y238520D01*
D02*
G37*
G36*
X530700D02*
X529300D01*
X528006Y237984D01*
X527016Y236994D01*
X526480Y235700D01*
Y234300D01*
X527016Y233006D01*
X528006Y232016D01*
X529300Y231480D01*
X530700D01*
X531994Y232016D01*
X532984Y233006D01*
X533520Y234300D01*
Y235700D01*
X532984Y236994D01*
X531994Y237984D01*
X530700Y238520D01*
D02*
G37*
G36*
X520700D02*
X519300D01*
X518006Y237984D01*
X517016Y236994D01*
X516480Y235700D01*
Y234300D01*
X517016Y233006D01*
X518006Y232016D01*
X519300Y231480D01*
X520700D01*
X521994Y232016D01*
X522984Y233006D01*
X523520Y234300D01*
Y235700D01*
X522984Y236994D01*
X521994Y237984D01*
X520700Y238520D01*
D02*
G37*
G36*
X550700Y228520D02*
X549300D01*
X548006Y227984D01*
X547016Y226994D01*
X546480Y225700D01*
Y224300D01*
X547016Y223006D01*
X548006Y222016D01*
X549300Y221480D01*
X550700D01*
X551994Y222016D01*
X552984Y223006D01*
X553520Y224300D01*
Y225700D01*
X552984Y226994D01*
X551994Y227984D01*
X550700Y228520D01*
D02*
G37*
G36*
X540700D02*
X539300D01*
X538006Y227984D01*
X537016Y226994D01*
X536480Y225700D01*
Y224300D01*
X537016Y223006D01*
X538006Y222016D01*
X539300Y221480D01*
X540700D01*
X541994Y222016D01*
X542984Y223006D01*
X543520Y224300D01*
Y225700D01*
X542984Y226994D01*
X541994Y227984D01*
X540700Y228520D01*
D02*
G37*
G36*
X530700D02*
X529300D01*
X528006Y227984D01*
X527016Y226994D01*
X526480Y225700D01*
Y224300D01*
X527016Y223006D01*
X528006Y222016D01*
X529300Y221480D01*
X530700D01*
X531994Y222016D01*
X532984Y223006D01*
X533520Y224300D01*
Y225700D01*
X532984Y226994D01*
X531994Y227984D01*
X530700Y228520D01*
D02*
G37*
G36*
X766000Y534134D02*
X370000D01*
X367653Y533667D01*
X365663Y532337D01*
X364333Y530347D01*
X363866Y528000D01*
X364333Y525653D01*
X365663Y523663D01*
X367653Y522333D01*
X370000Y521866D01*
X763459D01*
X799866Y485459D01*
Y460000D01*
X799866Y187500D01*
Y185000D01*
X800333Y182653D01*
X801663Y180663D01*
X803653Y179333D01*
X806000Y178866D01*
X808347Y179333D01*
X810337Y180663D01*
X811667Y182653D01*
X812134Y185000D01*
Y187500D01*
X812134Y460000D01*
Y488000D01*
X811667Y490347D01*
X810337Y492337D01*
X770337Y532337D01*
X768347Y533667D01*
X766000Y534134D01*
D02*
G37*
G36*
X220700Y183520D02*
X219300D01*
X218006Y182984D01*
X217016Y181994D01*
X216480Y180700D01*
Y179300D01*
X217016Y178006D01*
X218006Y177016D01*
X219300Y176480D01*
X220700D01*
X221994Y177016D01*
X222984Y178006D01*
X223520Y179300D01*
Y180700D01*
X222984Y181994D01*
X221994Y182984D01*
X220700Y183520D01*
D02*
G37*
G36*
X768700Y179520D02*
X767300D01*
X766006Y178984D01*
X765016Y177994D01*
X764480Y176700D01*
Y175300D01*
X765016Y174006D01*
X766006Y173016D01*
X767300Y172480D01*
X768700D01*
X769994Y173016D01*
X770984Y174006D01*
X771520Y175300D01*
Y176700D01*
X770984Y177994D01*
X769994Y178984D01*
X768700Y179520D01*
D02*
G37*
G36*
X220700Y173520D02*
X219300D01*
X218006Y172984D01*
X217016Y171994D01*
X216480Y170700D01*
Y169300D01*
X217016Y168006D01*
X218006Y167016D01*
X219300Y166480D01*
X220700D01*
X221994Y167016D01*
X222984Y168006D01*
X223520Y169300D01*
Y170700D01*
X222984Y171994D01*
X221994Y172984D01*
X220700Y173520D01*
D02*
G37*
G36*
X210700D02*
X209300D01*
X208006Y172984D01*
X207016Y171994D01*
X206480Y170700D01*
Y169300D01*
X207016Y168006D01*
X208006Y167016D01*
X209300Y166480D01*
X210700D01*
X211994Y167016D01*
X212984Y168006D01*
X213520Y169300D01*
Y170700D01*
X212984Y171994D01*
X211994Y172984D01*
X210700Y173520D01*
D02*
G37*
G36*
X200700D02*
X199300D01*
X198006Y172984D01*
X197016Y171994D01*
X196480Y170700D01*
Y169300D01*
X197016Y168006D01*
X198006Y167016D01*
X199300Y166480D01*
X200700D01*
X201994Y167016D01*
X202984Y168006D01*
X203520Y169300D01*
Y170700D01*
X202984Y171994D01*
X201994Y172984D01*
X200700Y173520D01*
D02*
G37*
G36*
X220700Y163520D02*
X219300D01*
X218006Y162984D01*
X217016Y161994D01*
X216480Y160700D01*
Y159300D01*
X217016Y158006D01*
X218006Y157016D01*
X219300Y156480D01*
X220700D01*
X221994Y157016D01*
X222984Y158006D01*
X223520Y159300D01*
Y160700D01*
X222984Y161994D01*
X221994Y162984D01*
X220700Y163520D01*
D02*
G37*
G36*
X210700D02*
X209300D01*
X208006Y162984D01*
X207016Y161994D01*
X206480Y160700D01*
Y159300D01*
X207016Y158006D01*
X208006Y157016D01*
X209300Y156480D01*
X210700D01*
X211994Y157016D01*
X212984Y158006D01*
X213520Y159300D01*
Y160700D01*
X212984Y161994D01*
X211994Y162984D01*
X210700Y163520D01*
D02*
G37*
G36*
X200700D02*
X199300D01*
X198006Y162984D01*
X197016Y161994D01*
X196480Y160700D01*
Y159300D01*
X197016Y158006D01*
X198006Y157016D01*
X199300Y156480D01*
X200700D01*
X201994Y157016D01*
X202984Y158006D01*
X203520Y159300D01*
Y160700D01*
X202984Y161994D01*
X201994Y162984D01*
X200700Y163520D01*
D02*
G37*
G36*
X380700Y133520D02*
X379300D01*
X378006Y132984D01*
X377016Y131994D01*
X376480Y130700D01*
Y129572D01*
X376032Y128968D01*
X375428Y128520D01*
X374572D01*
X373968Y128968D01*
X373520Y129572D01*
Y130700D01*
X372984Y131994D01*
X371994Y132984D01*
X370700Y133520D01*
X369300D01*
X368006Y132984D01*
X367016Y131994D01*
X366480Y130700D01*
Y129572D01*
X366032Y128968D01*
X365428Y128520D01*
X364572D01*
X363968Y128968D01*
X363520Y129572D01*
Y130700D01*
X362984Y131994D01*
X361994Y132984D01*
X360700Y133520D01*
X359300D01*
X358006Y132984D01*
X357016Y131994D01*
X356480Y130700D01*
Y129572D01*
X356032Y128968D01*
X355428Y128520D01*
X354572D01*
X353968Y128968D01*
X353520Y129572D01*
Y130700D01*
X352984Y131994D01*
X351994Y132984D01*
X350700Y133520D01*
X349300D01*
X348006Y132984D01*
X347016Y131994D01*
X346480Y130700D01*
Y129300D01*
X347016Y128006D01*
X348006Y127016D01*
X349300Y126480D01*
X350428D01*
X351032Y126032D01*
X351480Y125428D01*
Y124572D01*
X351032Y123968D01*
X350428Y123520D01*
X349300D01*
X348006Y122984D01*
X347016Y121994D01*
X346480Y120700D01*
Y119300D01*
X347016Y118006D01*
X348006Y117016D01*
X349300Y116480D01*
X350428D01*
X351032Y116032D01*
X351480Y115428D01*
Y114572D01*
X351032Y113968D01*
X350428Y113520D01*
X349300D01*
X348006Y112984D01*
X347016Y111994D01*
X346480Y110700D01*
Y109300D01*
X347016Y108006D01*
X348006Y107016D01*
X349300Y106480D01*
X350428D01*
X351032Y106032D01*
X351480Y105428D01*
Y104572D01*
X351032Y103968D01*
X350428Y103520D01*
X349300D01*
X348006Y102984D01*
X347016Y101994D01*
X346480Y100700D01*
Y99300D01*
X347016Y98006D01*
X348006Y97016D01*
X349300Y96480D01*
X350700D01*
X351994Y97016D01*
X352984Y98006D01*
X353520Y99300D01*
Y100428D01*
X353968Y101032D01*
X354572Y101480D01*
X355428D01*
X356032Y101032D01*
X356480Y100428D01*
Y99300D01*
X357016Y98006D01*
X358006Y97016D01*
X359300Y96480D01*
X360700D01*
X361994Y97016D01*
X362984Y98006D01*
X363520Y99300D01*
Y100428D01*
X363968Y101032D01*
X364572Y101480D01*
X365428D01*
X366032Y101032D01*
X366480Y100428D01*
Y99300D01*
X367016Y98006D01*
X368006Y97016D01*
X369300Y96480D01*
X370700D01*
X371994Y97016D01*
X372984Y98006D01*
X373520Y99300D01*
Y100700D01*
X372984Y101994D01*
X371994Y102984D01*
X370700Y103520D01*
X369572D01*
X368968Y103968D01*
X368520Y104572D01*
Y105428D01*
X368968Y106032D01*
X369572Y106480D01*
X370700D01*
X371994Y107016D01*
X372984Y108006D01*
X373520Y109300D01*
Y110700D01*
X372984Y111994D01*
X371994Y112984D01*
X370700Y113520D01*
X369572D01*
X368968Y113968D01*
X368520Y114572D01*
Y115428D01*
X368968Y116032D01*
X369572Y116480D01*
X370700D01*
X371994Y117016D01*
X372984Y118006D01*
X373520Y119300D01*
Y120428D01*
X373968Y121032D01*
X374572Y121480D01*
X375428D01*
X376032Y121032D01*
X376480Y120428D01*
Y119300D01*
X377016Y118006D01*
X378006Y117016D01*
X379300Y116480D01*
X380700D01*
X381994Y117016D01*
X382984Y118006D01*
X383520Y119300D01*
Y120700D01*
X382984Y121994D01*
X381994Y122984D01*
X380700Y123520D01*
X379572D01*
X378968Y123968D01*
X378520Y124572D01*
Y125428D01*
X378968Y126032D01*
X379572Y126480D01*
X380700D01*
X381994Y127016D01*
X382984Y128006D01*
X383520Y129300D01*
Y130700D01*
X382984Y131994D01*
X381994Y132984D01*
X380700Y133520D01*
D02*
G37*
G36*
X540700D02*
X539300D01*
X538006Y132984D01*
X537016Y131994D01*
X536480Y130700D01*
Y129300D01*
X537016Y128006D01*
X538006Y127016D01*
X539300Y126480D01*
X540700D01*
X541994Y127016D01*
X542984Y128006D01*
X543520Y129300D01*
Y130700D01*
X542984Y131994D01*
X541994Y132984D01*
X540700Y133520D01*
D02*
G37*
G36*
X530700D02*
X529300D01*
X528006Y132984D01*
X527016Y131994D01*
X526480Y130700D01*
Y129300D01*
X527016Y128006D01*
X528006Y127016D01*
X529300Y126480D01*
X530700D01*
X531994Y127016D01*
X532984Y128006D01*
X533520Y129300D01*
Y130700D01*
X532984Y131994D01*
X531994Y132984D01*
X530700Y133520D01*
D02*
G37*
G36*
X520700D02*
X519300D01*
X518006Y132984D01*
X517016Y131994D01*
X516480Y130700D01*
Y129300D01*
X517016Y128006D01*
X518006Y127016D01*
X519300Y126480D01*
X520700D01*
X521994Y127016D01*
X522984Y128006D01*
X523520Y129300D01*
Y130700D01*
X522984Y131994D01*
X521994Y132984D01*
X520700Y133520D01*
D02*
G37*
G36*
X510700D02*
X509300D01*
X508006Y132984D01*
X507016Y131994D01*
X506480Y130700D01*
Y129300D01*
X507016Y128006D01*
X508006Y127016D01*
X509300Y126480D01*
X510700D01*
X511994Y127016D01*
X512984Y128006D01*
X513520Y129300D01*
Y130700D01*
X512984Y131994D01*
X511994Y132984D01*
X510700Y133520D01*
D02*
G37*
G36*
X540700Y123520D02*
X539300D01*
X538006Y122984D01*
X537016Y121994D01*
X536480Y120700D01*
Y119300D01*
X537016Y118006D01*
X538006Y117016D01*
X539300Y116480D01*
X540700D01*
X541994Y117016D01*
X542984Y118006D01*
X543520Y119300D01*
Y120700D01*
X542984Y121994D01*
X541994Y122984D01*
X540700Y123520D01*
D02*
G37*
G36*
X530700D02*
X529300D01*
X528006Y122984D01*
X527016Y121994D01*
X526480Y120700D01*
Y119300D01*
X527016Y118006D01*
X528006Y117016D01*
X529300Y116480D01*
X530700D01*
X531994Y117016D01*
X532984Y118006D01*
X533520Y119300D01*
Y120700D01*
X532984Y121994D01*
X531994Y122984D01*
X530700Y123520D01*
D02*
G37*
G36*
X520700D02*
X519300D01*
X518006Y122984D01*
X517016Y121994D01*
X516480Y120700D01*
Y119300D01*
X517016Y118006D01*
X518006Y117016D01*
X519300Y116480D01*
X520700D01*
X521994Y117016D01*
X522984Y118006D01*
X523520Y119300D01*
Y120700D01*
X522984Y121994D01*
X521994Y122984D01*
X520700Y123520D01*
D02*
G37*
G36*
X510700D02*
X509300D01*
X508006Y122984D01*
X507016Y121994D01*
X506480Y120700D01*
Y119300D01*
X507016Y118006D01*
X508006Y117016D01*
X509300Y116480D01*
X510700D01*
X511994Y117016D01*
X512984Y118006D01*
X513520Y119300D01*
Y120700D01*
X512984Y121994D01*
X511994Y122984D01*
X510700Y123520D01*
D02*
G37*
G36*
X107816Y132416D02*
X88784D01*
Y113384D01*
X107816D01*
Y132416D01*
D02*
G37*
G36*
X74153D02*
X71647D01*
X69227Y131768D01*
X67057Y130515D01*
X65285Y128743D01*
X64033Y126573D01*
X63384Y124153D01*
Y121647D01*
X64033Y119227D01*
X65285Y117057D01*
X67057Y115285D01*
X69227Y114032D01*
X71647Y113384D01*
X74153D01*
X76573Y114032D01*
X78743Y115285D01*
X80515Y117057D01*
X81768Y119227D01*
X82416Y121647D01*
Y124153D01*
X81768Y126573D01*
X80515Y128743D01*
X78743Y130515D01*
X76573Y131768D01*
X74153Y132416D01*
D02*
G37*
G36*
X48753D02*
X46247D01*
X43827Y131768D01*
X41657Y130515D01*
X39885Y128743D01*
X38633Y126573D01*
X37984Y124153D01*
Y121647D01*
X38633Y119227D01*
X39885Y117057D01*
X41657Y115285D01*
X43827Y114032D01*
X46247Y113384D01*
X48753D01*
X51173Y114032D01*
X53343Y115285D01*
X55115Y117057D01*
X56368Y119227D01*
X57016Y121647D01*
Y124153D01*
X56368Y126573D01*
X55115Y128743D01*
X53343Y130515D01*
X51173Y131768D01*
X48753Y132416D01*
D02*
G37*
G36*
X540700Y113520D02*
X539300D01*
X538006Y112984D01*
X537016Y111994D01*
X536480Y110700D01*
Y109572D01*
X536032Y108968D01*
X535428Y108520D01*
X534572D01*
X533968Y108968D01*
X533520Y109572D01*
Y110700D01*
X532984Y111994D01*
X531994Y112984D01*
X530700Y113520D01*
X529300D01*
X528006Y112984D01*
X527016Y111994D01*
X526480Y110700D01*
Y109572D01*
X526032Y108968D01*
X525428Y108520D01*
X524300D01*
X523006Y107984D01*
X522016Y106994D01*
X521480Y105700D01*
Y104300D01*
X522016Y103006D01*
X523006Y102016D01*
X524300Y101480D01*
X525428D01*
X526032Y101032D01*
X526480Y100428D01*
Y99300D01*
X527016Y98006D01*
X528006Y97016D01*
X529300Y96480D01*
X530700D01*
X531994Y97016D01*
X532984Y98006D01*
X533520Y99300D01*
Y100428D01*
X533968Y101032D01*
X534572Y101480D01*
X535428D01*
X536032Y101032D01*
X536480Y100428D01*
Y99300D01*
X537016Y98006D01*
X538006Y97016D01*
X539300Y96480D01*
X540700D01*
X541994Y97016D01*
X542984Y98006D01*
X543520Y99300D01*
Y100428D01*
X543968Y101032D01*
X544572Y101480D01*
X545700D01*
X546994Y102016D01*
X547984Y103006D01*
X548520Y104300D01*
Y105700D01*
X547984Y106994D01*
X546994Y107984D01*
X545700Y108520D01*
X544572D01*
X543968Y108968D01*
X543520Y109572D01*
Y110700D01*
X542984Y111994D01*
X541994Y112984D01*
X540700Y113520D01*
D02*
G37*
G36*
X792250Y113716D02*
X789350D01*
X786548Y112965D01*
X784036Y111515D01*
X781985Y109464D01*
X780535Y106952D01*
X779784Y104150D01*
Y101250D01*
X780535Y98448D01*
X781985Y95936D01*
X784036Y93885D01*
X786548Y92435D01*
X789350Y91684D01*
X792250D01*
X795052Y92435D01*
X797564Y93885D01*
X799615Y95936D01*
X801065Y98448D01*
X801816Y101250D01*
Y104150D01*
X801065Y106952D01*
X799615Y109464D01*
X797564Y111515D01*
X795052Y112965D01*
X792250Y113716D01*
D02*
G37*
G36*
X766850D02*
X763950D01*
X761148Y112965D01*
X758636Y111515D01*
X756585Y109464D01*
X755135Y106952D01*
X754384Y104150D01*
Y101250D01*
X755135Y98448D01*
X756585Y95936D01*
X758636Y93885D01*
X761148Y92435D01*
X763950Y91684D01*
X766850D01*
X769652Y92435D01*
X772164Y93885D01*
X774215Y95936D01*
X775665Y98448D01*
X776416Y101250D01*
Y104150D01*
X775665Y106952D01*
X774215Y109464D01*
X772164Y111515D01*
X769652Y112965D01*
X766850Y113716D01*
D02*
G37*
G36*
X741450D02*
X738550D01*
X735748Y112965D01*
X733236Y111515D01*
X731185Y109464D01*
X729735Y106952D01*
X728984Y104150D01*
Y101250D01*
X729735Y98448D01*
X731185Y95936D01*
X733236Y93885D01*
X735748Y92435D01*
X738550Y91684D01*
X741450D01*
X744252Y92435D01*
X746764Y93885D01*
X748815Y95936D01*
X750265Y98448D01*
X751016Y101250D01*
Y104150D01*
X750265Y106952D01*
X748815Y109464D01*
X746764Y111515D01*
X744252Y112965D01*
X741450Y113716D01*
D02*
G37*
G36*
X716050D02*
X713150D01*
X710348Y112965D01*
X707836Y111515D01*
X705785Y109464D01*
X704335Y106952D01*
X703584Y104150D01*
Y101250D01*
X704335Y98448D01*
X705785Y95936D01*
X707836Y93885D01*
X710348Y92435D01*
X713150Y91684D01*
X716050D01*
X718852Y92435D01*
X721364Y93885D01*
X723415Y95936D01*
X724865Y98448D01*
X725616Y101250D01*
Y104150D01*
X724865Y106952D01*
X723415Y109464D01*
X721364Y111515D01*
X718852Y112965D01*
X716050Y113716D01*
D02*
G37*
G36*
X690650D02*
X687750D01*
X684948Y112965D01*
X682436Y111515D01*
X680385Y109464D01*
X678935Y106952D01*
X678184Y104150D01*
Y101250D01*
X678935Y98448D01*
X680385Y95936D01*
X682436Y93885D01*
X684948Y92435D01*
X687750Y91684D01*
X690650D01*
X693452Y92435D01*
X695964Y93885D01*
X698015Y95936D01*
X699465Y98448D01*
X700216Y101250D01*
Y104150D01*
X699465Y106952D01*
X698015Y109464D01*
X695964Y111515D01*
X693452Y112965D01*
X690650Y113716D01*
D02*
G37*
G36*
X505700Y106520D02*
X504300D01*
X503006Y105984D01*
X502016Y104994D01*
X501480Y103700D01*
Y102300D01*
X502016Y101006D01*
X502328Y100694D01*
X490307Y88673D01*
X457117D01*
X456984Y88994D01*
X455994Y89984D01*
X454700Y90520D01*
X453300D01*
X452006Y89984D01*
X451016Y88994D01*
X450480Y87700D01*
Y86300D01*
X451016Y85006D01*
X452006Y84016D01*
X453300Y83480D01*
X454700D01*
X455994Y84016D01*
X456984Y85006D01*
X457117Y85327D01*
X491000D01*
X491000Y85327D01*
X491640Y85454D01*
X492183Y85817D01*
X505561Y99195D01*
X505561Y99195D01*
X505771Y99509D01*
X506994Y100016D01*
X507984Y101006D01*
X508520Y102300D01*
Y103700D01*
X507984Y104994D01*
X506994Y105984D01*
X505700Y106520D01*
D02*
G37*
G36*
X99553Y107016D02*
X97047D01*
X94627Y106368D01*
X92457Y105115D01*
X90685Y103343D01*
X89432Y101173D01*
X88784Y98753D01*
Y96247D01*
X89432Y93827D01*
X90685Y91657D01*
X92457Y89885D01*
X94627Y88632D01*
X97047Y87984D01*
X99553D01*
X101973Y88632D01*
X104143Y89885D01*
X105915Y91657D01*
X107168Y93827D01*
X107816Y96247D01*
Y98753D01*
X107168Y101173D01*
X105915Y103343D01*
X104143Y105115D01*
X101973Y106368D01*
X99553Y107016D01*
D02*
G37*
G36*
X74153D02*
X71647D01*
X69227Y106368D01*
X67057Y105115D01*
X65285Y103343D01*
X64033Y101173D01*
X63384Y98753D01*
Y96247D01*
X64033Y93827D01*
X65285Y91657D01*
X67057Y89885D01*
X69227Y88632D01*
X71647Y87984D01*
X74153D01*
X76573Y88632D01*
X78743Y89885D01*
X80515Y91657D01*
X81768Y93827D01*
X82416Y96247D01*
Y98753D01*
X81768Y101173D01*
X80515Y103343D01*
X78743Y105115D01*
X76573Y106368D01*
X74153Y107016D01*
D02*
G37*
G36*
X48753D02*
X46247D01*
X43827Y106368D01*
X41657Y105115D01*
X39885Y103343D01*
X38633Y101173D01*
X37984Y98753D01*
Y96247D01*
X38633Y93827D01*
X39885Y91657D01*
X41657Y89885D01*
X43827Y88632D01*
X46247Y87984D01*
X48753D01*
X51173Y88632D01*
X53343Y89885D01*
X55115Y91657D01*
X56368Y93827D01*
X57016Y96247D01*
Y98753D01*
X56368Y101173D01*
X55115Y103343D01*
X53343Y105115D01*
X51173Y106368D01*
X48753Y107016D01*
D02*
G37*
G36*
X540700Y93520D02*
X539300D01*
X538006Y92984D01*
X537016Y91994D01*
X536480Y90700D01*
Y89300D01*
X537016Y88006D01*
X538006Y87016D01*
X539300Y86480D01*
X540700D01*
X541994Y87016D01*
X542984Y88006D01*
X543520Y89300D01*
Y90700D01*
X542984Y91994D01*
X541994Y92984D01*
X540700Y93520D01*
D02*
G37*
G36*
X530700D02*
X529300D01*
X528006Y92984D01*
X527016Y91994D01*
X526480Y90700D01*
Y89300D01*
X527016Y88006D01*
X528006Y87016D01*
X529300Y86480D01*
X530700D01*
X531994Y87016D01*
X532984Y88006D01*
X533520Y89300D01*
Y90700D01*
X532984Y91994D01*
X531994Y92984D01*
X530700Y93520D01*
D02*
G37*
G36*
X520700D02*
X519300D01*
X518006Y92984D01*
X517016Y91994D01*
X516480Y90700D01*
Y89300D01*
X517016Y88006D01*
X518006Y87016D01*
X519300Y86480D01*
X520700D01*
X521994Y87016D01*
X522984Y88006D01*
X523520Y89300D01*
Y90700D01*
X522984Y91994D01*
X521994Y92984D01*
X520700Y93520D01*
D02*
G37*
G36*
X350700D02*
X349300D01*
X348006Y92984D01*
X347016Y91994D01*
X346480Y90700D01*
Y89300D01*
X347016Y88006D01*
X348006Y87016D01*
X349300Y86480D01*
X350700D01*
X351994Y87016D01*
X352984Y88006D01*
X353520Y89300D01*
Y90700D01*
X352984Y91994D01*
X351994Y92984D01*
X350700Y93520D01*
D02*
G37*
G36*
X946450Y100516D02*
X943550D01*
X940748Y99765D01*
X938236Y98315D01*
X936185Y96264D01*
X934735Y93752D01*
X933984Y90950D01*
Y88050D01*
X934735Y85248D01*
X936185Y82736D01*
X938236Y80685D01*
X940748Y79235D01*
X943550Y78484D01*
X946450D01*
X949252Y79235D01*
X951764Y80685D01*
X953815Y82736D01*
X955265Y85248D01*
X956016Y88050D01*
Y90950D01*
X955265Y93752D01*
X953815Y96264D01*
X951764Y98315D01*
X949252Y99765D01*
X946450Y100516D01*
D02*
G37*
G36*
X921450D02*
X918550D01*
X915748Y99765D01*
X913236Y98315D01*
X911185Y96264D01*
X909735Y93752D01*
X908984Y90950D01*
Y88050D01*
X909735Y85248D01*
X911185Y82736D01*
X913236Y80685D01*
X915748Y79235D01*
X918550Y78484D01*
X921450D01*
X924252Y79235D01*
X926764Y80685D01*
X928815Y82736D01*
X930265Y85248D01*
X931016Y88050D01*
Y90950D01*
X930265Y93752D01*
X928815Y96264D01*
X926764Y98315D01*
X924252Y99765D01*
X921450Y100516D01*
D02*
G37*
G36*
X896450D02*
X893550D01*
X890748Y99765D01*
X888236Y98315D01*
X886185Y96264D01*
X884735Y93752D01*
X883984Y90950D01*
Y88050D01*
X884735Y85248D01*
X886185Y82736D01*
X888236Y80685D01*
X890748Y79235D01*
X893550Y78484D01*
X896450D01*
X899252Y79235D01*
X901764Y80685D01*
X903815Y82736D01*
X905265Y85248D01*
X906016Y88050D01*
Y90950D01*
X905265Y93752D01*
X903815Y96264D01*
X901764Y98315D01*
X899252Y99765D01*
X896450Y100516D01*
D02*
G37*
G36*
X875000Y100634D02*
X865000D01*
X862653Y100167D01*
X860663Y98837D01*
X859333Y96847D01*
X858866Y94500D01*
Y84500D01*
X859333Y82153D01*
X860663Y80163D01*
X862653Y78833D01*
X865000Y78366D01*
X875000D01*
X877347Y78833D01*
X879337Y80163D01*
X880667Y82153D01*
X881134Y84500D01*
Y94500D01*
X880667Y96847D01*
X879337Y98837D01*
X877347Y100167D01*
X875000Y100634D01*
D02*
G37*
G36*
X545700Y83520D02*
X544300D01*
X543006Y82984D01*
X542016Y81994D01*
X541480Y80700D01*
Y79300D01*
X542016Y78006D01*
X543006Y77016D01*
X544300Y76480D01*
X545700D01*
X546994Y77016D01*
X547984Y78006D01*
X548520Y79300D01*
Y80700D01*
X547984Y81994D01*
X546994Y82984D01*
X545700Y83520D01*
D02*
G37*
G36*
X535700D02*
X534300D01*
X533006Y82984D01*
X532016Y81994D01*
X531480Y80700D01*
Y79300D01*
X532016Y78006D01*
X533006Y77016D01*
X534300Y76480D01*
X535700D01*
X536994Y77016D01*
X537984Y78006D01*
X538520Y79300D01*
Y80700D01*
X537984Y81994D01*
X536994Y82984D01*
X535700Y83520D01*
D02*
G37*
G36*
X350700D02*
X349300D01*
X348006Y82984D01*
X347016Y81994D01*
X346480Y80700D01*
Y79300D01*
X347016Y78006D01*
X348006Y77016D01*
X349300Y76480D01*
X350700D01*
X351994Y77016D01*
X352984Y78006D01*
X353520Y79300D01*
Y80700D01*
X352984Y81994D01*
X351994Y82984D01*
X350700Y83520D01*
D02*
G37*
G36*
Y73520D02*
X349300D01*
X348006Y72984D01*
X347016Y71994D01*
X346480Y70700D01*
Y69300D01*
X347016Y68006D01*
X348006Y67016D01*
X349300Y66480D01*
X350700D01*
X351994Y67016D01*
X352984Y68006D01*
X353520Y69300D01*
Y70700D01*
X352984Y71994D01*
X351994Y72984D01*
X350700Y73520D01*
D02*
G37*
G36*
Y63520D02*
X349300D01*
X348006Y62984D01*
X347016Y61994D01*
X346480Y60700D01*
Y59300D01*
X347016Y58006D01*
X348006Y57016D01*
X349300Y56480D01*
X350700D01*
X351994Y57016D01*
X352984Y58006D01*
X353520Y59300D01*
Y60700D01*
X352984Y61994D01*
X351994Y62984D01*
X350700Y63520D01*
D02*
G37*
G36*
X285450Y213020D02*
X284050D01*
X282756Y212484D01*
X281766Y211494D01*
X281230Y210200D01*
Y208800D01*
X281766Y207506D01*
X282756Y206516D01*
X283077Y206383D01*
Y66443D01*
X271021Y54387D01*
X270700Y54520D01*
X269300D01*
X268006Y53984D01*
X267016Y52994D01*
X266480Y51700D01*
Y50300D01*
X267016Y49006D01*
X268006Y48016D01*
X269300Y47480D01*
X270700D01*
X271994Y48016D01*
X272984Y49006D01*
X273520Y50300D01*
Y51700D01*
X273387Y52021D01*
X285933Y64567D01*
X285933Y64567D01*
X286296Y65110D01*
X286423Y65750D01*
X286423Y65750D01*
Y206383D01*
X286744Y206516D01*
X287734Y207506D01*
X288270Y208800D01*
Y210200D01*
X287734Y211494D01*
X286744Y212484D01*
X285450Y213020D01*
D02*
G37*
%LPD*%
G36*
X400527Y455243D02*
X400801Y454833D01*
X407787Y447846D01*
X407301Y446673D01*
X355111D01*
X349811Y451973D01*
X349732Y452778D01*
X349895Y452941D01*
X350431Y454235D01*
Y455635D01*
X349895Y456929D01*
X348905Y457919D01*
X347611Y458455D01*
X346211D01*
X344917Y457919D01*
X343927Y456929D01*
X343391Y455635D01*
Y455508D01*
X336045D01*
X335196Y456778D01*
X335404Y457280D01*
Y458680D01*
X334868Y459974D01*
X333878Y460964D01*
X332584Y461500D01*
X331184D01*
X329890Y460964D01*
X328900Y459974D01*
X328767Y459653D01*
X325980D01*
X325340Y459526D01*
X324797Y459163D01*
X324797Y459163D01*
X321817Y456183D01*
X321454Y455640D01*
X321327Y455000D01*
X321327Y455000D01*
Y429193D01*
X317807Y425673D01*
X297750D01*
X297750Y425673D01*
X297110Y425546D01*
X296567Y425183D01*
X296567Y425183D01*
X291741Y420357D01*
X291100Y420470D01*
X290471Y420821D01*
Y464105D01*
X292693Y466327D01*
X297000D01*
X297000Y466327D01*
X297640Y466454D01*
X298183Y466817D01*
X300548Y469182D01*
X318656D01*
X318656Y469182D01*
X319296Y469309D01*
X319569Y469492D01*
X327723D01*
X328572Y468222D01*
X328364Y467720D01*
Y466320D01*
X328900Y465026D01*
X329890Y464036D01*
X331184Y463500D01*
X332584D01*
X333878Y464036D01*
X334868Y465026D01*
X335404Y466320D01*
Y467720D01*
X335196Y468222D01*
X335896Y469269D01*
X337213Y469352D01*
X337249Y469317D01*
X337249Y469317D01*
X337792Y468954D01*
X338432Y468827D01*
X343794D01*
X343927Y468506D01*
X344917Y467516D01*
X346211Y466980D01*
X347611D01*
X348905Y467516D01*
X349895Y468506D01*
X350431Y469800D01*
Y471200D01*
X349895Y472494D01*
X348905Y473484D01*
X348064Y473832D01*
X348031Y475193D01*
X348810Y475516D01*
X349800Y476506D01*
X350336Y477800D01*
Y479200D01*
X349800Y480494D01*
X349309Y480985D01*
X349835Y482255D01*
X373515D01*
X400527Y455243D01*
D02*
G37*
%LPC*%
G36*
X366700Y474520D02*
X365300D01*
X364006Y473984D01*
X363016Y472994D01*
X362480Y471700D01*
Y470300D01*
X363016Y469006D01*
X364006Y468016D01*
X365300Y467480D01*
X366700D01*
X367994Y468016D01*
X368984Y469006D01*
X369520Y470300D01*
Y471700D01*
X368984Y472994D01*
X367994Y473984D01*
X366700Y474520D01*
D02*
G37*
G36*
X365700Y459520D02*
X364300D01*
X363006Y458984D01*
X362016Y457994D01*
X361480Y456700D01*
Y455300D01*
X362016Y454006D01*
X363006Y453016D01*
X364300Y452480D01*
X365700D01*
X366994Y453016D01*
X367984Y454006D01*
X368520Y455300D01*
Y456700D01*
X367984Y457994D01*
X366994Y458984D01*
X365700Y459520D01*
D02*
G37*
%LPD*%
D11*
X239000Y204000D02*
X243000D01*
X259000Y220000D01*
X328000D01*
X335000Y213000D01*
Y156000D02*
Y213000D01*
X463522Y280478D02*
X464000Y280000D01*
X462100Y280478D02*
X463522D01*
X461578Y281000D02*
X462100Y280478D01*
X412000Y281000D02*
X461578D01*
X375000Y244000D02*
X412000Y281000D01*
X341000Y244000D02*
X375000D01*
X463000Y136000D02*
X463478Y136478D01*
Y137900D01*
X464000Y138422D01*
Y140000D01*
X458000Y146000D02*
X464000Y140000D01*
X392000Y146000D02*
X458000D01*
X374000Y164000D02*
X392000Y146000D01*
X87108Y658402D02*
X95806Y667100D01*
X87108Y602157D02*
Y658402D01*
X75394Y667100D02*
X84092Y658402D01*
Y600908D02*
Y658402D01*
X239615Y366000D02*
Y366676D01*
X245385Y366000D02*
Y366676D01*
X244008Y368054D02*
Y445257D01*
Y368054D02*
X245385Y366676D01*
X240992Y368054D02*
Y444008D01*
X239615Y366676D02*
X240992Y368054D01*
X87108Y602157D02*
X244008Y445257D01*
X84092Y600908D02*
X240992Y444008D01*
X72900Y667100D02*
X75394D01*
X95806D02*
X98300D01*
D14*
X338432Y470500D02*
X346911D01*
X318656Y470855D02*
X318966Y471165D01*
X337767D01*
X297000Y468000D02*
X299855Y470855D01*
X337767Y471165D02*
X338432Y470500D01*
X299855Y470855D02*
X318656D01*
X292000Y468000D02*
X297000D01*
X288798Y464798D02*
X292000Y468000D01*
X288798Y254857D02*
Y464798D01*
X280678Y474528D02*
X294528D01*
X306194Y486194D01*
X307929Y483928D02*
X374208D01*
X306194Y486194D02*
X375146D01*
X280001Y472000D02*
X296000D01*
X307929Y483928D01*
X343766Y183529D02*
X393545Y133750D01*
X492500Y51000D02*
X494000D01*
X341500Y182591D02*
X473091Y51000D01*
X492500D02*
X493250Y51750D01*
X346250Y184250D02*
X391250Y139250D01*
X493250Y51750D02*
X494000Y51000D01*
X346250Y184250D02*
Y213336D01*
X391250Y139250D02*
X413250D01*
X393545Y133750D02*
X437345D01*
X343766Y183529D02*
Y212616D01*
X341500Y182591D02*
Y211013D01*
X473091Y51000D02*
X491643D01*
X259608Y230392D02*
X263576Y226424D01*
X154108Y230392D02*
X259608D01*
X154000Y230500D02*
X154108Y230392D01*
X491643Y51000D02*
X492510Y51867D01*
X504378Y100378D02*
Y102378D01*
X491000Y87000D02*
X504378Y100378D01*
Y102378D02*
X505000Y103000D01*
X454000Y87000D02*
X491000D01*
X493250Y51750D02*
X494000Y52500D01*
X493133Y51867D02*
X493250Y51750D01*
X492510Y51867D02*
X493133D01*
X494348Y231348D02*
X510000Y247000D01*
X457679Y231348D02*
X494348D01*
X287123Y234218D02*
X442782D01*
X482000Y195000D02*
X499750D01*
X442782Y234218D02*
X482000Y195000D01*
X500000Y194750D02*
Y194750D01*
X499750Y195000D02*
X500000Y194750D01*
X289000Y238750D02*
X378750D01*
X411000Y271000D01*
X279000Y494316D02*
X282590Y490727D01*
X377024D01*
X47500Y692500D02*
X50477Y695478D01*
Y701695D01*
X56000Y679250D02*
X61000Y684250D01*
X35250Y679250D02*
X56000D01*
X22100Y692400D02*
X35250Y679250D01*
X22100Y692400D02*
Y692500D01*
X61000Y684250D02*
Y709013D01*
X96850Y691050D02*
X117300Y711500D01*
X184500D01*
X50477Y701695D02*
X65033Y716250D01*
X186467D01*
X339004Y563713D01*
Y563278D02*
Y563713D01*
X61000Y709013D02*
X65971Y713984D01*
X185529D01*
X333234Y566279D01*
Y563278D02*
Y566279D01*
X184500Y711500D02*
X327464Y568536D01*
Y563278D02*
Y568536D01*
X344931Y453835D02*
X346032Y454935D01*
X346911D01*
X329750Y453835D02*
X344931D01*
X291105Y499395D02*
X295000Y495500D01*
X227605Y499395D02*
X291105D01*
X222500Y504500D02*
X227605Y499395D01*
X377024Y490727D02*
X413686Y454064D01*
X292717Y476844D02*
X304333Y488461D01*
X376085D01*
X412747Y451798D01*
X285750Y476844D02*
X292717D01*
X222500Y490000D02*
X226355Y486145D01*
X285844D02*
X291000Y480989D01*
X226355Y486145D02*
X285844D01*
X375146Y486194D02*
X411809Y449532D01*
X374208Y483928D02*
X401984Y456152D01*
X343833Y449690D02*
X344933Y450790D01*
X331884Y442500D02*
X348636D01*
X354418Y445000D02*
X515864D01*
X344933Y450790D02*
X348628D01*
X351607Y442734D02*
X514925D01*
X350668Y440468D02*
X513987D01*
X348628Y450790D02*
X354418Y445000D01*
X331884Y449690D02*
X343833D01*
X346911Y446645D02*
X347696D01*
X348636Y442500D02*
X350668Y440468D01*
X346911Y438355D02*
X347064Y438202D01*
X347696Y446645D02*
X351607Y442734D01*
X347064Y438202D02*
X513048D01*
X556548Y394702D01*
X325980Y457980D02*
X331884D01*
X413250Y139250D02*
X413500Y139500D01*
Y139500D01*
X273000Y235750D02*
Y235750D01*
X269250Y239500D02*
X273000Y235750D01*
X269250Y239500D02*
Y446545D01*
X271516Y243096D02*
X283112Y231500D01*
X271516Y243096D02*
Y447516D01*
X283112Y231500D02*
X328086D01*
X282072Y242473D02*
Y414655D01*
X284338Y243412D02*
Y415594D01*
Y243412D02*
X289000Y238750D01*
X282072Y242473D02*
X288061Y236484D01*
X279806Y241535D02*
Y413717D01*
Y241535D02*
X287123Y234218D01*
X295033Y332503D02*
Y418078D01*
X295036Y245485D02*
Y332500D01*
X292767Y419017D02*
X297750Y424000D01*
X289250Y245500D02*
X292767Y249017D01*
X295033Y332503D02*
X295036Y332500D01*
X295033Y418078D02*
X298689Y421734D01*
X292767Y249017D02*
Y419017D01*
X295036Y245485D02*
X295098Y245423D01*
X279734Y413789D02*
Y428143D01*
X282000Y414728D02*
X282072Y414655D01*
X282000Y414728D02*
Y434616D01*
X278737Y445844D02*
X280156D01*
X278116Y446465D02*
X278737Y445844D01*
X277855Y430022D02*
Y430500D01*
X280156Y445844D02*
X284266Y441734D01*
Y415666D02*
Y441734D01*
X288622Y253122D02*
Y254681D01*
X278116Y438500D02*
X282000Y434616D01*
X288622Y254681D02*
X288798Y254857D01*
X279734Y413789D02*
X279806Y413717D01*
X277855Y438500D02*
X278116D01*
X284266Y415666D02*
X284338Y415594D01*
X277855Y430022D02*
X279734Y428143D01*
X270000Y51000D02*
X284750Y65750D01*
Y209500D01*
X328086Y231500D02*
X346250Y213336D01*
X327148Y229234D02*
X343766Y212616D01*
X325545Y226968D02*
X341500Y211013D01*
X273011Y229234D02*
X327148D01*
X266984Y235261D02*
X273011Y229234D01*
X264718Y234322D02*
X272072Y226968D01*
X325545D01*
X271516Y447516D02*
X276234Y452234D01*
X280000D01*
X288061Y236484D02*
X407000D01*
X266984Y235261D02*
Y438700D01*
X264718Y234322D02*
Y427717D01*
X269234Y446561D02*
X269250Y446545D01*
X267323Y449677D02*
X269234Y447766D01*
Y446561D02*
Y447766D01*
X263184Y449677D02*
X267323D01*
X262839Y429596D02*
Y434500D01*
X263184Y442500D02*
X266984Y438700D01*
X262839Y429596D02*
X264718Y427717D01*
X443500Y272984D02*
Y273750D01*
X407000Y236484D02*
X443500Y272984D01*
X298689Y421734D02*
X319734D01*
X326250Y428250D01*
Y450335D01*
X297750Y424000D02*
X318500D01*
X323000Y428500D01*
Y455000D01*
X326250Y450335D02*
X329750Y453835D01*
X323000Y455000D02*
X325980Y457980D01*
X283622Y478973D02*
X285750Y476844D01*
X273206Y482000D02*
X280678Y474528D01*
X277502Y474500D02*
X280001Y472000D01*
X263184Y474500D02*
X277502D01*
X283622Y478973D02*
Y480368D01*
X283000Y480989D02*
X283622Y480368D01*
X263000Y482000D02*
X273206D01*
X411809Y449532D02*
X517741D01*
X401984Y456016D02*
Y456152D01*
X413686Y454064D02*
X519618D01*
X412747Y451798D02*
X518680D01*
X746128Y232108D02*
X760144Y218092D01*
Y218000D02*
Y218092D01*
X743862Y228604D02*
X754374Y218092D01*
Y218000D02*
Y218092D01*
X741596Y225100D02*
X748604Y218092D01*
Y218000D02*
Y218092D01*
X741596Y225100D02*
Y274632D01*
X739330Y221596D02*
X742834Y218092D01*
Y218000D02*
Y218092D01*
X739330Y221596D02*
Y273693D01*
X713984Y218092D02*
X728000Y232108D01*
X713984Y218000D02*
Y218092D01*
X719754D02*
X730266Y228604D01*
X719754Y218000D02*
Y218092D01*
X725524D02*
X732532Y225100D01*
X725524Y218000D02*
Y218092D01*
X732532Y225100D02*
Y270877D01*
X731294Y218092D02*
X734798Y221596D01*
X731294Y218000D02*
Y218092D01*
X734798Y221596D02*
Y271816D01*
X420000Y419016D02*
X425000D01*
X439016Y405000D02*
X543045D01*
X425000Y419016D02*
X439016Y405000D01*
X746128Y232108D02*
Y276509D01*
X630201Y392436D02*
X746128Y276509D01*
X555609Y392436D02*
X630201D01*
X543045Y405000D02*
X555609Y392436D01*
X542107Y402734D02*
X554671Y390170D01*
X435512Y402734D02*
X542107D01*
X554671Y390170D02*
X629262D01*
X420000Y413246D02*
X425000D01*
X435512Y402734D01*
X743862Y228604D02*
Y275570D01*
X629262Y390170D02*
X743862Y275570D01*
X432008Y400468D02*
X541168D01*
X425000Y407476D02*
X432008Y400468D01*
X541168D02*
X553732Y387904D01*
X420000Y407476D02*
X425000D01*
X628324Y387904D02*
X741596Y274632D01*
X553732Y387904D02*
X628324D01*
X428504Y398202D02*
X540230D01*
X425000Y401706D02*
X428504Y398202D01*
X540230D02*
X552794Y385638D01*
X420000Y401706D02*
X425000D01*
X627385Y385638D02*
X739330Y273693D01*
X552794Y385638D02*
X627385D01*
X535536Y386872D02*
X548101Y374308D01*
X439016Y386872D02*
X535536D01*
X548101Y374308D02*
X622692D01*
X420000Y372856D02*
X425000D01*
X728000Y232108D02*
Y269000D01*
X622692Y374308D02*
X728000Y269000D01*
X425000Y372856D02*
X439016Y386872D01*
X435512Y389138D02*
X536475D01*
X425000Y378626D02*
X435512Y389138D01*
X420000Y378626D02*
X425000D01*
X730266Y228604D02*
Y269939D01*
X623631Y376574D02*
X730266Y269939D01*
X549039Y376574D02*
X623631D01*
X536475Y389138D02*
X549039Y376574D01*
X432008Y391404D02*
X537414D01*
X425000Y384396D02*
X432008Y391404D01*
X537414D02*
X549978Y378840D01*
X420000Y384396D02*
X425000D01*
X624569Y378840D02*
X732532Y270877D01*
X549978Y378840D02*
X624569D01*
X428504Y393670D02*
X538352D01*
X425000Y390166D02*
X428504Y393670D01*
X538352D02*
X550916Y381106D01*
X420000Y390166D02*
X425000D01*
X625508Y381106D02*
X734798Y271816D01*
X550916Y381106D02*
X625508D01*
X551855Y383372D02*
X626447D01*
X539291Y395936D02*
X551855Y383372D01*
X626447D02*
X737064Y272754D01*
X420000Y395936D02*
X539291D01*
X737064Y218000D02*
Y272754D01*
X745298Y408298D02*
X753000Y416000D01*
X562180Y408298D02*
X745298D01*
X753000Y416000D02*
X761000D01*
X747032Y406032D02*
X750833Y409833D01*
X561241Y406032D02*
X747032D01*
X753833Y409833D02*
X754000Y410000D01*
X750833Y409833D02*
X753833D01*
X756795Y424000D02*
X761000D01*
X743359Y410564D02*
X756795Y424000D01*
X760000Y410000D02*
X789000D01*
X517741Y449532D02*
X561241Y406032D01*
X753766Y403766D02*
X760000Y410000D01*
X563118Y410564D02*
X743359D01*
X560303Y403766D02*
X753766D01*
X760000Y397000D02*
X761000D01*
X558425Y399234D02*
X757766D01*
X559364Y401500D02*
X757500D01*
X757766Y399234D02*
X760000Y397000D01*
X759000Y403000D02*
X761000D01*
X757500Y401500D02*
X759000Y403000D01*
X516802Y447266D02*
X560303Y403766D01*
X410734Y447266D02*
X516802D01*
X401984Y456016D02*
X410734Y447266D01*
X519618Y454064D02*
X563118Y410564D01*
X518680Y451798D02*
X562180Y408298D01*
X557487Y396968D02*
X755032D01*
X515864Y445000D02*
X559364Y401500D01*
X556548Y394702D02*
X750250D01*
X514925Y442734D02*
X558425Y399234D01*
X513987Y440468D02*
X557487Y396968D01*
X759000Y386000D02*
X761000Y384000D01*
X758952Y386000D02*
X759000D01*
X750250Y394702D02*
X758952Y386000D01*
X755032Y396968D02*
X761000Y391000D01*
X222500Y504500D02*
Y515000D01*
D59*
X22100Y97500D02*
D03*
X47500D02*
D03*
X72900D02*
D03*
X98300D02*
D03*
X22100Y122900D02*
D03*
X47500D02*
D03*
X72900D02*
D03*
X882100Y387100D02*
D03*
X907500D02*
D03*
X932900D02*
D03*
X958300D02*
D03*
X882100Y412500D02*
D03*
X907500D02*
D03*
X932900D02*
D03*
X22100Y667100D02*
D03*
X47500D02*
D03*
X72900D02*
D03*
X98300D02*
D03*
X22100Y692500D02*
D03*
X47500D02*
D03*
X72900D02*
D03*
D60*
X98300Y122900D02*
D03*
X958300Y412500D02*
D03*
X98300Y692500D02*
D03*
D61*
X66750Y399750D02*
D03*
Y391250D02*
D03*
Y382750D02*
D03*
Y374250D02*
D03*
Y365750D02*
D03*
Y357250D02*
D03*
Y348750D02*
D03*
Y340250D02*
D03*
X80250D02*
D03*
Y348750D02*
D03*
Y357250D02*
D03*
Y365750D02*
D03*
Y374250D02*
D03*
Y382750D02*
D03*
Y391250D02*
D03*
Y399750D02*
D03*
D62*
X70450Y326750D02*
D03*
Y413250D02*
D03*
D63*
X36650Y326750D02*
D03*
Y413250D02*
D03*
D65*
X1060000Y760000D02*
D03*
Y40000D02*
D03*
X40000Y760000D02*
D03*
Y40000D02*
D03*
D70*
X392500Y528000D02*
X766000D01*
X370000D02*
X392500D01*
X806000Y460000D02*
Y488000D01*
X806000Y187500D02*
X806000Y460000D01*
X806000Y185000D02*
Y187500D01*
X766000Y528000D02*
X806000Y488000D01*
D72*
X689200Y77300D02*
D03*
X714600D02*
D03*
X790800D02*
D03*
Y102700D02*
D03*
X765400D02*
D03*
X714600D02*
D03*
X689200D02*
D03*
X740000D02*
D03*
X765400Y77300D02*
D03*
X740000D02*
D03*
X870000Y710500D02*
D03*
X920000D02*
D03*
X945000D02*
D03*
X895000D02*
D03*
X970000Y89500D02*
D03*
X920000D02*
D03*
X895000D02*
D03*
X945000D02*
D03*
D73*
X970000Y710500D02*
D03*
X870000Y89500D02*
D03*
D74*
X359000Y426209D02*
D03*
X306000Y475000D02*
D03*
X365000Y456000D02*
D03*
X366000Y471000D02*
D03*
X1070001Y730001D02*
D03*
X1080001Y710001D02*
D03*
X1070001Y530000D02*
D03*
Y450000D02*
D03*
Y410000D02*
D03*
Y370000D02*
D03*
Y90000D02*
D03*
X1080001Y70000D02*
D03*
X1070001Y10000D02*
D03*
X1050001Y730001D02*
D03*
X1060001Y710001D02*
D03*
Y670001D02*
D03*
X1050001Y610000D02*
D03*
X1060001Y590000D02*
D03*
X1050001Y570000D02*
D03*
X1060001Y550000D02*
D03*
X1050001Y530000D02*
D03*
X1060001Y510000D02*
D03*
X1050001Y490000D02*
D03*
Y450000D02*
D03*
X1060001Y430000D02*
D03*
X1050001Y410000D02*
D03*
X1060001Y390000D02*
D03*
X1050001Y370000D02*
D03*
X1060001Y350000D02*
D03*
X1050001Y290000D02*
D03*
Y250000D02*
D03*
Y210000D02*
D03*
Y170000D02*
D03*
Y130000D02*
D03*
X1060001Y70000D02*
D03*
X1050001Y10000D02*
D03*
X1030001Y770001D02*
D03*
Y690001D02*
D03*
X1040001Y670001D02*
D03*
X1030001Y650001D02*
D03*
Y610000D02*
D03*
X1040001Y590000D02*
D03*
X1030001Y570000D02*
D03*
X1040001Y550000D02*
D03*
X1030001Y530000D02*
D03*
X1040001Y510000D02*
D03*
X1030001Y490000D02*
D03*
X1040001Y470000D02*
D03*
X1030001Y450000D02*
D03*
X1040001Y430000D02*
D03*
X1030001Y410000D02*
D03*
X1040001Y390000D02*
D03*
X1030001Y370000D02*
D03*
X1040001Y350000D02*
D03*
X1030001Y330000D02*
D03*
X1040001Y310000D02*
D03*
X1030001Y290000D02*
D03*
X1040001Y270000D02*
D03*
X1030001Y250000D02*
D03*
X1040001Y230000D02*
D03*
X1030001Y210000D02*
D03*
X1040001Y190000D02*
D03*
X1030001Y170000D02*
D03*
X1040001Y150000D02*
D03*
X1030001Y130000D02*
D03*
X1040001Y110000D02*
D03*
X1030001Y90000D02*
D03*
Y50000D02*
D03*
Y10000D02*
D03*
X1010001Y770001D02*
D03*
X1020001Y750001D02*
D03*
Y710001D02*
D03*
X1010001Y690001D02*
D03*
X1020001Y670001D02*
D03*
X1010001Y650001D02*
D03*
X1020001Y630000D02*
D03*
X1010001Y610000D02*
D03*
X1020001Y590000D02*
D03*
X1010001Y570000D02*
D03*
X1020001Y550000D02*
D03*
X1010001Y530000D02*
D03*
X1020001Y510000D02*
D03*
X1010001Y490000D02*
D03*
X1020001Y470000D02*
D03*
X1010001Y450000D02*
D03*
X1020001Y430000D02*
D03*
X1010001Y410000D02*
D03*
X1020001Y390000D02*
D03*
X1010001Y370000D02*
D03*
X1020001Y350000D02*
D03*
X1010001Y330000D02*
D03*
X1020001Y310000D02*
D03*
X1010001Y290000D02*
D03*
X1020001Y270000D02*
D03*
X1010001Y250000D02*
D03*
X1020001Y230000D02*
D03*
X1010001Y210000D02*
D03*
X1020001Y190000D02*
D03*
X1010001Y170000D02*
D03*
X1020001Y150000D02*
D03*
X1010001Y130000D02*
D03*
X1020001Y110000D02*
D03*
X1010001Y90000D02*
D03*
X1020001Y30000D02*
D03*
X1010001Y10000D02*
D03*
X990001Y730001D02*
D03*
X1000001Y710001D02*
D03*
X990001Y690001D02*
D03*
X1000001Y670001D02*
D03*
X990001Y650001D02*
D03*
X1000001Y630000D02*
D03*
X990001Y610000D02*
D03*
X1000001Y590000D02*
D03*
X990001Y570000D02*
D03*
X1000001Y550000D02*
D03*
X990001Y530000D02*
D03*
X1000001Y510000D02*
D03*
X990001Y490000D02*
D03*
X1000001Y470000D02*
D03*
X990001Y450000D02*
D03*
X1000001Y430000D02*
D03*
X990001Y410000D02*
D03*
X1000001Y390000D02*
D03*
X990001Y370000D02*
D03*
X1000001Y350000D02*
D03*
X990001Y330000D02*
D03*
X1000001Y310000D02*
D03*
X990001Y290000D02*
D03*
X1000001Y270000D02*
D03*
X990001Y250000D02*
D03*
X1000001Y230000D02*
D03*
X990001Y210000D02*
D03*
X1000001Y190000D02*
D03*
X990001Y170000D02*
D03*
X1000001Y150000D02*
D03*
X990001Y130000D02*
D03*
X1000001Y110000D02*
D03*
X990001Y90000D02*
D03*
X1000001Y70000D02*
D03*
X990001Y50000D02*
D03*
Y10000D02*
D03*
X980001Y750001D02*
D03*
X970001Y730001D02*
D03*
Y690001D02*
D03*
X980001Y670001D02*
D03*
X970001Y650001D02*
D03*
X980001Y630000D02*
D03*
X970001Y610000D02*
D03*
X980001Y590000D02*
D03*
X970001Y570000D02*
D03*
X980001Y550000D02*
D03*
X970001Y530000D02*
D03*
X980001Y510000D02*
D03*
X970001Y490000D02*
D03*
X980001Y470000D02*
D03*
X970001Y450000D02*
D03*
X980001Y430000D02*
D03*
Y390000D02*
D03*
X970001Y370000D02*
D03*
X980001Y350000D02*
D03*
X970001Y330000D02*
D03*
X980001Y310000D02*
D03*
X970001Y290000D02*
D03*
X980001Y270000D02*
D03*
X970001Y250000D02*
D03*
X980001Y230000D02*
D03*
X970001Y210000D02*
D03*
X980001Y190000D02*
D03*
X970001Y170000D02*
D03*
X980001Y150000D02*
D03*
X970001Y130000D02*
D03*
X980001Y110000D02*
D03*
Y70000D02*
D03*
X970001Y50000D02*
D03*
X960001Y750001D02*
D03*
X950001Y730001D02*
D03*
X960001Y670001D02*
D03*
Y630000D02*
D03*
Y590000D02*
D03*
Y550000D02*
D03*
Y510000D02*
D03*
X950001Y490000D02*
D03*
X960001Y470000D02*
D03*
X950001Y450000D02*
D03*
X960001Y430000D02*
D03*
Y350000D02*
D03*
X950001Y330000D02*
D03*
X960001Y310000D02*
D03*
X950001Y290000D02*
D03*
X960001Y270000D02*
D03*
X950001Y250000D02*
D03*
X960001Y230000D02*
D03*
X950001Y210000D02*
D03*
X960001Y190000D02*
D03*
X950001Y170000D02*
D03*
X960001Y150000D02*
D03*
X950001Y130000D02*
D03*
X960001Y110000D02*
D03*
Y70000D02*
D03*
X950001Y50000D02*
D03*
X960001Y30000D02*
D03*
X940001Y750001D02*
D03*
X930001Y730001D02*
D03*
Y690001D02*
D03*
Y650001D02*
D03*
Y610000D02*
D03*
Y570000D02*
D03*
Y530000D02*
D03*
X940001Y470000D02*
D03*
X930001Y450000D02*
D03*
X940001Y430000D02*
D03*
Y350000D02*
D03*
X930001Y330000D02*
D03*
X940001Y310000D02*
D03*
X930001Y290000D02*
D03*
X940001Y270000D02*
D03*
X930001Y250000D02*
D03*
X940001Y230000D02*
D03*
X930001Y210000D02*
D03*
X940001Y190000D02*
D03*
X930001Y170000D02*
D03*
X940001Y150000D02*
D03*
Y70000D02*
D03*
X930001Y50000D02*
D03*
X940001Y30000D02*
D03*
X920001Y750001D02*
D03*
X910001Y730001D02*
D03*
Y690001D02*
D03*
Y650001D02*
D03*
Y610000D02*
D03*
Y570000D02*
D03*
Y530000D02*
D03*
Y490000D02*
D03*
Y450000D02*
D03*
X920001Y430000D02*
D03*
Y350000D02*
D03*
X910001Y330000D02*
D03*
X920001Y310000D02*
D03*
X910001Y290000D02*
D03*
X920001Y270000D02*
D03*
X910001Y250000D02*
D03*
X920001Y230000D02*
D03*
X910001Y210000D02*
D03*
X920001Y190000D02*
D03*
X910001Y170000D02*
D03*
X920001Y150000D02*
D03*
Y70000D02*
D03*
X910001Y50000D02*
D03*
X920001Y30000D02*
D03*
X900001Y750001D02*
D03*
X890001Y730001D02*
D03*
X900001Y430000D02*
D03*
Y350000D02*
D03*
X890001Y330000D02*
D03*
X900001Y310000D02*
D03*
X890001Y290000D02*
D03*
X900001Y270000D02*
D03*
X890001Y250000D02*
D03*
X900001Y230000D02*
D03*
X890001Y210000D02*
D03*
X900001Y190000D02*
D03*
X890001Y170000D02*
D03*
X900001Y150000D02*
D03*
Y70000D02*
D03*
X890001Y50000D02*
D03*
X900001Y30000D02*
D03*
X880001Y750001D02*
D03*
X870001Y730001D02*
D03*
Y690001D02*
D03*
X880001Y670001D02*
D03*
X870001Y650001D02*
D03*
X880001Y630000D02*
D03*
X870001Y610000D02*
D03*
X880001Y590000D02*
D03*
X870001Y570000D02*
D03*
X880001Y550000D02*
D03*
X870001Y530000D02*
D03*
X880001Y510000D02*
D03*
X870001Y490000D02*
D03*
X880001Y350000D02*
D03*
X870001Y330000D02*
D03*
X880001Y310000D02*
D03*
X870001Y290000D02*
D03*
X880001Y270000D02*
D03*
X870001Y250000D02*
D03*
X880001Y230000D02*
D03*
X870001Y210000D02*
D03*
X880001Y190000D02*
D03*
X870001Y170000D02*
D03*
X880001Y150000D02*
D03*
Y110000D02*
D03*
Y70000D02*
D03*
X870001Y50000D02*
D03*
X880001Y30000D02*
D03*
X860001Y750001D02*
D03*
X850001Y730001D02*
D03*
Y690001D02*
D03*
X860001Y670001D02*
D03*
X850001Y650001D02*
D03*
X860001Y630000D02*
D03*
X850001Y610000D02*
D03*
X860001Y590000D02*
D03*
X850001Y570000D02*
D03*
X860001Y550000D02*
D03*
X850001Y530000D02*
D03*
X860001Y510000D02*
D03*
X850001Y490000D02*
D03*
X860001Y470000D02*
D03*
X850001Y450000D02*
D03*
Y370000D02*
D03*
X860001Y350000D02*
D03*
X850001Y330000D02*
D03*
X860001Y310000D02*
D03*
X850001Y290000D02*
D03*
X860001Y270000D02*
D03*
X850001Y250000D02*
D03*
X860001Y230000D02*
D03*
X850001Y210000D02*
D03*
X860001Y190000D02*
D03*
X850001Y170000D02*
D03*
X860001Y150000D02*
D03*
Y110000D02*
D03*
X850001Y90000D02*
D03*
X860001Y70000D02*
D03*
X850001Y50000D02*
D03*
X860001Y30000D02*
D03*
X830001Y730001D02*
D03*
X840001Y710001D02*
D03*
X830001Y690001D02*
D03*
X840001Y670001D02*
D03*
X830001Y650001D02*
D03*
X840001Y630000D02*
D03*
X830001Y610000D02*
D03*
X840001Y590000D02*
D03*
X830001Y570000D02*
D03*
X840001Y550000D02*
D03*
X830001Y530000D02*
D03*
X840001Y510000D02*
D03*
X830001Y490000D02*
D03*
X840001Y470000D02*
D03*
Y350000D02*
D03*
X830001Y330000D02*
D03*
X840001Y310000D02*
D03*
X830001Y290000D02*
D03*
X840001Y270000D02*
D03*
X830001Y250000D02*
D03*
X840001Y230000D02*
D03*
X830001Y210000D02*
D03*
X840001Y190000D02*
D03*
X830001Y170000D02*
D03*
X840001Y150000D02*
D03*
Y110000D02*
D03*
X830001Y90000D02*
D03*
X840001Y70000D02*
D03*
X810001Y730001D02*
D03*
X820001Y710001D02*
D03*
X810001Y690001D02*
D03*
X820001Y670001D02*
D03*
X810001Y650001D02*
D03*
X820001Y630000D02*
D03*
X810001Y610000D02*
D03*
X820001Y590000D02*
D03*
X810001Y570000D02*
D03*
X820001Y550000D02*
D03*
X810001Y530000D02*
D03*
X820001Y510000D02*
D03*
Y470000D02*
D03*
Y350000D02*
D03*
Y310000D02*
D03*
Y270000D02*
D03*
Y230000D02*
D03*
Y190000D02*
D03*
X810001Y170000D02*
D03*
X820001Y150000D02*
D03*
Y110000D02*
D03*
X810001Y90000D02*
D03*
X820001Y70000D02*
D03*
X810001Y50000D02*
D03*
X790001Y770001D02*
D03*
Y730001D02*
D03*
X800001Y710001D02*
D03*
X790001Y690001D02*
D03*
X800001Y670001D02*
D03*
X790001Y650001D02*
D03*
X800001Y630000D02*
D03*
X790001Y610000D02*
D03*
X800001Y590000D02*
D03*
X790001Y570000D02*
D03*
X800001Y550000D02*
D03*
X790001Y530000D02*
D03*
Y330000D02*
D03*
Y290000D02*
D03*
Y250000D02*
D03*
Y210000D02*
D03*
X800001Y150000D02*
D03*
X790001Y50000D02*
D03*
X770001Y770001D02*
D03*
Y730001D02*
D03*
X780001Y710001D02*
D03*
X770001Y690001D02*
D03*
X780001Y670001D02*
D03*
X770001Y650001D02*
D03*
X780001Y630000D02*
D03*
X770001Y610000D02*
D03*
X780001Y590000D02*
D03*
X770001Y570000D02*
D03*
X780001Y550000D02*
D03*
X770001Y490000D02*
D03*
X780001Y470000D02*
D03*
Y350000D02*
D03*
X770001Y330000D02*
D03*
X780001Y310000D02*
D03*
X770001Y290000D02*
D03*
X780001Y270000D02*
D03*
X770001Y250000D02*
D03*
X780001Y230000D02*
D03*
X770001Y50000D02*
D03*
X760001Y750001D02*
D03*
X750001Y730001D02*
D03*
X760001Y710001D02*
D03*
X750001Y690001D02*
D03*
X760001Y670001D02*
D03*
X750001Y650001D02*
D03*
X760001Y630000D02*
D03*
X750001Y610000D02*
D03*
X760001Y590000D02*
D03*
X750001Y570000D02*
D03*
X760001Y550000D02*
D03*
Y510000D02*
D03*
X750001Y490000D02*
D03*
X760001Y470000D02*
D03*
X750001Y450000D02*
D03*
Y370000D02*
D03*
X760001Y350000D02*
D03*
X750001Y330000D02*
D03*
X760001Y310000D02*
D03*
X750001Y290000D02*
D03*
X760001Y270000D02*
D03*
Y230000D02*
D03*
X750001Y170000D02*
D03*
Y50000D02*
D03*
X730001Y770001D02*
D03*
X740001Y750001D02*
D03*
X730001Y730001D02*
D03*
X740001Y710001D02*
D03*
X730001Y690001D02*
D03*
X740001Y670001D02*
D03*
X730001Y650001D02*
D03*
X740001Y630000D02*
D03*
X730001Y610000D02*
D03*
X740001Y590000D02*
D03*
X730001Y570000D02*
D03*
X740001Y550000D02*
D03*
Y510000D02*
D03*
X730001Y490000D02*
D03*
X740001Y470000D02*
D03*
X730001Y450000D02*
D03*
X740001Y430000D02*
D03*
X730001Y370000D02*
D03*
X740001Y350000D02*
D03*
X730001Y330000D02*
D03*
X740001Y310000D02*
D03*
X730001Y170000D02*
D03*
Y50000D02*
D03*
X710001Y770001D02*
D03*
X720001Y750001D02*
D03*
X710001Y730001D02*
D03*
X720001Y710001D02*
D03*
X710001Y690001D02*
D03*
X720001Y670001D02*
D03*
X710001Y650001D02*
D03*
X720001Y630000D02*
D03*
X710001Y610000D02*
D03*
X720001Y590000D02*
D03*
X710001Y570000D02*
D03*
X720001Y550000D02*
D03*
Y510000D02*
D03*
X710001Y490000D02*
D03*
X720001Y470000D02*
D03*
X710001Y450000D02*
D03*
X720001Y430000D02*
D03*
X710001Y370000D02*
D03*
X720001Y350000D02*
D03*
X710001Y330000D02*
D03*
Y250000D02*
D03*
Y170000D02*
D03*
Y50000D02*
D03*
X690001Y770001D02*
D03*
X700001Y750001D02*
D03*
X690001Y730001D02*
D03*
X700001Y710001D02*
D03*
X690001Y690001D02*
D03*
X700001Y670001D02*
D03*
X690001Y650001D02*
D03*
X700001Y630000D02*
D03*
X690001Y610000D02*
D03*
X700001Y590000D02*
D03*
X690001Y570000D02*
D03*
X700001Y550000D02*
D03*
Y510000D02*
D03*
X690001Y490000D02*
D03*
X700001Y470000D02*
D03*
X690001Y450000D02*
D03*
X700001Y430000D02*
D03*
X690001Y370000D02*
D03*
X700001Y350000D02*
D03*
X690001Y290000D02*
D03*
X700001Y270000D02*
D03*
X690001Y250000D02*
D03*
X700001Y230000D02*
D03*
X690001Y210000D02*
D03*
X700001Y190000D02*
D03*
X690001Y170000D02*
D03*
X700001Y150000D02*
D03*
X690001Y130000D02*
D03*
Y50000D02*
D03*
X670001Y770001D02*
D03*
X680001Y750001D02*
D03*
X670001Y730001D02*
D03*
X680001Y710001D02*
D03*
X670001Y690001D02*
D03*
X680001Y670001D02*
D03*
X670001Y650001D02*
D03*
X680001Y630000D02*
D03*
X670001Y610000D02*
D03*
X680001Y590000D02*
D03*
X670001Y570000D02*
D03*
X680001Y550000D02*
D03*
Y510000D02*
D03*
X670001Y490000D02*
D03*
X680001Y470000D02*
D03*
X670001Y450000D02*
D03*
X680001Y430000D02*
D03*
X670001Y370000D02*
D03*
Y290000D02*
D03*
X680001Y270000D02*
D03*
X670001Y250000D02*
D03*
X680001Y230000D02*
D03*
X670001Y210000D02*
D03*
X680001Y190000D02*
D03*
X670001Y170000D02*
D03*
X680001Y150000D02*
D03*
X670001Y130000D02*
D03*
Y90000D02*
D03*
Y50000D02*
D03*
X680001Y30000D02*
D03*
X650001Y770001D02*
D03*
X660001Y750001D02*
D03*
X650001Y730001D02*
D03*
X660001Y710001D02*
D03*
X650001Y690001D02*
D03*
X660001Y670001D02*
D03*
X650001Y650001D02*
D03*
X660001Y630000D02*
D03*
X650001Y610000D02*
D03*
X660001Y590000D02*
D03*
X650001Y570000D02*
D03*
X660001Y550000D02*
D03*
Y510000D02*
D03*
X650001Y490000D02*
D03*
X660001Y470000D02*
D03*
X650001Y450000D02*
D03*
X660001Y430000D02*
D03*
X650001Y330000D02*
D03*
X660001Y310000D02*
D03*
X650001Y290000D02*
D03*
X660001Y270000D02*
D03*
X650001Y250000D02*
D03*
X660001Y230000D02*
D03*
X650001Y210000D02*
D03*
X660001Y190000D02*
D03*
X650001Y170000D02*
D03*
X660001Y150000D02*
D03*
X650001Y130000D02*
D03*
X660001Y110000D02*
D03*
X650001Y90000D02*
D03*
X660001Y70000D02*
D03*
X650001Y50000D02*
D03*
X630000Y770001D02*
D03*
X640001Y750001D02*
D03*
X630000Y730001D02*
D03*
X640001Y710001D02*
D03*
X630000Y690001D02*
D03*
X640001Y670001D02*
D03*
X630000Y650001D02*
D03*
X640001Y630000D02*
D03*
X630000Y610000D02*
D03*
X640001Y590000D02*
D03*
X630000Y570000D02*
D03*
X640001Y550000D02*
D03*
Y510000D02*
D03*
X630000Y490000D02*
D03*
X640001Y470000D02*
D03*
X630000Y450000D02*
D03*
X640001Y430000D02*
D03*
X630000Y330000D02*
D03*
X640001Y310000D02*
D03*
X630000Y290000D02*
D03*
X640001Y270000D02*
D03*
X630000Y250000D02*
D03*
X640001Y230000D02*
D03*
X630000Y210000D02*
D03*
X640001Y190000D02*
D03*
X630000Y170000D02*
D03*
X640001Y150000D02*
D03*
X630000Y130000D02*
D03*
X640001Y110000D02*
D03*
X630000Y90000D02*
D03*
X640001Y70000D02*
D03*
X630000Y50000D02*
D03*
Y10000D02*
D03*
X610000Y770001D02*
D03*
X620000Y750001D02*
D03*
X610000Y730001D02*
D03*
X620000Y710001D02*
D03*
X610000Y690001D02*
D03*
X620000Y670001D02*
D03*
X610000Y650001D02*
D03*
X620000Y630000D02*
D03*
X610000Y610000D02*
D03*
X620000Y590000D02*
D03*
X610000Y570000D02*
D03*
X620000Y550000D02*
D03*
Y510000D02*
D03*
X610000Y490000D02*
D03*
X620000Y470000D02*
D03*
X610000Y450000D02*
D03*
X620000Y430000D02*
D03*
Y350000D02*
D03*
X610000Y330000D02*
D03*
X620000Y310000D02*
D03*
X610000Y290000D02*
D03*
X620000Y270000D02*
D03*
X610000Y250000D02*
D03*
X620000Y230000D02*
D03*
X610000Y210000D02*
D03*
X620000Y190000D02*
D03*
X610000Y170000D02*
D03*
X620000Y150000D02*
D03*
X610000Y130000D02*
D03*
X620000Y110000D02*
D03*
X610000Y90000D02*
D03*
X620000Y70000D02*
D03*
X610000Y50000D02*
D03*
Y10000D02*
D03*
X590000Y770001D02*
D03*
X600000Y750001D02*
D03*
X590000Y730001D02*
D03*
X600000Y710001D02*
D03*
X590000Y690001D02*
D03*
X600000Y670001D02*
D03*
X590000Y650001D02*
D03*
X600000Y630000D02*
D03*
X590000Y610000D02*
D03*
X600000Y590000D02*
D03*
X590000Y570000D02*
D03*
X600000Y550000D02*
D03*
Y510000D02*
D03*
X590000Y490000D02*
D03*
X600000Y470000D02*
D03*
X590000Y450000D02*
D03*
X600000Y430000D02*
D03*
Y350000D02*
D03*
X590000Y330000D02*
D03*
X600000Y310000D02*
D03*
X590000Y290000D02*
D03*
X600000Y270000D02*
D03*
X590000Y250000D02*
D03*
X600000Y230000D02*
D03*
X590000Y210000D02*
D03*
X600000Y190000D02*
D03*
X590000Y170000D02*
D03*
X600000Y150000D02*
D03*
X590000Y130000D02*
D03*
X600000Y110000D02*
D03*
X590000Y90000D02*
D03*
X600000Y70000D02*
D03*
X590000Y50000D02*
D03*
Y10000D02*
D03*
X570000Y770001D02*
D03*
X580000Y750001D02*
D03*
X570000Y730001D02*
D03*
X580000Y710001D02*
D03*
X570000Y690001D02*
D03*
X580000Y670001D02*
D03*
X570000Y650001D02*
D03*
X580000Y630000D02*
D03*
X570000Y610000D02*
D03*
X580000Y590000D02*
D03*
X570000Y570000D02*
D03*
X580000Y550000D02*
D03*
Y510000D02*
D03*
X570000Y490000D02*
D03*
X580000Y470000D02*
D03*
X570000Y450000D02*
D03*
X580000Y430000D02*
D03*
Y350000D02*
D03*
X570000Y330000D02*
D03*
X580000Y310000D02*
D03*
X570000Y290000D02*
D03*
X580000Y270000D02*
D03*
Y230000D02*
D03*
X570000Y210000D02*
D03*
X580000Y190000D02*
D03*
X570000Y170000D02*
D03*
X580000Y150000D02*
D03*
X570000Y130000D02*
D03*
X580000Y110000D02*
D03*
X570000Y90000D02*
D03*
X580000Y70000D02*
D03*
X570000Y50000D02*
D03*
Y10000D02*
D03*
X550000Y770001D02*
D03*
X560000Y750001D02*
D03*
X550000Y730001D02*
D03*
X560000Y710001D02*
D03*
X550000Y690001D02*
D03*
X560000Y670001D02*
D03*
X550000Y650001D02*
D03*
X560000Y630000D02*
D03*
X550000Y610000D02*
D03*
X560000Y590000D02*
D03*
X550000Y570000D02*
D03*
X560000Y550000D02*
D03*
Y510000D02*
D03*
X550000Y490000D02*
D03*
X560000Y470000D02*
D03*
X550000Y450000D02*
D03*
X560000Y430000D02*
D03*
Y350000D02*
D03*
X550000Y330000D02*
D03*
X560000Y310000D02*
D03*
X550000Y290000D02*
D03*
X560000Y270000D02*
D03*
Y230000D02*
D03*
X550000Y210000D02*
D03*
X560000Y190000D02*
D03*
X550000Y170000D02*
D03*
X560000Y150000D02*
D03*
X550000Y130000D02*
D03*
Y90000D02*
D03*
X560000Y70000D02*
D03*
X550000Y50000D02*
D03*
Y10000D02*
D03*
X530000Y770001D02*
D03*
X540000Y750001D02*
D03*
X530000Y730001D02*
D03*
X540000Y710001D02*
D03*
X530000Y690001D02*
D03*
X540000Y670001D02*
D03*
X530000Y650001D02*
D03*
X540000Y630000D02*
D03*
X530000Y610000D02*
D03*
X540000Y590000D02*
D03*
X530000Y570000D02*
D03*
X540000Y550000D02*
D03*
Y510000D02*
D03*
X530000Y490000D02*
D03*
X540000Y470000D02*
D03*
X530000Y370000D02*
D03*
X540000Y350000D02*
D03*
X530000Y330000D02*
D03*
X540000Y310000D02*
D03*
X530000Y290000D02*
D03*
X540000Y190000D02*
D03*
X530000Y170000D02*
D03*
X540000Y150000D02*
D03*
Y70000D02*
D03*
X530000Y10000D02*
D03*
X510000Y770001D02*
D03*
X520000Y750001D02*
D03*
X510000Y730001D02*
D03*
X520000Y710001D02*
D03*
X510000Y690001D02*
D03*
X520000Y670001D02*
D03*
X510000Y650001D02*
D03*
X520000Y630000D02*
D03*
X510000Y610000D02*
D03*
X520000Y590000D02*
D03*
X510000Y570000D02*
D03*
X520000Y550000D02*
D03*
Y510000D02*
D03*
X510000Y490000D02*
D03*
X520000Y470000D02*
D03*
X510000Y370000D02*
D03*
X520000Y350000D02*
D03*
X510000Y330000D02*
D03*
X520000Y310000D02*
D03*
Y150000D02*
D03*
X510000Y10000D02*
D03*
X490000Y770001D02*
D03*
X500000Y750001D02*
D03*
X490000Y730001D02*
D03*
X500000Y710001D02*
D03*
X490000Y690001D02*
D03*
X500000Y670001D02*
D03*
X490000Y650001D02*
D03*
X500000Y630000D02*
D03*
X490000Y610000D02*
D03*
X500000Y590000D02*
D03*
X490000Y570000D02*
D03*
X500000Y550000D02*
D03*
Y510000D02*
D03*
X490000Y490000D02*
D03*
X500000Y470000D02*
D03*
Y430000D02*
D03*
X490000Y370000D02*
D03*
X500000Y350000D02*
D03*
X490000Y330000D02*
D03*
X500000Y310000D02*
D03*
X490000Y170000D02*
D03*
X500000Y150000D02*
D03*
X490000Y10000D02*
D03*
X470000Y770001D02*
D03*
X480000Y750001D02*
D03*
X470000Y730001D02*
D03*
X480000Y710001D02*
D03*
X470000Y690001D02*
D03*
X480000Y670001D02*
D03*
X470000Y650001D02*
D03*
X480000Y630000D02*
D03*
X470000Y610000D02*
D03*
X480000Y590000D02*
D03*
X470000Y570000D02*
D03*
X480000Y550000D02*
D03*
Y510000D02*
D03*
X470000Y490000D02*
D03*
X480000Y470000D02*
D03*
Y430000D02*
D03*
X470000Y370000D02*
D03*
X480000Y350000D02*
D03*
X470000Y330000D02*
D03*
X480000Y310000D02*
D03*
X470000Y290000D02*
D03*
Y170000D02*
D03*
X480000Y150000D02*
D03*
X470000Y10000D02*
D03*
X450000Y770001D02*
D03*
X460000Y750001D02*
D03*
X450000Y730001D02*
D03*
X460000Y710001D02*
D03*
X450000Y690001D02*
D03*
X460000Y670001D02*
D03*
X450000Y650001D02*
D03*
X460000Y630000D02*
D03*
X450000Y610000D02*
D03*
X460000Y590000D02*
D03*
X450000Y570000D02*
D03*
X460000Y550000D02*
D03*
Y510000D02*
D03*
X450000Y490000D02*
D03*
X460000Y470000D02*
D03*
Y430000D02*
D03*
X450000Y370000D02*
D03*
X460000Y350000D02*
D03*
X450000Y330000D02*
D03*
X460000Y310000D02*
D03*
X450000Y170000D02*
D03*
Y10000D02*
D03*
X430000Y770001D02*
D03*
X440000Y750001D02*
D03*
X430000Y730001D02*
D03*
X440000Y710001D02*
D03*
X430000Y690001D02*
D03*
X440000Y670001D02*
D03*
X430000Y650001D02*
D03*
X440000Y630000D02*
D03*
X430000Y610000D02*
D03*
X440000Y590000D02*
D03*
X430000Y570000D02*
D03*
X440000Y550000D02*
D03*
Y510000D02*
D03*
X430000Y490000D02*
D03*
X440000Y470000D02*
D03*
Y430000D02*
D03*
Y350000D02*
D03*
X430000Y330000D02*
D03*
X440000Y310000D02*
D03*
X430000Y210000D02*
D03*
Y170000D02*
D03*
Y10000D02*
D03*
X410000Y770001D02*
D03*
X420000Y750001D02*
D03*
X410000Y730001D02*
D03*
X420000Y710001D02*
D03*
X410000Y690001D02*
D03*
X420000Y670001D02*
D03*
X410000Y650001D02*
D03*
X420000Y630000D02*
D03*
X410000Y610000D02*
D03*
X420000Y590000D02*
D03*
X410000Y570000D02*
D03*
X420000Y550000D02*
D03*
Y510000D02*
D03*
X410000Y490000D02*
D03*
X420000Y470000D02*
D03*
Y430000D02*
D03*
X410000Y370000D02*
D03*
X420000Y350000D02*
D03*
X410000Y330000D02*
D03*
X420000Y310000D02*
D03*
X410000Y290000D02*
D03*
X420000Y190000D02*
D03*
X410000Y170000D02*
D03*
Y50000D02*
D03*
Y10000D02*
D03*
X390000Y770001D02*
D03*
X400000Y750001D02*
D03*
X390000Y730001D02*
D03*
X400000Y710001D02*
D03*
X390000Y690001D02*
D03*
X400000Y670001D02*
D03*
X390000Y650001D02*
D03*
X400000Y630000D02*
D03*
X390000Y610000D02*
D03*
X400000Y590000D02*
D03*
X390000Y370000D02*
D03*
X400000Y310000D02*
D03*
X390000Y290000D02*
D03*
X400000Y190000D02*
D03*
X390000Y170000D02*
D03*
Y50000D02*
D03*
Y10000D02*
D03*
X370000Y770001D02*
D03*
X380000Y750001D02*
D03*
X370000Y730001D02*
D03*
X380000Y710001D02*
D03*
X370000Y690001D02*
D03*
X380000Y670001D02*
D03*
X370000Y650001D02*
D03*
X380000Y630000D02*
D03*
X370000Y610000D02*
D03*
X380000Y590000D02*
D03*
X370000Y570000D02*
D03*
X380000Y550000D02*
D03*
Y510000D02*
D03*
Y350000D02*
D03*
X370000Y290000D02*
D03*
X380000Y190000D02*
D03*
Y70000D02*
D03*
X370000Y50000D02*
D03*
Y10000D02*
D03*
X350000Y770001D02*
D03*
X360000Y750001D02*
D03*
X350000Y730001D02*
D03*
X360000Y710001D02*
D03*
X350000Y690001D02*
D03*
X360000Y670001D02*
D03*
X350000Y650001D02*
D03*
X360000Y630000D02*
D03*
X350000Y570000D02*
D03*
X360000Y190000D02*
D03*
Y150000D02*
D03*
X350000Y50000D02*
D03*
Y10000D02*
D03*
X330000Y770001D02*
D03*
X340000Y750001D02*
D03*
X330000Y730001D02*
D03*
X340000Y710001D02*
D03*
X330000Y690001D02*
D03*
X340000Y670001D02*
D03*
X330000Y650001D02*
D03*
X340000Y630000D02*
D03*
X330000Y610000D02*
D03*
X340000Y590000D02*
D03*
Y270000D02*
D03*
X330000Y130000D02*
D03*
X340000Y110000D02*
D03*
X330000Y90000D02*
D03*
X340000Y70000D02*
D03*
X330000Y50000D02*
D03*
Y10000D02*
D03*
X310000Y770001D02*
D03*
X320000Y750001D02*
D03*
X310000Y730001D02*
D03*
X320000Y710001D02*
D03*
X310000Y690001D02*
D03*
X320000Y670001D02*
D03*
X310000Y610000D02*
D03*
Y570000D02*
D03*
Y250000D02*
D03*
Y130000D02*
D03*
X320000Y110000D02*
D03*
X310000Y90000D02*
D03*
X320000Y70000D02*
D03*
X310000Y50000D02*
D03*
Y10000D02*
D03*
X290000Y770001D02*
D03*
X300000Y750001D02*
D03*
X290000Y730001D02*
D03*
X300000Y710001D02*
D03*
X290000Y690001D02*
D03*
X300000Y670001D02*
D03*
X290000Y650001D02*
D03*
X300000Y630000D02*
D03*
X290000Y570000D02*
D03*
X300000Y190000D02*
D03*
Y110000D02*
D03*
X290000Y10000D02*
D03*
X270000Y770001D02*
D03*
X280000Y750001D02*
D03*
X270000Y730001D02*
D03*
X280000Y710001D02*
D03*
X270000Y650001D02*
D03*
Y610000D02*
D03*
X280000Y590000D02*
D03*
X270000Y570000D02*
D03*
X280000Y550000D02*
D03*
X270000Y210000D02*
D03*
Y130000D02*
D03*
Y90000D02*
D03*
Y10000D02*
D03*
X250000Y770001D02*
D03*
X260000Y750001D02*
D03*
X250000Y730001D02*
D03*
X260000Y710001D02*
D03*
Y670001D02*
D03*
X250000Y610000D02*
D03*
X260000Y590000D02*
D03*
X250000Y570000D02*
D03*
X260000Y550000D02*
D03*
X250000Y450000D02*
D03*
Y330000D02*
D03*
Y290000D02*
D03*
Y170000D02*
D03*
Y130000D02*
D03*
X260000Y110000D02*
D03*
X250000Y90000D02*
D03*
X260000Y70000D02*
D03*
Y30000D02*
D03*
X250000Y10000D02*
D03*
X240000Y750001D02*
D03*
Y710001D02*
D03*
Y630000D02*
D03*
X230000Y610000D02*
D03*
X240000Y590000D02*
D03*
X230000Y570000D02*
D03*
Y530000D02*
D03*
X240000Y510000D02*
D03*
Y350000D02*
D03*
X230000Y330000D02*
D03*
X240000Y310000D02*
D03*
X230000Y290000D02*
D03*
X240000Y190000D02*
D03*
X230000Y170000D02*
D03*
X240000Y150000D02*
D03*
X230000Y130000D02*
D03*
X240000Y110000D02*
D03*
X230000Y90000D02*
D03*
Y50000D02*
D03*
X240000Y30000D02*
D03*
X230000Y10000D02*
D03*
X220000Y750001D02*
D03*
Y710001D02*
D03*
Y630000D02*
D03*
X210000Y610000D02*
D03*
X220000Y590000D02*
D03*
X210000Y530000D02*
D03*
Y490000D02*
D03*
Y450000D02*
D03*
X220000Y430000D02*
D03*
X210000Y410000D02*
D03*
X220000Y390000D02*
D03*
Y350000D02*
D03*
X210000Y330000D02*
D03*
X220000Y310000D02*
D03*
X210000Y290000D02*
D03*
X220000Y270000D02*
D03*
Y190000D02*
D03*
Y110000D02*
D03*
X210000Y90000D02*
D03*
Y50000D02*
D03*
X220000Y30000D02*
D03*
X210000Y10000D02*
D03*
X200000Y750001D02*
D03*
X190000Y730001D02*
D03*
X200000Y670001D02*
D03*
X190000Y650001D02*
D03*
X200000Y630000D02*
D03*
X190000Y610000D02*
D03*
Y570000D02*
D03*
X200000Y550000D02*
D03*
X190000Y530000D02*
D03*
X200000Y510000D02*
D03*
Y470000D02*
D03*
X190000Y450000D02*
D03*
X200000Y430000D02*
D03*
X190000Y410000D02*
D03*
X200000Y390000D02*
D03*
Y350000D02*
D03*
X190000Y330000D02*
D03*
Y210000D02*
D03*
X200000Y150000D02*
D03*
X190000Y130000D02*
D03*
X200000Y110000D02*
D03*
X190000Y90000D02*
D03*
X200000Y70000D02*
D03*
X190000Y50000D02*
D03*
X200000Y30000D02*
D03*
X190000Y10000D02*
D03*
X180000Y750001D02*
D03*
Y670001D02*
D03*
Y630000D02*
D03*
X170000Y570000D02*
D03*
X180000Y550000D02*
D03*
X170000Y530000D02*
D03*
Y490000D02*
D03*
X180000Y470000D02*
D03*
X170000Y450000D02*
D03*
X180000Y430000D02*
D03*
X170000Y410000D02*
D03*
X180000Y390000D02*
D03*
Y350000D02*
D03*
X170000Y330000D02*
D03*
X180000Y310000D02*
D03*
X170000Y130000D02*
D03*
X180000Y110000D02*
D03*
X170000Y90000D02*
D03*
X180000Y70000D02*
D03*
X170000Y50000D02*
D03*
X180000Y30000D02*
D03*
X170000Y10000D02*
D03*
X160000Y750001D02*
D03*
Y670001D02*
D03*
X150000Y610000D02*
D03*
X160000Y590000D02*
D03*
X150000Y570000D02*
D03*
X160000Y550000D02*
D03*
Y510000D02*
D03*
X150000Y490000D02*
D03*
X160000Y470000D02*
D03*
X150000Y450000D02*
D03*
X160000Y430000D02*
D03*
X150000Y410000D02*
D03*
X160000Y390000D02*
D03*
Y350000D02*
D03*
X150000Y330000D02*
D03*
X160000Y310000D02*
D03*
Y150000D02*
D03*
X150000Y130000D02*
D03*
X160000Y110000D02*
D03*
Y70000D02*
D03*
X150000Y50000D02*
D03*
X160000Y30000D02*
D03*
X150000Y10000D02*
D03*
X140000Y590000D02*
D03*
Y510000D02*
D03*
Y470000D02*
D03*
Y430000D02*
D03*
Y390000D02*
D03*
Y350000D02*
D03*
Y310000D02*
D03*
Y70000D02*
D03*
X130000Y50000D02*
D03*
X140000Y30000D02*
D03*
X130000Y10000D02*
D03*
X110000Y770001D02*
D03*
X120000Y750001D02*
D03*
X110000Y730001D02*
D03*
X120000Y670001D02*
D03*
X110000Y650001D02*
D03*
X120000Y630000D02*
D03*
X110000Y610000D02*
D03*
X120000Y590000D02*
D03*
Y550000D02*
D03*
X110000Y530000D02*
D03*
X120000Y510000D02*
D03*
X110000Y490000D02*
D03*
X120000Y470000D02*
D03*
X110000Y450000D02*
D03*
X120000Y430000D02*
D03*
X110000Y410000D02*
D03*
X120000Y350000D02*
D03*
X110000Y330000D02*
D03*
X120000Y310000D02*
D03*
X110000Y290000D02*
D03*
X120000Y270000D02*
D03*
X110000Y250000D02*
D03*
Y210000D02*
D03*
Y170000D02*
D03*
Y50000D02*
D03*
X120000Y30000D02*
D03*
X110000Y10000D02*
D03*
X90000Y770001D02*
D03*
X100000Y750001D02*
D03*
Y630000D02*
D03*
X90000Y570000D02*
D03*
X100000Y550000D02*
D03*
X90000Y530000D02*
D03*
X100000Y510000D02*
D03*
X90000Y490000D02*
D03*
X100000Y470000D02*
D03*
X90000Y450000D02*
D03*
X100000Y430000D02*
D03*
X90000Y410000D02*
D03*
Y330000D02*
D03*
X100000Y310000D02*
D03*
X90000Y290000D02*
D03*
X100000Y270000D02*
D03*
X90000Y250000D02*
D03*
X100000Y230000D02*
D03*
X90000Y210000D02*
D03*
X100000Y190000D02*
D03*
X90000Y170000D02*
D03*
X100000Y150000D02*
D03*
X90000Y50000D02*
D03*
X100000Y30000D02*
D03*
X90000Y10000D02*
D03*
X70000Y770001D02*
D03*
X80000Y750001D02*
D03*
X70000Y650001D02*
D03*
Y610000D02*
D03*
X80000Y590000D02*
D03*
X70000Y570000D02*
D03*
X80000Y550000D02*
D03*
X70000Y530000D02*
D03*
X80000Y510000D02*
D03*
X70000Y490000D02*
D03*
X80000Y470000D02*
D03*
X70000Y450000D02*
D03*
X80000Y430000D02*
D03*
Y310000D02*
D03*
X70000Y290000D02*
D03*
X80000Y270000D02*
D03*
X70000Y250000D02*
D03*
X80000Y230000D02*
D03*
X70000Y210000D02*
D03*
X80000Y190000D02*
D03*
X70000Y170000D02*
D03*
X80000Y150000D02*
D03*
X70000Y50000D02*
D03*
X80000Y30000D02*
D03*
X70000Y10000D02*
D03*
X50000Y730001D02*
D03*
Y650001D02*
D03*
X60000Y630000D02*
D03*
X50000Y610000D02*
D03*
X60000Y590000D02*
D03*
X50000Y570000D02*
D03*
X60000Y550000D02*
D03*
X50000Y530000D02*
D03*
X60000Y510000D02*
D03*
X50000Y490000D02*
D03*
X60000Y470000D02*
D03*
X50000Y450000D02*
D03*
X60000Y430000D02*
D03*
X50000Y410000D02*
D03*
Y290000D02*
D03*
X60000Y270000D02*
D03*
X50000Y250000D02*
D03*
X60000Y230000D02*
D03*
X50000Y210000D02*
D03*
X60000Y190000D02*
D03*
X50000Y170000D02*
D03*
X60000Y150000D02*
D03*
Y110000D02*
D03*
X50000Y10000D02*
D03*
X30000Y730001D02*
D03*
X40000Y710001D02*
D03*
X30000Y650001D02*
D03*
X40000Y630000D02*
D03*
X30000Y610000D02*
D03*
X40000Y590000D02*
D03*
X30000Y570000D02*
D03*
X40000Y550000D02*
D03*
X30000Y530000D02*
D03*
X40000Y510000D02*
D03*
X30000Y490000D02*
D03*
X40000Y470000D02*
D03*
X30000Y450000D02*
D03*
X40000Y430000D02*
D03*
Y390000D02*
D03*
X30000Y370000D02*
D03*
X40000Y350000D02*
D03*
Y310000D02*
D03*
X30000Y290000D02*
D03*
X40000Y270000D02*
D03*
X30000Y250000D02*
D03*
X40000Y230000D02*
D03*
X30000Y210000D02*
D03*
X40000Y190000D02*
D03*
X30000Y170000D02*
D03*
X40000Y70000D02*
D03*
X30000Y10000D02*
D03*
X10000Y770001D02*
D03*
Y730001D02*
D03*
X20000Y710001D02*
D03*
X10000Y650001D02*
D03*
X20000Y630000D02*
D03*
X10000Y610000D02*
D03*
X20000Y590000D02*
D03*
X10000Y570000D02*
D03*
X20000Y550000D02*
D03*
X10000Y530000D02*
D03*
X20000Y510000D02*
D03*
X10000Y490000D02*
D03*
X20000Y470000D02*
D03*
X10000Y450000D02*
D03*
X20000Y430000D02*
D03*
X10000Y410000D02*
D03*
X20000Y390000D02*
D03*
X10000Y370000D02*
D03*
X20000Y350000D02*
D03*
X10000Y330000D02*
D03*
X20000Y310000D02*
D03*
X10000Y290000D02*
D03*
X20000Y270000D02*
D03*
X10000Y250000D02*
D03*
X20000Y230000D02*
D03*
X10000Y210000D02*
D03*
X20000Y190000D02*
D03*
X10000Y170000D02*
D03*
X20000Y150000D02*
D03*
X10000Y130000D02*
D03*
Y90000D02*
D03*
X20000Y70000D02*
D03*
X10000Y50000D02*
D03*
X822000Y458000D02*
D03*
X768000Y176000D02*
D03*
X805000Y187500D02*
D03*
X807500Y460000D02*
D03*
X392500Y527500D02*
D03*
X385000D02*
D03*
X377500D02*
D03*
X370000D02*
D03*
X294000Y463000D02*
D03*
X308000D02*
D03*
X301000D02*
D03*
X294000Y443000D02*
D03*
X301000D02*
D03*
X308000D02*
D03*
Y450000D02*
D03*
X301000D02*
D03*
X294000D02*
D03*
X51000Y340000D02*
D03*
X365000Y105000D02*
D03*
X355000D02*
D03*
X375000Y125000D02*
D03*
X365000D02*
D03*
Y115000D02*
D03*
X355000D02*
D03*
Y125000D02*
D03*
X375000Y265000D02*
D03*
Y275000D02*
D03*
X365000D02*
D03*
Y265000D02*
D03*
Y255000D02*
D03*
X360000Y230000D02*
D03*
X355000Y225000D02*
D03*
Y215000D02*
D03*
Y205000D02*
D03*
X360000Y210000D02*
D03*
Y220000D02*
D03*
X380000Y260000D02*
D03*
X390000Y280000D02*
D03*
Y270000D02*
D03*
X380000D02*
D03*
Y280000D02*
D03*
X370000D02*
D03*
Y270000D02*
D03*
Y260000D02*
D03*
Y250000D02*
D03*
X360000D02*
D03*
Y260000D02*
D03*
Y270000D02*
D03*
Y280000D02*
D03*
X350000Y130000D02*
D03*
Y60000D02*
D03*
Y70000D02*
D03*
Y80000D02*
D03*
Y90000D02*
D03*
Y100000D02*
D03*
Y110000D02*
D03*
Y120000D02*
D03*
X380000D02*
D03*
Y130000D02*
D03*
X370000D02*
D03*
Y120000D02*
D03*
Y110000D02*
D03*
Y100000D02*
D03*
X360000D02*
D03*
Y110000D02*
D03*
Y120000D02*
D03*
Y130000D02*
D03*
X266000Y542500D02*
D03*
X346911Y430500D02*
D03*
X315121Y311621D02*
D03*
X316000Y302871D02*
D03*
X225000Y260000D02*
D03*
Y250000D02*
D03*
Y240000D02*
D03*
X215000D02*
D03*
Y250000D02*
D03*
Y260000D02*
D03*
X205000D02*
D03*
Y250000D02*
D03*
Y240000D02*
D03*
X195000D02*
D03*
Y250000D02*
D03*
Y260000D02*
D03*
X200000Y160000D02*
D03*
X210000D02*
D03*
X220000D02*
D03*
Y180000D02*
D03*
Y170000D02*
D03*
X210000D02*
D03*
X200000D02*
D03*
X239000Y204000D02*
D03*
X335000Y156000D02*
D03*
X464000Y280000D02*
D03*
X341000Y244000D02*
D03*
X463000Y136000D02*
D03*
X374000Y164000D02*
D03*
X302750Y495500D02*
D03*
X301000Y410000D02*
D03*
X277998Y462870D02*
D03*
X260573Y426000D02*
D03*
X275661Y412000D02*
D03*
X263625Y226375D02*
D03*
X535000Y80000D02*
D03*
X545000D02*
D03*
X520000Y90000D02*
D03*
X530000D02*
D03*
X540000D02*
D03*
X545000Y105000D02*
D03*
X535000D02*
D03*
X525000D02*
D03*
X530000Y110000D02*
D03*
Y100000D02*
D03*
X540000D02*
D03*
Y110000D02*
D03*
Y130000D02*
D03*
Y120000D02*
D03*
X530000D02*
D03*
Y130000D02*
D03*
X520000D02*
D03*
Y120000D02*
D03*
X510000D02*
D03*
Y130000D02*
D03*
X530000Y225000D02*
D03*
X540000D02*
D03*
X550000D02*
D03*
X520000Y235000D02*
D03*
X550000D02*
D03*
X540000D02*
D03*
X530000D02*
D03*
Y245000D02*
D03*
X540000D02*
D03*
X550000D02*
D03*
Y255000D02*
D03*
X540000D02*
D03*
X530000D02*
D03*
X515000Y265000D02*
D03*
X525000D02*
D03*
X535000D02*
D03*
X545000D02*
D03*
Y275000D02*
D03*
X535000D02*
D03*
X525000D02*
D03*
X515000D02*
D03*
X505000Y103000D02*
D03*
X454000Y87000D02*
D03*
X494000Y52500D02*
D03*
X510000Y247000D02*
D03*
X457679Y231348D02*
D03*
X411000Y271000D02*
D03*
X346911Y454935D02*
D03*
X279000Y494316D02*
D03*
X339004Y563278D02*
D03*
X333234D02*
D03*
X327464D02*
D03*
X331884Y434500D02*
D03*
Y467020D02*
D03*
X337411Y497727D02*
D03*
X287000Y495250D02*
D03*
X295000Y495500D02*
D03*
X322710Y494872D02*
D03*
X318353Y479228D02*
D03*
X330512Y475503D02*
D03*
X326643Y479784D02*
D03*
X346911Y470500D02*
D03*
Y446645D02*
D03*
Y438355D02*
D03*
X331884Y449690D02*
D03*
Y457980D02*
D03*
Y442500D02*
D03*
X437345Y133750D02*
D03*
X413500Y139500D02*
D03*
X154000Y230500D02*
D03*
X273000Y235750D02*
D03*
X288622Y253122D02*
D03*
X289250Y245500D02*
D03*
X295098Y245423D02*
D03*
X284750Y209500D02*
D03*
X278116Y446465D02*
D03*
X262839Y434500D02*
D03*
X500000Y194750D02*
D03*
X443500Y273750D02*
D03*
X277855Y430500D02*
D03*
Y438500D02*
D03*
X263184Y442500D02*
D03*
Y449677D02*
D03*
X263171Y457967D02*
D03*
X281480Y467855D02*
D03*
X291000Y480989D02*
D03*
X283000Y480989D02*
D03*
X280000Y452234D02*
D03*
X263184Y467145D02*
D03*
X270000Y51000D02*
D03*
X760144Y218000D02*
D03*
X754374D02*
D03*
X748604D02*
D03*
X742834D02*
D03*
X713984D02*
D03*
X719754D02*
D03*
X725524D02*
D03*
X731294D02*
D03*
X737064D02*
D03*
X420000Y419016D02*
D03*
X346816Y478500D02*
D03*
X420000Y413246D02*
D03*
Y407476D02*
D03*
Y401706D02*
D03*
Y372856D02*
D03*
Y378626D02*
D03*
Y384396D02*
D03*
Y390166D02*
D03*
Y395936D02*
D03*
X761000Y424000D02*
D03*
X754000Y410000D02*
D03*
X789000D02*
D03*
X761000Y397000D02*
D03*
Y403000D02*
D03*
Y416000D02*
D03*
Y384000D02*
D03*
Y391000D02*
D03*
X263000Y482000D02*
D03*
X222500Y490000D02*
D03*
Y515000D02*
D03*
X245385Y366000D02*
D03*
X239615D02*
D03*
X263184Y474500D02*
D03*
M02*
