M48
;Layer_Color=9474304
;FILE_FORMAT=4:4
METRIC,LZ
T08F00S00C1.0000
%
G90
G05
T08
G00X01079254Y-00005
M15
G01X0108049Y-00005073
G01X01085372Y-00004495
G01X01090048Y-00002977
G01X01094337Y-00000575
G01X01098076Y00002617
G01X0110112Y00006478
G01X01103352Y00010858
G01X01104686Y00015589
G01X01105097Y00020001
G01X01105Y00779255
G01X01105073Y0078049
G01X01104495Y00785372
G01X01102977Y00790048
G01X01100575Y00794337
G01X01097382Y00798076
G01X01093522Y00801119
G01X01089142Y00803352
G01X01084411Y00804686
G01X0108Y00805097
G01X00020745Y00805
G01X0001951Y00805073
G01X00014628Y00804495
G01X00009952Y00802977
G01X00005663Y00800575
G01X00001924Y00797382
G01X-00001119Y00793522
G01X-00003352Y00789142
G01X-00004687Y00784411
G01X-00005097Y00779999
G01X-00005Y00399999
G01X-00005Y00020747
G01X-00005073Y0001951
G01X-00004495Y00014628
G01X-00002977Y00009952
G01X-00000575Y00005663
G01X00002617Y00001924
G01X00006478Y-00001119
G01X00010858Y-00003352
G01X00015589Y-00004687
G01X0002Y-00005097
G01X01079254Y-00005
M16
M17
M30
