G04*
G04 #@! TF.GenerationSoftware,Altium Limited,Altium Designer,26.4.1 (12)*
G04*
G04 Layer_Color=128*
%FSLAX44Y44*%
%MOMM*%
G71*
G04*
G04 #@! TF.SameCoordinates,69C08BF3-0464-4516-A73B-7AD5F2A8760F*
G04*
G04*
G04 #@! TF.FilePolarity,Positive*
G04*
G01*
G75*
%ADD76C,0.0508*%
D76*
X683700Y77300D02*
X694700D01*
X689200Y71800D02*
Y82800D01*
X709100Y77300D02*
X720100D01*
X714600Y71800D02*
Y82800D01*
X785300Y77300D02*
X796300D01*
X790800Y71800D02*
Y82800D01*
X785300Y102700D02*
X796300D01*
X790800Y97200D02*
Y108200D01*
X759900Y102700D02*
X770900D01*
X765400Y97200D02*
Y108200D01*
X709100Y102700D02*
X720100D01*
X714600Y97200D02*
Y108200D01*
X683700Y102700D02*
X694700D01*
X689200Y97200D02*
Y108200D01*
X734500Y102700D02*
X745500D01*
X740000Y97200D02*
Y108200D01*
X759900Y77300D02*
X770900D01*
X765400Y71800D02*
Y82800D01*
X734500Y77300D02*
X745500D01*
X740000Y71800D02*
Y82800D01*
X16600Y97500D02*
X27600D01*
X22100Y92000D02*
Y103000D01*
X42000Y97500D02*
X53000D01*
X47500Y92000D02*
Y103000D01*
X67400Y97500D02*
X78400D01*
X72900Y92000D02*
Y103000D01*
X92800Y97500D02*
X103800D01*
X98300Y92000D02*
Y103000D01*
X16600Y122900D02*
X27600D01*
X22100Y117400D02*
Y128400D01*
X42000Y122900D02*
X53000D01*
X47500Y117400D02*
Y128400D01*
X67400Y122900D02*
X78400D01*
X72900Y117400D02*
Y128400D01*
X92800Y122900D02*
X103800D01*
X98300Y117400D02*
Y128400D01*
X876600Y387100D02*
X887600D01*
X882100Y381600D02*
Y392600D01*
X902000Y387100D02*
X913000D01*
X907500Y381600D02*
Y392600D01*
X927400Y387100D02*
X938400D01*
X932900Y381600D02*
Y392600D01*
X952800Y387100D02*
X963800D01*
X958300Y381600D02*
Y392600D01*
X876600Y412500D02*
X887600D01*
X882100Y407000D02*
Y418000D01*
X902000Y412500D02*
X913000D01*
X907500Y407000D02*
Y418000D01*
X927400Y412500D02*
X938400D01*
X932900Y407000D02*
Y418000D01*
X952800Y412500D02*
X963800D01*
X958300Y407000D02*
Y418000D01*
X16600Y667100D02*
X27600D01*
X22100Y661600D02*
Y672600D01*
X42000Y667100D02*
X53000D01*
X47500Y661600D02*
Y672600D01*
X67400Y667100D02*
X78400D01*
X72900Y661600D02*
Y672600D01*
X92800Y667100D02*
X103800D01*
X98300Y661600D02*
Y672600D01*
X16600Y692500D02*
X27600D01*
X22100Y687000D02*
Y698000D01*
X42000Y692500D02*
X53000D01*
X47500Y687000D02*
Y698000D01*
X67400Y692500D02*
X78400D01*
X72900Y687000D02*
Y698000D01*
X92800Y692500D02*
X103800D01*
X98300Y687000D02*
Y698000D01*
X64750Y399750D02*
X68750D01*
X66750Y397750D02*
Y401750D01*
X64750Y391250D02*
X68750D01*
X66750Y389250D02*
Y393250D01*
X64750Y382750D02*
X68750D01*
X66750Y380750D02*
Y384750D01*
X64750Y374250D02*
X68750D01*
X66750Y372250D02*
Y376250D01*
X64750Y365750D02*
X68750D01*
X66750Y363750D02*
Y367750D01*
X64750Y357250D02*
X68750D01*
X66750Y355250D02*
Y359250D01*
X64750Y348750D02*
X68750D01*
X66750Y346750D02*
Y350750D01*
X64750Y340250D02*
X68750D01*
X66750Y338250D02*
Y342250D01*
X78250Y340250D02*
X82250D01*
X80250Y338250D02*
Y342250D01*
X78250Y348750D02*
X82250D01*
X80250Y346750D02*
Y350750D01*
X78250Y357250D02*
X82250D01*
X80250Y355250D02*
Y359250D01*
X78250Y365750D02*
X82250D01*
X80250Y363750D02*
Y367750D01*
X78250Y374250D02*
X82250D01*
X80250Y372250D02*
Y376250D01*
X78250Y382750D02*
X82250D01*
X80250Y380750D02*
Y384750D01*
X78250Y391250D02*
X82250D01*
X80250Y389250D02*
Y393250D01*
X78250Y399750D02*
X82250D01*
X80250Y397750D02*
Y401750D01*
X59950Y326750D02*
X80950D01*
X70450Y316250D02*
Y337250D01*
X59950Y413250D02*
X80950D01*
X70450Y402750D02*
Y423750D01*
X29650Y326750D02*
X43650D01*
X36650Y319750D02*
Y333750D01*
X29650Y413250D02*
X43650D01*
X36650Y406250D02*
Y420250D01*
X863000Y710500D02*
X877000D01*
X870000Y703500D02*
Y717500D01*
X913000Y710500D02*
X927000D01*
X920000Y703500D02*
Y717500D01*
X938000Y710500D02*
X952000D01*
X945000Y703500D02*
Y717500D01*
X963000Y710500D02*
X977000D01*
X970000Y703500D02*
Y717500D01*
X888000Y710500D02*
X902000D01*
X895000Y703500D02*
Y717500D01*
X963000Y89500D02*
X977000D01*
X970000Y82500D02*
Y96500D01*
X913000Y89500D02*
X927000D01*
X920000Y82500D02*
Y96500D01*
X888000Y89500D02*
X902000D01*
X895000Y82500D02*
Y96500D01*
X863000Y89500D02*
X877000D01*
X870000Y82500D02*
Y96500D01*
X938000Y89500D02*
X952000D01*
X945000Y82500D02*
Y96500D01*
X1043500Y760000D02*
X1076500D01*
X1060000Y743500D02*
Y776500D01*
X1043500Y40000D02*
X1076500D01*
X1060000Y23500D02*
Y56500D01*
X23500Y760000D02*
X56500D01*
X40000Y743500D02*
Y776500D01*
X23500Y40000D02*
X56500D01*
X40000Y23500D02*
Y56500D01*
X358000Y426209D02*
X360000D01*
X359000Y425209D02*
Y427209D01*
X305000Y475000D02*
X307000D01*
X306000Y474000D02*
Y476000D01*
X364000Y456000D02*
X366000D01*
X365000Y455000D02*
Y457000D01*
Y471000D02*
X367000D01*
X366000Y470000D02*
Y472000D01*
X1069001Y730001D02*
X1071001D01*
X1070001Y729000D02*
Y731001D01*
X1079001Y710001D02*
X1081001D01*
X1080001Y709000D02*
Y711001D01*
X1069001Y530000D02*
X1071001D01*
X1070001Y529000D02*
Y531000D01*
X1069001Y450000D02*
X1071001D01*
X1070001Y449000D02*
Y451000D01*
X1069001Y410000D02*
X1071001D01*
X1070001Y409000D02*
Y411000D01*
X1069001Y370000D02*
X1071001D01*
X1070001Y369000D02*
Y371000D01*
X1069001Y90000D02*
X1071001D01*
X1070001Y89000D02*
Y91000D01*
X1079001Y70000D02*
X1081001D01*
X1080001Y69000D02*
Y71000D01*
X1069001Y10000D02*
X1071001D01*
X1070001Y9000D02*
Y11000D01*
X1049001Y730001D02*
X1051001D01*
X1050001Y729000D02*
Y731001D01*
X1059001Y710001D02*
X1061001D01*
X1060001Y709000D02*
Y711001D01*
X1059001Y670001D02*
X1061001D01*
X1060001Y669000D02*
Y671001D01*
X1049001Y610000D02*
X1051001D01*
X1050001Y609001D02*
Y611001D01*
X1059001Y590000D02*
X1061001D01*
X1060001Y589000D02*
Y591000D01*
X1049001Y570000D02*
X1051001D01*
X1050001Y569000D02*
Y571000D01*
X1059001Y550000D02*
X1061001D01*
X1060001Y549000D02*
Y551000D01*
X1049001Y530000D02*
X1051001D01*
X1050001Y529000D02*
Y531000D01*
X1059001Y510000D02*
X1061001D01*
X1060001Y509000D02*
Y511000D01*
X1049001Y490000D02*
X1051001D01*
X1050001Y489000D02*
Y491000D01*
X1049001Y450000D02*
X1051001D01*
X1050001Y449000D02*
Y451000D01*
X1059001Y430000D02*
X1061001D01*
X1060001Y429000D02*
Y431000D01*
X1049001Y410000D02*
X1051001D01*
X1050001Y409000D02*
Y411000D01*
X1059001Y390000D02*
X1061001D01*
X1060001Y389000D02*
Y391000D01*
X1049001Y370000D02*
X1051001D01*
X1050001Y369000D02*
Y371000D01*
X1059001Y350000D02*
X1061001D01*
X1060001Y349000D02*
Y351000D01*
X1049001Y290000D02*
X1051001D01*
X1050001Y289000D02*
Y291000D01*
X1049001Y250000D02*
X1051001D01*
X1050001Y249000D02*
Y251000D01*
X1049001Y210000D02*
X1051001D01*
X1050001Y209000D02*
Y211000D01*
X1049001Y170000D02*
X1051001D01*
X1050001Y169000D02*
Y171000D01*
X1049001Y130000D02*
X1051001D01*
X1050001Y129000D02*
Y131000D01*
X1059001Y70000D02*
X1061001D01*
X1060001Y69000D02*
Y71000D01*
X1049001Y10000D02*
X1051001D01*
X1050001Y9000D02*
Y11000D01*
X1029001Y770001D02*
X1031001D01*
X1030001Y769000D02*
Y771001D01*
X1029001Y690001D02*
X1031001D01*
X1030001Y689000D02*
Y691001D01*
X1039001Y670001D02*
X1041001D01*
X1040001Y669000D02*
Y671001D01*
X1029001Y650001D02*
X1031001D01*
X1030001Y649000D02*
Y651001D01*
X1029001Y610000D02*
X1031001D01*
X1030001Y609001D02*
Y611001D01*
X1039001Y590000D02*
X1041001D01*
X1040001Y589000D02*
Y591000D01*
X1029001Y570000D02*
X1031001D01*
X1030001Y569000D02*
Y571000D01*
X1039001Y550000D02*
X1041001D01*
X1040001Y549000D02*
Y551000D01*
X1029001Y530000D02*
X1031001D01*
X1030001Y529000D02*
Y531000D01*
X1039001Y510000D02*
X1041001D01*
X1040001Y509000D02*
Y511000D01*
X1029001Y490000D02*
X1031001D01*
X1030001Y489000D02*
Y491000D01*
X1039001Y470000D02*
X1041001D01*
X1040001Y469000D02*
Y471000D01*
X1029001Y450000D02*
X1031001D01*
X1030001Y449000D02*
Y451000D01*
X1039001Y430000D02*
X1041001D01*
X1040001Y429000D02*
Y431000D01*
X1029001Y410000D02*
X1031001D01*
X1030001Y409000D02*
Y411000D01*
X1039001Y390000D02*
X1041001D01*
X1040001Y389000D02*
Y391000D01*
X1029001Y370000D02*
X1031001D01*
X1030001Y369000D02*
Y371000D01*
X1039001Y350000D02*
X1041001D01*
X1040001Y349000D02*
Y351000D01*
X1029001Y330000D02*
X1031001D01*
X1030001Y329000D02*
Y331000D01*
X1039001Y310000D02*
X1041001D01*
X1040001Y309000D02*
Y311000D01*
X1029001Y290000D02*
X1031001D01*
X1030001Y289000D02*
Y291000D01*
X1039001Y270000D02*
X1041001D01*
X1040001Y269000D02*
Y271000D01*
X1029001Y250000D02*
X1031001D01*
X1030001Y249000D02*
Y251000D01*
X1039001Y230000D02*
X1041001D01*
X1040001Y229000D02*
Y231000D01*
X1029001Y210000D02*
X1031001D01*
X1030001Y209000D02*
Y211000D01*
X1039001Y190000D02*
X1041001D01*
X1040001Y189000D02*
Y191000D01*
X1029001Y170000D02*
X1031001D01*
X1030001Y169000D02*
Y171000D01*
X1039001Y150000D02*
X1041001D01*
X1040001Y149000D02*
Y151000D01*
X1029001Y130000D02*
X1031001D01*
X1030001Y129000D02*
Y131000D01*
X1039001Y110000D02*
X1041001D01*
X1040001Y109000D02*
Y111000D01*
X1029001Y90000D02*
X1031001D01*
X1030001Y89000D02*
Y91000D01*
X1029001Y50000D02*
X1031001D01*
X1030001Y49000D02*
Y51000D01*
X1029001Y10000D02*
X1031001D01*
X1030001Y9000D02*
Y11000D01*
X1009001Y770001D02*
X1011001D01*
X1010001Y769000D02*
Y771001D01*
X1019001Y750001D02*
X1021001D01*
X1020001Y749000D02*
Y751001D01*
X1019001Y710001D02*
X1021001D01*
X1020001Y709000D02*
Y711001D01*
X1009001Y690001D02*
X1011001D01*
X1010001Y689000D02*
Y691001D01*
X1019001Y670001D02*
X1021001D01*
X1020001Y669000D02*
Y671001D01*
X1009001Y650001D02*
X1011001D01*
X1010001Y649000D02*
Y651001D01*
X1019001Y630000D02*
X1021001D01*
X1020001Y629001D02*
Y631001D01*
X1009001Y610000D02*
X1011001D01*
X1010001Y609001D02*
Y611001D01*
X1019001Y590000D02*
X1021001D01*
X1020001Y589000D02*
Y591000D01*
X1009001Y570000D02*
X1011001D01*
X1010001Y569000D02*
Y571000D01*
X1019001Y550000D02*
X1021001D01*
X1020001Y549000D02*
Y551000D01*
X1009001Y530000D02*
X1011001D01*
X1010001Y529000D02*
Y531000D01*
X1019001Y510000D02*
X1021001D01*
X1020001Y509000D02*
Y511000D01*
X1009001Y490000D02*
X1011001D01*
X1010001Y489000D02*
Y491000D01*
X1019001Y470000D02*
X1021001D01*
X1020001Y469000D02*
Y471000D01*
X1009001Y450000D02*
X1011001D01*
X1010001Y449000D02*
Y451000D01*
X1019001Y430000D02*
X1021001D01*
X1020001Y429000D02*
Y431000D01*
X1009001Y410000D02*
X1011001D01*
X1010001Y409000D02*
Y411000D01*
X1019001Y390000D02*
X1021001D01*
X1020001Y389000D02*
Y391000D01*
X1009001Y370000D02*
X1011001D01*
X1010001Y369000D02*
Y371000D01*
X1019001Y350000D02*
X1021001D01*
X1020001Y349000D02*
Y351000D01*
X1009001Y330000D02*
X1011001D01*
X1010001Y329000D02*
Y331000D01*
X1019001Y310000D02*
X1021001D01*
X1020001Y309000D02*
Y311000D01*
X1009001Y290000D02*
X1011001D01*
X1010001Y289000D02*
Y291000D01*
X1019001Y270000D02*
X1021001D01*
X1020001Y269000D02*
Y271000D01*
X1009001Y250000D02*
X1011001D01*
X1010001Y249000D02*
Y251000D01*
X1019001Y230000D02*
X1021001D01*
X1020001Y229000D02*
Y231000D01*
X1009001Y210000D02*
X1011001D01*
X1010001Y209000D02*
Y211000D01*
X1019001Y190000D02*
X1021001D01*
X1020001Y189000D02*
Y191000D01*
X1009001Y170000D02*
X1011001D01*
X1010001Y169000D02*
Y171000D01*
X1019001Y150000D02*
X1021001D01*
X1020001Y149000D02*
Y151000D01*
X1009001Y130000D02*
X1011001D01*
X1010001Y129000D02*
Y131000D01*
X1019001Y110000D02*
X1021001D01*
X1020001Y109000D02*
Y111000D01*
X1009001Y90000D02*
X1011001D01*
X1010001Y89000D02*
Y91000D01*
X1019001Y30000D02*
X1021001D01*
X1020001Y29000D02*
Y31000D01*
X1009001Y10000D02*
X1011001D01*
X1010001Y9000D02*
Y11000D01*
X989001Y730001D02*
X991001D01*
X990001Y729000D02*
Y731001D01*
X999001Y710001D02*
X1001001D01*
X1000001Y709000D02*
Y711001D01*
X989001Y690001D02*
X991001D01*
X990001Y689000D02*
Y691001D01*
X999001Y670001D02*
X1001001D01*
X1000001Y669000D02*
Y671001D01*
X989001Y650001D02*
X991001D01*
X990001Y649000D02*
Y651001D01*
X999001Y630000D02*
X1001001D01*
X1000001Y629001D02*
Y631001D01*
X989001Y610000D02*
X991001D01*
X990001Y609001D02*
Y611001D01*
X999001Y590000D02*
X1001001D01*
X1000001Y589000D02*
Y591000D01*
X989001Y570000D02*
X991001D01*
X990001Y569000D02*
Y571000D01*
X999001Y550000D02*
X1001001D01*
X1000001Y549000D02*
Y551000D01*
X989001Y530000D02*
X991001D01*
X990001Y529000D02*
Y531000D01*
X999001Y510000D02*
X1001001D01*
X1000001Y509000D02*
Y511000D01*
X989001Y490000D02*
X991001D01*
X990001Y489000D02*
Y491000D01*
X999001Y470000D02*
X1001001D01*
X1000001Y469000D02*
Y471000D01*
X989001Y450000D02*
X991001D01*
X990001Y449000D02*
Y451000D01*
X999001Y430000D02*
X1001001D01*
X1000001Y429000D02*
Y431000D01*
X989001Y410000D02*
X991001D01*
X990001Y409000D02*
Y411000D01*
X999001Y390000D02*
X1001001D01*
X1000001Y389000D02*
Y391000D01*
X989001Y370000D02*
X991001D01*
X990001Y369000D02*
Y371000D01*
X999001Y350000D02*
X1001001D01*
X1000001Y349000D02*
Y351000D01*
X989001Y330000D02*
X991001D01*
X990001Y329000D02*
Y331000D01*
X999001Y310000D02*
X1001001D01*
X1000001Y309000D02*
Y311000D01*
X989001Y290000D02*
X991001D01*
X990001Y289000D02*
Y291000D01*
X999001Y270000D02*
X1001001D01*
X1000001Y269000D02*
Y271000D01*
X989001Y250000D02*
X991001D01*
X990001Y249000D02*
Y251000D01*
X999001Y230000D02*
X1001001D01*
X1000001Y229000D02*
Y231000D01*
X989001Y210000D02*
X991001D01*
X990001Y209000D02*
Y211000D01*
X999001Y190000D02*
X1001001D01*
X1000001Y189000D02*
Y191000D01*
X989001Y170000D02*
X991001D01*
X990001Y169000D02*
Y171000D01*
X999001Y150000D02*
X1001001D01*
X1000001Y149000D02*
Y151000D01*
X989001Y130000D02*
X991001D01*
X990001Y129000D02*
Y131000D01*
X999001Y110000D02*
X1001001D01*
X1000001Y109000D02*
Y111000D01*
X989001Y90000D02*
X991001D01*
X990001Y89000D02*
Y91000D01*
X999001Y70000D02*
X1001001D01*
X1000001Y69000D02*
Y71000D01*
X989001Y50000D02*
X991001D01*
X990001Y49000D02*
Y51000D01*
X989001Y10000D02*
X991001D01*
X990001Y9000D02*
Y11000D01*
X979001Y750001D02*
X981001D01*
X980001Y749000D02*
Y751001D01*
X969001Y730001D02*
X971001D01*
X970001Y729000D02*
Y731001D01*
X969001Y690001D02*
X971001D01*
X970001Y689000D02*
Y691001D01*
X979001Y670001D02*
X981001D01*
X980001Y669000D02*
Y671001D01*
X969001Y650001D02*
X971001D01*
X970001Y649000D02*
Y651001D01*
X979001Y630000D02*
X981001D01*
X980001Y629001D02*
Y631001D01*
X969001Y610000D02*
X971001D01*
X970001Y609001D02*
Y611001D01*
X979001Y590000D02*
X981001D01*
X980001Y589000D02*
Y591000D01*
X969001Y570000D02*
X971001D01*
X970001Y569000D02*
Y571000D01*
X979001Y550000D02*
X981001D01*
X980001Y549000D02*
Y551000D01*
X969001Y530000D02*
X971001D01*
X970001Y529000D02*
Y531000D01*
X979001Y510000D02*
X981001D01*
X980001Y509000D02*
Y511000D01*
X969001Y490000D02*
X971001D01*
X970001Y489000D02*
Y491000D01*
X979001Y470000D02*
X981001D01*
X980001Y469000D02*
Y471000D01*
X969001Y450000D02*
X971001D01*
X970001Y449000D02*
Y451000D01*
X979001Y430000D02*
X981001D01*
X980001Y429000D02*
Y431000D01*
X979001Y390000D02*
X981001D01*
X980001Y389000D02*
Y391000D01*
X969001Y370000D02*
X971001D01*
X970001Y369000D02*
Y371000D01*
X979001Y350000D02*
X981001D01*
X980001Y349000D02*
Y351000D01*
X969001Y330000D02*
X971001D01*
X970001Y329000D02*
Y331000D01*
X979001Y310000D02*
X981001D01*
X980001Y309000D02*
Y311000D01*
X969001Y290000D02*
X971001D01*
X970001Y289000D02*
Y291000D01*
X979001Y270000D02*
X981001D01*
X980001Y269000D02*
Y271000D01*
X969001Y250000D02*
X971001D01*
X970001Y249000D02*
Y251000D01*
X979001Y230000D02*
X981001D01*
X980001Y229000D02*
Y231000D01*
X969001Y210000D02*
X971001D01*
X970001Y209000D02*
Y211000D01*
X979001Y190000D02*
X981001D01*
X980001Y189000D02*
Y191000D01*
X969001Y170000D02*
X971001D01*
X970001Y169000D02*
Y171000D01*
X979001Y150000D02*
X981001D01*
X980001Y149000D02*
Y151000D01*
X969001Y130000D02*
X971001D01*
X970001Y129000D02*
Y131000D01*
X979001Y110000D02*
X981001D01*
X980001Y109000D02*
Y111000D01*
X979001Y70000D02*
X981001D01*
X980001Y69000D02*
Y71000D01*
X969001Y50000D02*
X971001D01*
X970001Y49000D02*
Y51000D01*
X959001Y750001D02*
X961001D01*
X960001Y749000D02*
Y751001D01*
X949001Y730001D02*
X951001D01*
X950001Y729000D02*
Y731001D01*
X959001Y670001D02*
X961001D01*
X960001Y669000D02*
Y671001D01*
X959001Y630000D02*
X961001D01*
X960001Y629001D02*
Y631001D01*
X959001Y590000D02*
X961001D01*
X960001Y589000D02*
Y591000D01*
X959001Y550000D02*
X961001D01*
X960001Y549000D02*
Y551000D01*
X959001Y510000D02*
X961001D01*
X960001Y509000D02*
Y511000D01*
X949001Y490000D02*
X951001D01*
X950001Y489000D02*
Y491000D01*
X959001Y470000D02*
X961001D01*
X960001Y469000D02*
Y471000D01*
X949001Y450000D02*
X951001D01*
X950001Y449000D02*
Y451000D01*
X959001Y430000D02*
X961001D01*
X960001Y429000D02*
Y431000D01*
X959001Y350000D02*
X961001D01*
X960001Y349000D02*
Y351000D01*
X949001Y330000D02*
X951001D01*
X950001Y329000D02*
Y331000D01*
X959001Y310000D02*
X961001D01*
X960001Y309000D02*
Y311000D01*
X949001Y290000D02*
X951001D01*
X950001Y289000D02*
Y291000D01*
X959001Y270000D02*
X961001D01*
X960001Y269000D02*
Y271000D01*
X949001Y250000D02*
X951001D01*
X950001Y249000D02*
Y251000D01*
X959001Y230000D02*
X961001D01*
X960001Y229000D02*
Y231000D01*
X949001Y210000D02*
X951001D01*
X950001Y209000D02*
Y211000D01*
X959001Y190000D02*
X961001D01*
X960001Y189000D02*
Y191000D01*
X949001Y170000D02*
X951001D01*
X950001Y169000D02*
Y171000D01*
X959001Y150000D02*
X961001D01*
X960001Y149000D02*
Y151000D01*
X949001Y130000D02*
X951001D01*
X950001Y129000D02*
Y131000D01*
X959001Y110000D02*
X961001D01*
X960001Y109000D02*
Y111000D01*
X959001Y70000D02*
X961001D01*
X960001Y69000D02*
Y71000D01*
X949001Y50000D02*
X951001D01*
X950001Y49000D02*
Y51000D01*
X959001Y30000D02*
X961001D01*
X960001Y29000D02*
Y31000D01*
X939001Y750001D02*
X941001D01*
X940001Y749000D02*
Y751001D01*
X929001Y730001D02*
X931001D01*
X930001Y729000D02*
Y731001D01*
X929001Y690001D02*
X931001D01*
X930001Y689000D02*
Y691001D01*
X929001Y650001D02*
X931001D01*
X930001Y649000D02*
Y651001D01*
X929001Y610000D02*
X931001D01*
X930001Y609001D02*
Y611001D01*
X929001Y570000D02*
X931001D01*
X930001Y569000D02*
Y571000D01*
X929001Y530000D02*
X931001D01*
X930001Y529000D02*
Y531000D01*
X939001Y470000D02*
X941001D01*
X940001Y469000D02*
Y471000D01*
X929001Y450000D02*
X931001D01*
X930001Y449000D02*
Y451000D01*
X939001Y430000D02*
X941001D01*
X940001Y429000D02*
Y431000D01*
X939001Y350000D02*
X941001D01*
X940001Y349000D02*
Y351000D01*
X929001Y330000D02*
X931001D01*
X930001Y329000D02*
Y331000D01*
X939001Y310000D02*
X941001D01*
X940001Y309000D02*
Y311000D01*
X929001Y290000D02*
X931001D01*
X930001Y289000D02*
Y291000D01*
X939001Y270000D02*
X941001D01*
X940001Y269000D02*
Y271000D01*
X929001Y250000D02*
X931001D01*
X930001Y249000D02*
Y251000D01*
X939001Y230000D02*
X941001D01*
X940001Y229000D02*
Y231000D01*
X929001Y210000D02*
X931001D01*
X930001Y209000D02*
Y211000D01*
X939001Y190000D02*
X941001D01*
X940001Y189000D02*
Y191000D01*
X929001Y170000D02*
X931001D01*
X930001Y169000D02*
Y171000D01*
X939001Y150000D02*
X941001D01*
X940001Y149000D02*
Y151000D01*
X939001Y70000D02*
X941001D01*
X940001Y69000D02*
Y71000D01*
X929001Y50000D02*
X931001D01*
X930001Y49000D02*
Y51000D01*
X939001Y30000D02*
X941001D01*
X940001Y29000D02*
Y31000D01*
X919001Y750001D02*
X921001D01*
X920001Y749000D02*
Y751001D01*
X909001Y730001D02*
X911001D01*
X910001Y729000D02*
Y731001D01*
X909001Y690001D02*
X911001D01*
X910001Y689000D02*
Y691001D01*
X909001Y650001D02*
X911001D01*
X910001Y649000D02*
Y651001D01*
X909001Y610000D02*
X911001D01*
X910001Y609001D02*
Y611001D01*
X909001Y570000D02*
X911001D01*
X910001Y569000D02*
Y571000D01*
X909001Y530000D02*
X911001D01*
X910001Y529000D02*
Y531000D01*
X909001Y490000D02*
X911001D01*
X910001Y489000D02*
Y491000D01*
X909001Y450000D02*
X911001D01*
X910001Y449000D02*
Y451000D01*
X919001Y430000D02*
X921001D01*
X920001Y429000D02*
Y431000D01*
X919001Y350000D02*
X921001D01*
X920001Y349000D02*
Y351000D01*
X909001Y330000D02*
X911001D01*
X910001Y329000D02*
Y331000D01*
X919001Y310000D02*
X921001D01*
X920001Y309000D02*
Y311000D01*
X909001Y290000D02*
X911001D01*
X910001Y289000D02*
Y291000D01*
X919001Y270000D02*
X921001D01*
X920001Y269000D02*
Y271000D01*
X909001Y250000D02*
X911001D01*
X910001Y249000D02*
Y251000D01*
X919001Y230000D02*
X921001D01*
X920001Y229000D02*
Y231000D01*
X909001Y210000D02*
X911001D01*
X910001Y209000D02*
Y211000D01*
X919001Y190000D02*
X921001D01*
X920001Y189000D02*
Y191000D01*
X909001Y170000D02*
X911001D01*
X910001Y169000D02*
Y171000D01*
X919001Y150000D02*
X921001D01*
X920001Y149000D02*
Y151000D01*
X919001Y70000D02*
X921001D01*
X920001Y69000D02*
Y71000D01*
X909001Y50000D02*
X911001D01*
X910001Y49000D02*
Y51000D01*
X919001Y30000D02*
X921001D01*
X920001Y29000D02*
Y31000D01*
X899001Y750001D02*
X901001D01*
X900001Y749000D02*
Y751001D01*
X889001Y730001D02*
X891001D01*
X890001Y729000D02*
Y731001D01*
X899001Y430000D02*
X901001D01*
X900001Y429000D02*
Y431000D01*
X899001Y350000D02*
X901001D01*
X900001Y349000D02*
Y351000D01*
X889001Y330000D02*
X891001D01*
X890001Y329000D02*
Y331000D01*
X899001Y310000D02*
X901001D01*
X900001Y309000D02*
Y311000D01*
X889001Y290000D02*
X891001D01*
X890001Y289000D02*
Y291000D01*
X899001Y270000D02*
X901001D01*
X900001Y269000D02*
Y271000D01*
X889001Y250000D02*
X891001D01*
X890001Y249000D02*
Y251000D01*
X899001Y230000D02*
X901001D01*
X900001Y229000D02*
Y231000D01*
X889001Y210000D02*
X891001D01*
X890001Y209000D02*
Y211000D01*
X899001Y190000D02*
X901001D01*
X900001Y189000D02*
Y191000D01*
X889001Y170000D02*
X891001D01*
X890001Y169000D02*
Y171000D01*
X899001Y150000D02*
X901001D01*
X900001Y149000D02*
Y151000D01*
X899001Y70000D02*
X901001D01*
X900001Y69000D02*
Y71000D01*
X889001Y50000D02*
X891001D01*
X890001Y49000D02*
Y51000D01*
X899001Y30000D02*
X901001D01*
X900001Y29000D02*
Y31000D01*
X879001Y750001D02*
X881001D01*
X880001Y749000D02*
Y751001D01*
X869001Y730001D02*
X871001D01*
X870001Y729000D02*
Y731001D01*
X869001Y690001D02*
X871001D01*
X870001Y689000D02*
Y691001D01*
X879001Y670001D02*
X881001D01*
X880001Y669000D02*
Y671001D01*
X869001Y650001D02*
X871001D01*
X870001Y649000D02*
Y651001D01*
X879001Y630000D02*
X881001D01*
X880001Y629001D02*
Y631001D01*
X869001Y610000D02*
X871001D01*
X870001Y609001D02*
Y611001D01*
X879001Y590000D02*
X881001D01*
X880001Y589000D02*
Y591000D01*
X869001Y570000D02*
X871001D01*
X870001Y569000D02*
Y571000D01*
X879001Y550000D02*
X881001D01*
X880001Y549000D02*
Y551000D01*
X869001Y530000D02*
X871001D01*
X870001Y529000D02*
Y531000D01*
X879001Y510000D02*
X881001D01*
X880001Y509000D02*
Y511000D01*
X869001Y490000D02*
X871001D01*
X870001Y489000D02*
Y491000D01*
X879001Y350000D02*
X881001D01*
X880001Y349000D02*
Y351000D01*
X869001Y330000D02*
X871001D01*
X870001Y329000D02*
Y331000D01*
X879001Y310000D02*
X881001D01*
X880001Y309000D02*
Y311000D01*
X869001Y290000D02*
X871001D01*
X870001Y289000D02*
Y291000D01*
X879001Y270000D02*
X881001D01*
X880001Y269000D02*
Y271000D01*
X869001Y250000D02*
X871001D01*
X870001Y249000D02*
Y251000D01*
X879001Y230000D02*
X881001D01*
X880001Y229000D02*
Y231000D01*
X869001Y210000D02*
X871001D01*
X870001Y209000D02*
Y211000D01*
X879001Y190000D02*
X881001D01*
X880001Y189000D02*
Y191000D01*
X869001Y170000D02*
X871001D01*
X870001Y169000D02*
Y171000D01*
X879001Y150000D02*
X881001D01*
X880001Y149000D02*
Y151000D01*
X879001Y110000D02*
X881001D01*
X880001Y109000D02*
Y111000D01*
X879001Y70000D02*
X881001D01*
X880001Y69000D02*
Y71000D01*
X869001Y50000D02*
X871001D01*
X870001Y49000D02*
Y51000D01*
X879001Y30000D02*
X881001D01*
X880001Y29000D02*
Y31000D01*
X859001Y750001D02*
X861001D01*
X860001Y749000D02*
Y751001D01*
X849001Y730001D02*
X851001D01*
X850001Y729000D02*
Y731001D01*
X849001Y690001D02*
X851001D01*
X850001Y689000D02*
Y691001D01*
X859001Y670001D02*
X861001D01*
X860001Y669000D02*
Y671001D01*
X849001Y650001D02*
X851001D01*
X850001Y649000D02*
Y651001D01*
X859001Y630000D02*
X861001D01*
X860001Y629001D02*
Y631001D01*
X849001Y610000D02*
X851001D01*
X850001Y609001D02*
Y611001D01*
X859001Y590000D02*
X861001D01*
X860001Y589000D02*
Y591000D01*
X849001Y570000D02*
X851001D01*
X850001Y569000D02*
Y571000D01*
X859001Y550000D02*
X861001D01*
X860001Y549000D02*
Y551000D01*
X849001Y530000D02*
X851001D01*
X850001Y529000D02*
Y531000D01*
X859001Y510000D02*
X861001D01*
X860001Y509000D02*
Y511000D01*
X849001Y490000D02*
X851001D01*
X850001Y489000D02*
Y491000D01*
X859001Y470000D02*
X861001D01*
X860001Y469000D02*
Y471000D01*
X849001Y450000D02*
X851001D01*
X850001Y449000D02*
Y451000D01*
X849001Y370000D02*
X851001D01*
X850001Y369000D02*
Y371000D01*
X859001Y350000D02*
X861001D01*
X860001Y349000D02*
Y351000D01*
X849001Y330000D02*
X851001D01*
X850001Y329000D02*
Y331000D01*
X859001Y310000D02*
X861001D01*
X860001Y309000D02*
Y311000D01*
X849001Y290000D02*
X851001D01*
X850001Y289000D02*
Y291000D01*
X859001Y270000D02*
X861001D01*
X860001Y269000D02*
Y271000D01*
X849001Y250000D02*
X851001D01*
X850001Y249000D02*
Y251000D01*
X859001Y230000D02*
X861001D01*
X860001Y229000D02*
Y231000D01*
X849001Y210000D02*
X851001D01*
X850001Y209000D02*
Y211000D01*
X859001Y190000D02*
X861001D01*
X860001Y189000D02*
Y191000D01*
X849001Y170000D02*
X851001D01*
X850001Y169000D02*
Y171000D01*
X859001Y150000D02*
X861001D01*
X860001Y149000D02*
Y151000D01*
X859001Y110000D02*
X861001D01*
X860001Y109000D02*
Y111000D01*
X849001Y90000D02*
X851001D01*
X850001Y89000D02*
Y91000D01*
X859001Y70000D02*
X861001D01*
X860001Y69000D02*
Y71000D01*
X849001Y50000D02*
X851001D01*
X850001Y49000D02*
Y51000D01*
X859001Y30000D02*
X861001D01*
X860001Y29000D02*
Y31000D01*
X829001Y730001D02*
X831001D01*
X830001Y729000D02*
Y731001D01*
X839001Y710001D02*
X841001D01*
X840001Y709000D02*
Y711001D01*
X829001Y690001D02*
X831001D01*
X830001Y689000D02*
Y691001D01*
X839001Y670001D02*
X841001D01*
X840001Y669000D02*
Y671001D01*
X829001Y650001D02*
X831001D01*
X830001Y649000D02*
Y651001D01*
X839001Y630000D02*
X841001D01*
X840001Y629001D02*
Y631001D01*
X829001Y610000D02*
X831001D01*
X830001Y609001D02*
Y611001D01*
X839001Y590000D02*
X841001D01*
X840001Y589000D02*
Y591000D01*
X829001Y570000D02*
X831001D01*
X830001Y569000D02*
Y571000D01*
X839001Y550000D02*
X841001D01*
X840001Y549000D02*
Y551000D01*
X829001Y530000D02*
X831001D01*
X830001Y529000D02*
Y531000D01*
X839001Y510000D02*
X841001D01*
X840001Y509000D02*
Y511000D01*
X829001Y490000D02*
X831001D01*
X830001Y489000D02*
Y491000D01*
X839001Y470000D02*
X841001D01*
X840001Y469000D02*
Y471000D01*
X839001Y350000D02*
X841001D01*
X840001Y349000D02*
Y351000D01*
X829001Y330000D02*
X831001D01*
X830001Y329000D02*
Y331000D01*
X839001Y310000D02*
X841001D01*
X840001Y309000D02*
Y311000D01*
X829001Y290000D02*
X831001D01*
X830001Y289000D02*
Y291000D01*
X839001Y270000D02*
X841001D01*
X840001Y269000D02*
Y271000D01*
X829001Y250000D02*
X831001D01*
X830001Y249000D02*
Y251000D01*
X839001Y230000D02*
X841001D01*
X840001Y229000D02*
Y231000D01*
X829001Y210000D02*
X831001D01*
X830001Y209000D02*
Y211000D01*
X839001Y190000D02*
X841001D01*
X840001Y189000D02*
Y191000D01*
X829001Y170000D02*
X831001D01*
X830001Y169000D02*
Y171000D01*
X839001Y150000D02*
X841001D01*
X840001Y149000D02*
Y151000D01*
X839001Y110000D02*
X841001D01*
X840001Y109000D02*
Y111000D01*
X829001Y90000D02*
X831001D01*
X830001Y89000D02*
Y91000D01*
X839001Y70000D02*
X841001D01*
X840001Y69000D02*
Y71000D01*
X809001Y730001D02*
X811001D01*
X810001Y729000D02*
Y731001D01*
X819001Y710001D02*
X821001D01*
X820001Y709000D02*
Y711001D01*
X809001Y690001D02*
X811001D01*
X810001Y689000D02*
Y691001D01*
X819001Y670001D02*
X821001D01*
X820001Y669000D02*
Y671001D01*
X809001Y650001D02*
X811001D01*
X810001Y649000D02*
Y651001D01*
X819001Y630000D02*
X821001D01*
X820001Y629001D02*
Y631001D01*
X809001Y610000D02*
X811001D01*
X810001Y609001D02*
Y611001D01*
X819001Y590000D02*
X821001D01*
X820001Y589000D02*
Y591000D01*
X809001Y570000D02*
X811001D01*
X810001Y569000D02*
Y571000D01*
X819001Y550000D02*
X821001D01*
X820001Y549000D02*
Y551000D01*
X809001Y530000D02*
X811001D01*
X810001Y529000D02*
Y531000D01*
X819001Y510000D02*
X821001D01*
X820001Y509000D02*
Y511000D01*
X819001Y470000D02*
X821001D01*
X820001Y469000D02*
Y471000D01*
X819001Y350000D02*
X821001D01*
X820001Y349000D02*
Y351000D01*
X819001Y310000D02*
X821001D01*
X820001Y309000D02*
Y311000D01*
X819001Y270000D02*
X821001D01*
X820001Y269000D02*
Y271000D01*
X819001Y230000D02*
X821001D01*
X820001Y229000D02*
Y231000D01*
X819001Y190000D02*
X821001D01*
X820001Y189000D02*
Y191000D01*
X809001Y170000D02*
X811001D01*
X810001Y169000D02*
Y171000D01*
X819001Y150000D02*
X821001D01*
X820001Y149000D02*
Y151000D01*
X819001Y110000D02*
X821001D01*
X820001Y109000D02*
Y111000D01*
X809001Y90000D02*
X811001D01*
X810001Y89000D02*
Y91000D01*
X819001Y70000D02*
X821001D01*
X820001Y69000D02*
Y71000D01*
X809001Y50000D02*
X811001D01*
X810001Y49000D02*
Y51000D01*
X789001Y770001D02*
X791001D01*
X790001Y769000D02*
Y771001D01*
X789001Y730001D02*
X791001D01*
X790001Y729000D02*
Y731001D01*
X799001Y710001D02*
X801001D01*
X800001Y709000D02*
Y711001D01*
X789001Y690001D02*
X791001D01*
X790001Y689000D02*
Y691001D01*
X799001Y670001D02*
X801001D01*
X800001Y669000D02*
Y671001D01*
X789001Y650001D02*
X791001D01*
X790001Y649000D02*
Y651001D01*
X799001Y630000D02*
X801001D01*
X800001Y629001D02*
Y631001D01*
X789001Y610000D02*
X791001D01*
X790001Y609001D02*
Y611001D01*
X799001Y590000D02*
X801001D01*
X800001Y589000D02*
Y591000D01*
X789001Y570000D02*
X791001D01*
X790001Y569000D02*
Y571000D01*
X799001Y550000D02*
X801001D01*
X800001Y549000D02*
Y551000D01*
X789001Y530000D02*
X791001D01*
X790001Y529000D02*
Y531000D01*
X789001Y330000D02*
X791001D01*
X790001Y329000D02*
Y331000D01*
X789001Y290000D02*
X791001D01*
X790001Y289000D02*
Y291000D01*
X789001Y250000D02*
X791001D01*
X790001Y249000D02*
Y251000D01*
X789001Y210000D02*
X791001D01*
X790001Y209000D02*
Y211000D01*
X799001Y150000D02*
X801001D01*
X800001Y149000D02*
Y151000D01*
X789001Y50000D02*
X791001D01*
X790001Y49000D02*
Y51000D01*
X769000Y770001D02*
X771001D01*
X770001Y769000D02*
Y771001D01*
X769000Y730001D02*
X771001D01*
X770001Y729000D02*
Y731001D01*
X779001Y710001D02*
X781001D01*
X780001Y709000D02*
Y711001D01*
X769000Y690001D02*
X771001D01*
X770001Y689000D02*
Y691001D01*
X779001Y670001D02*
X781001D01*
X780001Y669000D02*
Y671001D01*
X769000Y650001D02*
X771001D01*
X770001Y649000D02*
Y651001D01*
X779001Y630000D02*
X781001D01*
X780001Y629001D02*
Y631001D01*
X769000Y610000D02*
X771001D01*
X770001Y609001D02*
Y611001D01*
X779001Y590000D02*
X781001D01*
X780001Y589000D02*
Y591000D01*
X769000Y570000D02*
X771001D01*
X770001Y569000D02*
Y571000D01*
X779001Y550000D02*
X781001D01*
X780001Y549000D02*
Y551000D01*
X769000Y490000D02*
X771001D01*
X770001Y489000D02*
Y491000D01*
X779001Y470000D02*
X781001D01*
X780001Y469000D02*
Y471000D01*
X779001Y350000D02*
X781001D01*
X780001Y349000D02*
Y351000D01*
X769000Y330000D02*
X771001D01*
X770001Y329000D02*
Y331000D01*
X779001Y310000D02*
X781001D01*
X780001Y309000D02*
Y311000D01*
X769000Y290000D02*
X771001D01*
X770001Y289000D02*
Y291000D01*
X779001Y270000D02*
X781001D01*
X780001Y269000D02*
Y271000D01*
X769000Y250000D02*
X771001D01*
X770001Y249000D02*
Y251000D01*
X779001Y230000D02*
X781001D01*
X780001Y229000D02*
Y231000D01*
X769000Y50000D02*
X771001D01*
X770001Y49000D02*
Y51000D01*
X759000Y750001D02*
X761001D01*
X760001Y749000D02*
Y751001D01*
X749000Y730001D02*
X751001D01*
X750001Y729000D02*
Y731001D01*
X759000Y710001D02*
X761001D01*
X760001Y709000D02*
Y711001D01*
X749000Y690001D02*
X751001D01*
X750001Y689000D02*
Y691001D01*
X759000Y670001D02*
X761001D01*
X760001Y669000D02*
Y671001D01*
X749000Y650001D02*
X751001D01*
X750001Y649000D02*
Y651001D01*
X759000Y630000D02*
X761001D01*
X760001Y629001D02*
Y631001D01*
X749000Y610000D02*
X751001D01*
X750001Y609001D02*
Y611001D01*
X759000Y590000D02*
X761001D01*
X760001Y589000D02*
Y591000D01*
X749000Y570000D02*
X751001D01*
X750001Y569000D02*
Y571000D01*
X759000Y550000D02*
X761001D01*
X760001Y549000D02*
Y551000D01*
X759000Y510000D02*
X761001D01*
X760001Y509000D02*
Y511000D01*
X749000Y490000D02*
X751001D01*
X750001Y489000D02*
Y491000D01*
X759000Y470000D02*
X761001D01*
X760001Y469000D02*
Y471000D01*
X749000Y450000D02*
X751001D01*
X750001Y449000D02*
Y451000D01*
X749000Y370000D02*
X751001D01*
X750001Y369000D02*
Y371000D01*
X759000Y350000D02*
X761001D01*
X760001Y349000D02*
Y351000D01*
X749000Y330000D02*
X751001D01*
X750001Y329000D02*
Y331000D01*
X759000Y310000D02*
X761001D01*
X760001Y309000D02*
Y311000D01*
X749000Y290000D02*
X751001D01*
X750001Y289000D02*
Y291000D01*
X759000Y270000D02*
X761001D01*
X760001Y269000D02*
Y271000D01*
X759000Y230000D02*
X761001D01*
X760001Y229000D02*
Y231000D01*
X749000Y170000D02*
X751001D01*
X750001Y169000D02*
Y171000D01*
X749000Y50000D02*
X751001D01*
X750001Y49000D02*
Y51000D01*
X729000Y770001D02*
X731001D01*
X730001Y769000D02*
Y771001D01*
X739000Y750001D02*
X741001D01*
X740001Y749000D02*
Y751001D01*
X729000Y730001D02*
X731001D01*
X730001Y729000D02*
Y731001D01*
X739000Y710001D02*
X741001D01*
X740001Y709000D02*
Y711001D01*
X729000Y690001D02*
X731001D01*
X730001Y689000D02*
Y691001D01*
X739000Y670001D02*
X741001D01*
X740001Y669000D02*
Y671001D01*
X729000Y650001D02*
X731001D01*
X730001Y649000D02*
Y651001D01*
X739000Y630000D02*
X741001D01*
X740001Y629001D02*
Y631001D01*
X729000Y610000D02*
X731001D01*
X730001Y609001D02*
Y611001D01*
X739000Y590000D02*
X741001D01*
X740001Y589000D02*
Y591000D01*
X729000Y570000D02*
X731001D01*
X730001Y569000D02*
Y571000D01*
X739000Y550000D02*
X741001D01*
X740001Y549000D02*
Y551000D01*
X739000Y510000D02*
X741001D01*
X740001Y509000D02*
Y511000D01*
X729000Y490000D02*
X731001D01*
X730001Y489000D02*
Y491000D01*
X739000Y470000D02*
X741001D01*
X740001Y469000D02*
Y471000D01*
X729000Y450000D02*
X731001D01*
X730001Y449000D02*
Y451000D01*
X739000Y430000D02*
X741001D01*
X740001Y429000D02*
Y431000D01*
X729000Y370000D02*
X731001D01*
X730001Y369000D02*
Y371000D01*
X739000Y350000D02*
X741001D01*
X740001Y349000D02*
Y351000D01*
X729000Y330000D02*
X731001D01*
X730001Y329000D02*
Y331000D01*
X739000Y310000D02*
X741001D01*
X740001Y309000D02*
Y311000D01*
X729000Y170000D02*
X731001D01*
X730001Y169000D02*
Y171000D01*
X729000Y50000D02*
X731001D01*
X730001Y49000D02*
Y51000D01*
X709000Y770001D02*
X711001D01*
X710001Y769000D02*
Y771001D01*
X719000Y750001D02*
X721001D01*
X720001Y749000D02*
Y751001D01*
X709000Y730001D02*
X711001D01*
X710001Y729000D02*
Y731001D01*
X719000Y710001D02*
X721001D01*
X720001Y709000D02*
Y711001D01*
X709000Y690001D02*
X711001D01*
X710001Y689000D02*
Y691001D01*
X719000Y670001D02*
X721001D01*
X720001Y669000D02*
Y671001D01*
X709000Y650001D02*
X711001D01*
X710001Y649000D02*
Y651001D01*
X719000Y630000D02*
X721001D01*
X720001Y629001D02*
Y631001D01*
X709000Y610000D02*
X711001D01*
X710001Y609001D02*
Y611001D01*
X719000Y590000D02*
X721001D01*
X720001Y589000D02*
Y591000D01*
X709000Y570000D02*
X711001D01*
X710001Y569000D02*
Y571000D01*
X719000Y550000D02*
X721001D01*
X720001Y549000D02*
Y551000D01*
X719000Y510000D02*
X721001D01*
X720001Y509000D02*
Y511000D01*
X709000Y490000D02*
X711001D01*
X710001Y489000D02*
Y491000D01*
X719000Y470000D02*
X721001D01*
X720001Y469000D02*
Y471000D01*
X709000Y450000D02*
X711001D01*
X710001Y449000D02*
Y451000D01*
X719000Y430000D02*
X721001D01*
X720001Y429000D02*
Y431000D01*
X709000Y370000D02*
X711001D01*
X710001Y369000D02*
Y371000D01*
X719000Y350000D02*
X721001D01*
X720001Y349000D02*
Y351000D01*
X709000Y330000D02*
X711001D01*
X710001Y329000D02*
Y331000D01*
X709000Y250000D02*
X711001D01*
X710001Y249000D02*
Y251000D01*
X709000Y170000D02*
X711001D01*
X710001Y169000D02*
Y171000D01*
X709000Y50000D02*
X711001D01*
X710001Y49000D02*
Y51000D01*
X689000Y770001D02*
X691001D01*
X690001Y769000D02*
Y771001D01*
X699000Y750001D02*
X701001D01*
X700001Y749000D02*
Y751001D01*
X689000Y730001D02*
X691001D01*
X690001Y729000D02*
Y731001D01*
X699000Y710001D02*
X701001D01*
X700001Y709000D02*
Y711001D01*
X689000Y690001D02*
X691001D01*
X690001Y689000D02*
Y691001D01*
X699000Y670001D02*
X701001D01*
X700001Y669000D02*
Y671001D01*
X689000Y650001D02*
X691001D01*
X690001Y649000D02*
Y651001D01*
X699000Y630000D02*
X701001D01*
X700001Y629001D02*
Y631001D01*
X689000Y610000D02*
X691001D01*
X690001Y609001D02*
Y611001D01*
X699000Y590000D02*
X701001D01*
X700001Y589000D02*
Y591000D01*
X689000Y570000D02*
X691001D01*
X690001Y569000D02*
Y571000D01*
X699000Y550000D02*
X701001D01*
X700001Y549000D02*
Y551000D01*
X699000Y510000D02*
X701001D01*
X700001Y509000D02*
Y511000D01*
X689000Y490000D02*
X691001D01*
X690001Y489000D02*
Y491000D01*
X699000Y470000D02*
X701001D01*
X700001Y469000D02*
Y471000D01*
X689000Y450000D02*
X691001D01*
X690001Y449000D02*
Y451000D01*
X699000Y430000D02*
X701001D01*
X700001Y429000D02*
Y431000D01*
X689000Y370000D02*
X691001D01*
X690001Y369000D02*
Y371000D01*
X699000Y350000D02*
X701001D01*
X700001Y349000D02*
Y351000D01*
X689000Y290000D02*
X691001D01*
X690001Y289000D02*
Y291000D01*
X699000Y270000D02*
X701001D01*
X700001Y269000D02*
Y271000D01*
X689000Y250000D02*
X691001D01*
X690001Y249000D02*
Y251000D01*
X699000Y230000D02*
X701001D01*
X700001Y229000D02*
Y231000D01*
X689000Y210000D02*
X691001D01*
X690001Y209000D02*
Y211000D01*
X699000Y190000D02*
X701001D01*
X700001Y189000D02*
Y191000D01*
X689000Y170000D02*
X691001D01*
X690001Y169000D02*
Y171000D01*
X699000Y150000D02*
X701001D01*
X700001Y149000D02*
Y151000D01*
X689000Y130000D02*
X691001D01*
X690001Y129000D02*
Y131000D01*
X689000Y50000D02*
X691001D01*
X690001Y49000D02*
Y51000D01*
X669000Y770001D02*
X671001D01*
X670001Y769000D02*
Y771001D01*
X679000Y750001D02*
X681001D01*
X680001Y749000D02*
Y751001D01*
X669000Y730001D02*
X671001D01*
X670001Y729000D02*
Y731001D01*
X679000Y710001D02*
X681001D01*
X680001Y709000D02*
Y711001D01*
X669000Y690001D02*
X671001D01*
X670001Y689000D02*
Y691001D01*
X679000Y670001D02*
X681001D01*
X680001Y669000D02*
Y671001D01*
X669000Y650001D02*
X671001D01*
X670001Y649000D02*
Y651001D01*
X679000Y630000D02*
X681001D01*
X680001Y629001D02*
Y631001D01*
X669000Y610000D02*
X671001D01*
X670001Y609001D02*
Y611001D01*
X679000Y590000D02*
X681001D01*
X680001Y589000D02*
Y591000D01*
X669000Y570000D02*
X671001D01*
X670001Y569000D02*
Y571000D01*
X679000Y550000D02*
X681001D01*
X680001Y549000D02*
Y551000D01*
X679000Y510000D02*
X681001D01*
X680001Y509000D02*
Y511000D01*
X669000Y490000D02*
X671001D01*
X670001Y489000D02*
Y491000D01*
X679000Y470000D02*
X681001D01*
X680001Y469000D02*
Y471000D01*
X669000Y450000D02*
X671001D01*
X670001Y449000D02*
Y451000D01*
X679000Y430000D02*
X681001D01*
X680001Y429000D02*
Y431000D01*
X669000Y370000D02*
X671001D01*
X670001Y369000D02*
Y371000D01*
X669000Y290000D02*
X671001D01*
X670001Y289000D02*
Y291000D01*
X679000Y270000D02*
X681001D01*
X680001Y269000D02*
Y271000D01*
X669000Y250000D02*
X671001D01*
X670001Y249000D02*
Y251000D01*
X679000Y230000D02*
X681001D01*
X680001Y229000D02*
Y231000D01*
X669000Y210000D02*
X671001D01*
X670001Y209000D02*
Y211000D01*
X679000Y190000D02*
X681001D01*
X680001Y189000D02*
Y191000D01*
X669000Y170000D02*
X671001D01*
X670001Y169000D02*
Y171000D01*
X679000Y150000D02*
X681001D01*
X680001Y149000D02*
Y151000D01*
X669000Y130000D02*
X671001D01*
X670001Y129000D02*
Y131000D01*
X669000Y90000D02*
X671001D01*
X670001Y89000D02*
Y91000D01*
X669000Y50000D02*
X671001D01*
X670001Y49000D02*
Y51000D01*
X679000Y30000D02*
X681001D01*
X680001Y29000D02*
Y31000D01*
X649000Y770001D02*
X651001D01*
X650001Y769000D02*
Y771001D01*
X659000Y750001D02*
X661001D01*
X660001Y749000D02*
Y751001D01*
X649000Y730001D02*
X651001D01*
X650001Y729000D02*
Y731001D01*
X659000Y710001D02*
X661001D01*
X660001Y709000D02*
Y711001D01*
X649000Y690001D02*
X651001D01*
X650001Y689000D02*
Y691001D01*
X659000Y670001D02*
X661001D01*
X660001Y669000D02*
Y671001D01*
X649000Y650001D02*
X651001D01*
X650001Y649000D02*
Y651001D01*
X659000Y630000D02*
X661001D01*
X660001Y629001D02*
Y631001D01*
X649000Y610000D02*
X651001D01*
X650001Y609001D02*
Y611001D01*
X659000Y590000D02*
X661001D01*
X660001Y589000D02*
Y591000D01*
X649000Y570000D02*
X651001D01*
X650001Y569000D02*
Y571000D01*
X659000Y550000D02*
X661001D01*
X660001Y549000D02*
Y551000D01*
X659000Y510000D02*
X661001D01*
X660001Y509000D02*
Y511000D01*
X649000Y490000D02*
X651001D01*
X650001Y489000D02*
Y491000D01*
X659000Y470000D02*
X661001D01*
X660001Y469000D02*
Y471000D01*
X649000Y450000D02*
X651001D01*
X650001Y449000D02*
Y451000D01*
X659000Y430000D02*
X661001D01*
X660001Y429000D02*
Y431000D01*
X649000Y330000D02*
X651001D01*
X650001Y329000D02*
Y331000D01*
X659000Y310000D02*
X661001D01*
X660001Y309000D02*
Y311000D01*
X649000Y290000D02*
X651001D01*
X650001Y289000D02*
Y291000D01*
X659000Y270000D02*
X661001D01*
X660001Y269000D02*
Y271000D01*
X649000Y250000D02*
X651001D01*
X650001Y249000D02*
Y251000D01*
X659000Y230000D02*
X661001D01*
X660001Y229000D02*
Y231000D01*
X649000Y210000D02*
X651001D01*
X650001Y209000D02*
Y211000D01*
X659000Y190000D02*
X661001D01*
X660001Y189000D02*
Y191000D01*
X649000Y170000D02*
X651001D01*
X650001Y169000D02*
Y171000D01*
X659000Y150000D02*
X661001D01*
X660001Y149000D02*
Y151000D01*
X649000Y130000D02*
X651001D01*
X650001Y129000D02*
Y131000D01*
X659000Y110000D02*
X661001D01*
X660001Y109000D02*
Y111000D01*
X649000Y90000D02*
X651001D01*
X650001Y89000D02*
Y91000D01*
X659000Y70000D02*
X661001D01*
X660001Y69000D02*
Y71000D01*
X649000Y50000D02*
X651001D01*
X650001Y49000D02*
Y51000D01*
X629001Y770001D02*
X631001D01*
X630000Y769000D02*
Y771001D01*
X639001Y750001D02*
X641001D01*
X640001Y749000D02*
Y751001D01*
X629001Y730001D02*
X631001D01*
X630000Y729000D02*
Y731001D01*
X639001Y710001D02*
X641001D01*
X640001Y709000D02*
Y711001D01*
X629001Y690001D02*
X631001D01*
X630000Y689000D02*
Y691001D01*
X639001Y670001D02*
X641001D01*
X640001Y669000D02*
Y671001D01*
X629001Y650001D02*
X631001D01*
X630000Y649000D02*
Y651001D01*
X639001Y630000D02*
X641001D01*
X640001Y629001D02*
Y631001D01*
X629001Y610000D02*
X631001D01*
X630000Y609001D02*
Y611001D01*
X639001Y590000D02*
X641001D01*
X640001Y589000D02*
Y591000D01*
X629001Y570000D02*
X631001D01*
X630000Y569000D02*
Y571000D01*
X639001Y550000D02*
X641001D01*
X640001Y549000D02*
Y551000D01*
X639001Y510000D02*
X641001D01*
X640001Y509000D02*
Y511000D01*
X629001Y490000D02*
X631001D01*
X630000Y489000D02*
Y491000D01*
X639001Y470000D02*
X641001D01*
X640001Y469000D02*
Y471000D01*
X629001Y450000D02*
X631001D01*
X630000Y449000D02*
Y451000D01*
X639001Y430000D02*
X641001D01*
X640001Y429000D02*
Y431000D01*
X629001Y330000D02*
X631001D01*
X630000Y329000D02*
Y331000D01*
X639001Y310000D02*
X641001D01*
X640001Y309000D02*
Y311000D01*
X629001Y290000D02*
X631001D01*
X630000Y289000D02*
Y291000D01*
X639001Y270000D02*
X641001D01*
X640001Y269000D02*
Y271000D01*
X629001Y250000D02*
X631001D01*
X630000Y249000D02*
Y251000D01*
X639001Y230000D02*
X641001D01*
X640001Y229000D02*
Y231000D01*
X629001Y210000D02*
X631001D01*
X630000Y209000D02*
Y211000D01*
X639001Y190000D02*
X641001D01*
X640001Y189000D02*
Y191000D01*
X629001Y170000D02*
X631001D01*
X630000Y169000D02*
Y171000D01*
X639001Y150000D02*
X641001D01*
X640001Y149000D02*
Y151000D01*
X629001Y130000D02*
X631001D01*
X630000Y129000D02*
Y131000D01*
X639001Y110000D02*
X641001D01*
X640001Y109000D02*
Y111000D01*
X629001Y90000D02*
X631001D01*
X630000Y89000D02*
Y91000D01*
X639001Y70000D02*
X641001D01*
X640001Y69000D02*
Y71000D01*
X629001Y50000D02*
X631001D01*
X630000Y49000D02*
Y51000D01*
X629001Y10000D02*
X631001D01*
X630000Y9000D02*
Y11000D01*
X609001Y770001D02*
X611001D01*
X610000Y769000D02*
Y771001D01*
X619001Y750001D02*
X621001D01*
X620000Y749000D02*
Y751001D01*
X609001Y730001D02*
X611001D01*
X610000Y729000D02*
Y731001D01*
X619001Y710001D02*
X621001D01*
X620000Y709000D02*
Y711001D01*
X609001Y690001D02*
X611001D01*
X610000Y689000D02*
Y691001D01*
X619001Y670001D02*
X621001D01*
X620000Y669000D02*
Y671001D01*
X609001Y650001D02*
X611001D01*
X610000Y649000D02*
Y651001D01*
X619001Y630000D02*
X621001D01*
X620000Y629001D02*
Y631001D01*
X609001Y610000D02*
X611001D01*
X610000Y609001D02*
Y611001D01*
X619001Y590000D02*
X621001D01*
X620000Y589000D02*
Y591000D01*
X609001Y570000D02*
X611001D01*
X610000Y569000D02*
Y571000D01*
X619001Y550000D02*
X621001D01*
X620000Y549000D02*
Y551000D01*
X619001Y510000D02*
X621001D01*
X620000Y509000D02*
Y511000D01*
X609001Y490000D02*
X611001D01*
X610000Y489000D02*
Y491000D01*
X619001Y470000D02*
X621001D01*
X620000Y469000D02*
Y471000D01*
X609001Y450000D02*
X611001D01*
X610000Y449000D02*
Y451000D01*
X619001Y430000D02*
X621001D01*
X620000Y429000D02*
Y431000D01*
X619001Y350000D02*
X621001D01*
X620000Y349000D02*
Y351000D01*
X609001Y330000D02*
X611001D01*
X610000Y329000D02*
Y331000D01*
X619001Y310000D02*
X621001D01*
X620000Y309000D02*
Y311000D01*
X609001Y290000D02*
X611001D01*
X610000Y289000D02*
Y291000D01*
X619001Y270000D02*
X621001D01*
X620000Y269000D02*
Y271000D01*
X609001Y250000D02*
X611001D01*
X610000Y249000D02*
Y251000D01*
X619001Y230000D02*
X621001D01*
X620000Y229000D02*
Y231000D01*
X609001Y210000D02*
X611001D01*
X610000Y209000D02*
Y211000D01*
X619001Y190000D02*
X621001D01*
X620000Y189000D02*
Y191000D01*
X609001Y170000D02*
X611001D01*
X610000Y169000D02*
Y171000D01*
X619001Y150000D02*
X621001D01*
X620000Y149000D02*
Y151000D01*
X609001Y130000D02*
X611001D01*
X610000Y129000D02*
Y131000D01*
X619001Y110000D02*
X621001D01*
X620000Y109000D02*
Y111000D01*
X609001Y90000D02*
X611001D01*
X610000Y89000D02*
Y91000D01*
X619001Y70000D02*
X621001D01*
X620000Y69000D02*
Y71000D01*
X609001Y50000D02*
X611001D01*
X610000Y49000D02*
Y51000D01*
X609001Y10000D02*
X611001D01*
X610000Y9000D02*
Y11000D01*
X589000Y770001D02*
X591000D01*
X590000Y769000D02*
Y771001D01*
X599001Y750001D02*
X601000D01*
X600000Y749000D02*
Y751001D01*
X589000Y730001D02*
X591000D01*
X590000Y729000D02*
Y731001D01*
X599001Y710001D02*
X601000D01*
X600000Y709000D02*
Y711001D01*
X589000Y690001D02*
X591000D01*
X590000Y689000D02*
Y691001D01*
X599001Y670001D02*
X601000D01*
X600000Y669000D02*
Y671001D01*
X589000Y650001D02*
X591000D01*
X590000Y649000D02*
Y651001D01*
X599001Y630000D02*
X601000D01*
X600000Y629001D02*
Y631001D01*
X589000Y610000D02*
X591000D01*
X590000Y609001D02*
Y611001D01*
X599001Y590000D02*
X601000D01*
X600000Y589000D02*
Y591000D01*
X589000Y570000D02*
X591000D01*
X590000Y569000D02*
Y571000D01*
X599001Y550000D02*
X601000D01*
X600000Y549000D02*
Y551000D01*
X599001Y510000D02*
X601000D01*
X600000Y509000D02*
Y511000D01*
X589000Y490000D02*
X591000D01*
X590000Y489000D02*
Y491000D01*
X599001Y470000D02*
X601000D01*
X600000Y469000D02*
Y471000D01*
X589000Y450000D02*
X591000D01*
X590000Y449000D02*
Y451000D01*
X599001Y430000D02*
X601000D01*
X600000Y429000D02*
Y431000D01*
X599001Y350000D02*
X601000D01*
X600000Y349000D02*
Y351000D01*
X589000Y330000D02*
X591000D01*
X590000Y329000D02*
Y331000D01*
X599001Y310000D02*
X601000D01*
X600000Y309000D02*
Y311000D01*
X589000Y290000D02*
X591000D01*
X590000Y289000D02*
Y291000D01*
X599001Y270000D02*
X601000D01*
X600000Y269000D02*
Y271000D01*
X589000Y250000D02*
X591000D01*
X590000Y249000D02*
Y251000D01*
X599001Y230000D02*
X601000D01*
X600000Y229000D02*
Y231000D01*
X589000Y210000D02*
X591000D01*
X590000Y209000D02*
Y211000D01*
X599001Y190000D02*
X601000D01*
X600000Y189000D02*
Y191000D01*
X589000Y170000D02*
X591000D01*
X590000Y169000D02*
Y171000D01*
X599001Y150000D02*
X601000D01*
X600000Y149000D02*
Y151000D01*
X589000Y130000D02*
X591000D01*
X590000Y129000D02*
Y131000D01*
X599001Y110000D02*
X601000D01*
X600000Y109000D02*
Y111000D01*
X589000Y90000D02*
X591000D01*
X590000Y89000D02*
Y91000D01*
X599001Y70000D02*
X601000D01*
X600000Y69000D02*
Y71000D01*
X589000Y50000D02*
X591000D01*
X590000Y49000D02*
Y51000D01*
X589000Y10000D02*
X591000D01*
X590000Y9000D02*
Y11000D01*
X569000Y770001D02*
X571000D01*
X570000Y769000D02*
Y771001D01*
X579000Y750001D02*
X581000D01*
X580000Y749000D02*
Y751001D01*
X569000Y730001D02*
X571000D01*
X570000Y729000D02*
Y731001D01*
X579000Y710001D02*
X581000D01*
X580000Y709000D02*
Y711001D01*
X569000Y690001D02*
X571000D01*
X570000Y689000D02*
Y691001D01*
X579000Y670001D02*
X581000D01*
X580000Y669000D02*
Y671001D01*
X569000Y650001D02*
X571000D01*
X570000Y649000D02*
Y651001D01*
X579000Y630000D02*
X581000D01*
X580000Y629001D02*
Y631001D01*
X569000Y610000D02*
X571000D01*
X570000Y609001D02*
Y611001D01*
X579000Y590000D02*
X581000D01*
X580000Y589000D02*
Y591000D01*
X569000Y570000D02*
X571000D01*
X570000Y569000D02*
Y571000D01*
X579000Y550000D02*
X581000D01*
X580000Y549000D02*
Y551000D01*
X579000Y510000D02*
X581000D01*
X580000Y509000D02*
Y511000D01*
X569000Y490000D02*
X571000D01*
X570000Y489000D02*
Y491000D01*
X579000Y470000D02*
X581000D01*
X580000Y469000D02*
Y471000D01*
X569000Y450000D02*
X571000D01*
X570000Y449000D02*
Y451000D01*
X579000Y430000D02*
X581000D01*
X580000Y429000D02*
Y431000D01*
X579000Y350000D02*
X581000D01*
X580000Y349000D02*
Y351000D01*
X569000Y330000D02*
X571000D01*
X570000Y329000D02*
Y331000D01*
X579000Y310000D02*
X581000D01*
X580000Y309000D02*
Y311000D01*
X569000Y290000D02*
X571000D01*
X570000Y289000D02*
Y291000D01*
X579000Y270000D02*
X581000D01*
X580000Y269000D02*
Y271000D01*
X579000Y230000D02*
X581000D01*
X580000Y229000D02*
Y231000D01*
X569000Y210000D02*
X571000D01*
X570000Y209000D02*
Y211000D01*
X579000Y190000D02*
X581000D01*
X580000Y189000D02*
Y191000D01*
X569000Y170000D02*
X571000D01*
X570000Y169000D02*
Y171000D01*
X579000Y150000D02*
X581000D01*
X580000Y149000D02*
Y151000D01*
X569000Y130000D02*
X571000D01*
X570000Y129000D02*
Y131000D01*
X579000Y110000D02*
X581000D01*
X580000Y109000D02*
Y111000D01*
X569000Y90000D02*
X571000D01*
X570000Y89000D02*
Y91000D01*
X579000Y70000D02*
X581000D01*
X580000Y69000D02*
Y71000D01*
X569000Y50000D02*
X571000D01*
X570000Y49000D02*
Y51000D01*
X569000Y10000D02*
X571000D01*
X570000Y9000D02*
Y11000D01*
X549000Y770001D02*
X551000D01*
X550000Y769000D02*
Y771001D01*
X559000Y750001D02*
X561000D01*
X560000Y749000D02*
Y751001D01*
X549000Y730001D02*
X551000D01*
X550000Y729000D02*
Y731001D01*
X559000Y710001D02*
X561000D01*
X560000Y709000D02*
Y711001D01*
X549000Y690001D02*
X551000D01*
X550000Y689000D02*
Y691001D01*
X559000Y670001D02*
X561000D01*
X560000Y669000D02*
Y671001D01*
X549000Y650001D02*
X551000D01*
X550000Y649000D02*
Y651001D01*
X559000Y630000D02*
X561000D01*
X560000Y629001D02*
Y631001D01*
X549000Y610000D02*
X551000D01*
X550000Y609001D02*
Y611001D01*
X559000Y590000D02*
X561000D01*
X560000Y589000D02*
Y591000D01*
X549000Y570000D02*
X551000D01*
X550000Y569000D02*
Y571000D01*
X559000Y550000D02*
X561000D01*
X560000Y549000D02*
Y551000D01*
X559000Y510000D02*
X561000D01*
X560000Y509000D02*
Y511000D01*
X549000Y490000D02*
X551000D01*
X550000Y489000D02*
Y491000D01*
X559000Y470000D02*
X561000D01*
X560000Y469000D02*
Y471000D01*
X549000Y450000D02*
X551000D01*
X550000Y449000D02*
Y451000D01*
X559000Y430000D02*
X561000D01*
X560000Y429000D02*
Y431000D01*
X559000Y350000D02*
X561000D01*
X560000Y349000D02*
Y351000D01*
X549000Y330000D02*
X551000D01*
X550000Y329000D02*
Y331000D01*
X559000Y310000D02*
X561000D01*
X560000Y309000D02*
Y311000D01*
X549000Y290000D02*
X551000D01*
X550000Y289000D02*
Y291000D01*
X559000Y270000D02*
X561000D01*
X560000Y269000D02*
Y271000D01*
X559000Y230000D02*
X561000D01*
X560000Y229000D02*
Y231000D01*
X549000Y210000D02*
X551000D01*
X550000Y209000D02*
Y211000D01*
X559000Y190000D02*
X561000D01*
X560000Y189000D02*
Y191000D01*
X549000Y170000D02*
X551000D01*
X550000Y169000D02*
Y171000D01*
X559000Y150000D02*
X561000D01*
X560000Y149000D02*
Y151000D01*
X549000Y130000D02*
X551000D01*
X550000Y129000D02*
Y131000D01*
X549000Y90000D02*
X551000D01*
X550000Y89000D02*
Y91000D01*
X559000Y70000D02*
X561000D01*
X560000Y69000D02*
Y71000D01*
X549000Y50000D02*
X551000D01*
X550000Y49000D02*
Y51000D01*
X549000Y10000D02*
X551000D01*
X550000Y9000D02*
Y11000D01*
X529000Y770001D02*
X531000D01*
X530000Y769000D02*
Y771001D01*
X539000Y750001D02*
X541000D01*
X540000Y749000D02*
Y751001D01*
X529000Y730001D02*
X531000D01*
X530000Y729000D02*
Y731001D01*
X539000Y710001D02*
X541000D01*
X540000Y709000D02*
Y711001D01*
X529000Y690001D02*
X531000D01*
X530000Y689000D02*
Y691001D01*
X539000Y670001D02*
X541000D01*
X540000Y669000D02*
Y671001D01*
X529000Y650001D02*
X531000D01*
X530000Y649000D02*
Y651001D01*
X539000Y630000D02*
X541000D01*
X540000Y629001D02*
Y631001D01*
X529000Y610000D02*
X531000D01*
X530000Y609001D02*
Y611001D01*
X539000Y590000D02*
X541000D01*
X540000Y589000D02*
Y591000D01*
X529000Y570000D02*
X531000D01*
X530000Y569000D02*
Y571000D01*
X539000Y550000D02*
X541000D01*
X540000Y549000D02*
Y551000D01*
X539000Y510000D02*
X541000D01*
X540000Y509000D02*
Y511000D01*
X529000Y490000D02*
X531000D01*
X530000Y489000D02*
Y491000D01*
X539000Y470000D02*
X541000D01*
X540000Y469000D02*
Y471000D01*
X529000Y370000D02*
X531000D01*
X530000Y369000D02*
Y371000D01*
X539000Y350000D02*
X541000D01*
X540000Y349000D02*
Y351000D01*
X529000Y330000D02*
X531000D01*
X530000Y329000D02*
Y331000D01*
X539000Y310000D02*
X541000D01*
X540000Y309000D02*
Y311000D01*
X529000Y290000D02*
X531000D01*
X530000Y289000D02*
Y291000D01*
X539000Y190000D02*
X541000D01*
X540000Y189000D02*
Y191000D01*
X529000Y170000D02*
X531000D01*
X530000Y169000D02*
Y171000D01*
X539000Y150000D02*
X541000D01*
X540000Y149000D02*
Y151000D01*
X539000Y70000D02*
X541000D01*
X540000Y69000D02*
Y71000D01*
X529000Y10000D02*
X531000D01*
X530000Y9000D02*
Y11000D01*
X509000Y770001D02*
X511000D01*
X510000Y769000D02*
Y771001D01*
X519000Y750001D02*
X521000D01*
X520000Y749000D02*
Y751001D01*
X509000Y730001D02*
X511000D01*
X510000Y729000D02*
Y731001D01*
X519000Y710001D02*
X521000D01*
X520000Y709000D02*
Y711001D01*
X509000Y690001D02*
X511000D01*
X510000Y689000D02*
Y691001D01*
X519000Y670001D02*
X521000D01*
X520000Y669000D02*
Y671001D01*
X509000Y650001D02*
X511000D01*
X510000Y649000D02*
Y651001D01*
X519000Y630000D02*
X521000D01*
X520000Y629001D02*
Y631001D01*
X509000Y610000D02*
X511000D01*
X510000Y609001D02*
Y611001D01*
X519000Y590000D02*
X521000D01*
X520000Y589000D02*
Y591000D01*
X509000Y570000D02*
X511000D01*
X510000Y569000D02*
Y571000D01*
X519000Y550000D02*
X521000D01*
X520000Y549000D02*
Y551000D01*
X519000Y510000D02*
X521000D01*
X520000Y509000D02*
Y511000D01*
X509000Y490000D02*
X511000D01*
X510000Y489000D02*
Y491000D01*
X519000Y470000D02*
X521000D01*
X520000Y469000D02*
Y471000D01*
X509000Y370000D02*
X511000D01*
X510000Y369000D02*
Y371000D01*
X519000Y350000D02*
X521000D01*
X520000Y349000D02*
Y351000D01*
X509000Y330000D02*
X511000D01*
X510000Y329000D02*
Y331000D01*
X519000Y310000D02*
X521000D01*
X520000Y309000D02*
Y311000D01*
X519000Y150000D02*
X521000D01*
X520000Y149000D02*
Y151000D01*
X509000Y10000D02*
X511000D01*
X510000Y9000D02*
Y11000D01*
X489000Y770001D02*
X491000D01*
X490000Y769000D02*
Y771001D01*
X499000Y750001D02*
X501000D01*
X500000Y749000D02*
Y751001D01*
X489000Y730001D02*
X491000D01*
X490000Y729000D02*
Y731001D01*
X499000Y710001D02*
X501000D01*
X500000Y709000D02*
Y711001D01*
X489000Y690001D02*
X491000D01*
X490000Y689000D02*
Y691001D01*
X499000Y670001D02*
X501000D01*
X500000Y669000D02*
Y671001D01*
X489000Y650001D02*
X491000D01*
X490000Y649000D02*
Y651001D01*
X499000Y630000D02*
X501000D01*
X500000Y629001D02*
Y631001D01*
X489000Y610000D02*
X491000D01*
X490000Y609001D02*
Y611001D01*
X499000Y590000D02*
X501000D01*
X500000Y589000D02*
Y591000D01*
X489000Y570000D02*
X491000D01*
X490000Y569000D02*
Y571000D01*
X499000Y550000D02*
X501000D01*
X500000Y549000D02*
Y551000D01*
X499000Y510000D02*
X501000D01*
X500000Y509000D02*
Y511000D01*
X489000Y490000D02*
X491000D01*
X490000Y489000D02*
Y491000D01*
X499000Y470000D02*
X501000D01*
X500000Y469000D02*
Y471000D01*
X499000Y430000D02*
X501000D01*
X500000Y429000D02*
Y431000D01*
X489000Y370000D02*
X491000D01*
X490000Y369000D02*
Y371000D01*
X499000Y350000D02*
X501000D01*
X500000Y349000D02*
Y351000D01*
X489000Y330000D02*
X491000D01*
X490000Y329000D02*
Y331000D01*
X499000Y310000D02*
X501000D01*
X500000Y309000D02*
Y311000D01*
X489000Y170000D02*
X491000D01*
X490000Y169000D02*
Y171000D01*
X499000Y150000D02*
X501000D01*
X500000Y149000D02*
Y151000D01*
X489000Y10000D02*
X491000D01*
X490000Y9000D02*
Y11000D01*
X469000Y770001D02*
X471000D01*
X470000Y769000D02*
Y771001D01*
X479000Y750001D02*
X481000D01*
X480000Y749000D02*
Y751001D01*
X469000Y730001D02*
X471000D01*
X470000Y729000D02*
Y731001D01*
X479000Y710001D02*
X481000D01*
X480000Y709000D02*
Y711001D01*
X469000Y690001D02*
X471000D01*
X470000Y689000D02*
Y691001D01*
X479000Y670001D02*
X481000D01*
X480000Y669000D02*
Y671001D01*
X469000Y650001D02*
X471000D01*
X470000Y649000D02*
Y651001D01*
X479000Y630000D02*
X481000D01*
X480000Y629001D02*
Y631001D01*
X469000Y610000D02*
X471000D01*
X470000Y609001D02*
Y611001D01*
X479000Y590000D02*
X481000D01*
X480000Y589000D02*
Y591000D01*
X469000Y570000D02*
X471000D01*
X470000Y569000D02*
Y571000D01*
X479000Y550000D02*
X481000D01*
X480000Y549000D02*
Y551000D01*
X479000Y510000D02*
X481000D01*
X480000Y509000D02*
Y511000D01*
X469000Y490000D02*
X471000D01*
X470000Y489000D02*
Y491000D01*
X479000Y470000D02*
X481000D01*
X480000Y469000D02*
Y471000D01*
X479000Y430000D02*
X481000D01*
X480000Y429000D02*
Y431000D01*
X469000Y370000D02*
X471000D01*
X470000Y369000D02*
Y371000D01*
X479000Y350000D02*
X481000D01*
X480000Y349000D02*
Y351000D01*
X469000Y330000D02*
X471000D01*
X470000Y329000D02*
Y331000D01*
X479000Y310000D02*
X481000D01*
X480000Y309000D02*
Y311000D01*
X469000Y290000D02*
X471000D01*
X470000Y289000D02*
Y291000D01*
X469000Y170000D02*
X471000D01*
X470000Y169000D02*
Y171000D01*
X479000Y150000D02*
X481000D01*
X480000Y149000D02*
Y151000D01*
X469000Y10000D02*
X471000D01*
X470000Y9000D02*
Y11000D01*
X449000Y770001D02*
X451000D01*
X450000Y769000D02*
Y771001D01*
X459000Y750001D02*
X461000D01*
X460000Y749000D02*
Y751001D01*
X449000Y730001D02*
X451000D01*
X450000Y729000D02*
Y731001D01*
X459000Y710001D02*
X461000D01*
X460000Y709000D02*
Y711001D01*
X449000Y690001D02*
X451000D01*
X450000Y689000D02*
Y691001D01*
X459000Y670001D02*
X461000D01*
X460000Y669000D02*
Y671001D01*
X449000Y650001D02*
X451000D01*
X450000Y649000D02*
Y651001D01*
X459000Y630000D02*
X461000D01*
X460000Y629001D02*
Y631001D01*
X449000Y610000D02*
X451000D01*
X450000Y609001D02*
Y611001D01*
X459000Y590000D02*
X461000D01*
X460000Y589000D02*
Y591000D01*
X449000Y570000D02*
X451000D01*
X450000Y569000D02*
Y571000D01*
X459000Y550000D02*
X461000D01*
X460000Y549000D02*
Y551000D01*
X459000Y510000D02*
X461000D01*
X460000Y509000D02*
Y511000D01*
X449000Y490000D02*
X451000D01*
X450000Y489000D02*
Y491000D01*
X459000Y470000D02*
X461000D01*
X460000Y469000D02*
Y471000D01*
X459000Y430000D02*
X461000D01*
X460000Y429000D02*
Y431000D01*
X449000Y370000D02*
X451000D01*
X450000Y369000D02*
Y371000D01*
X459000Y350000D02*
X461000D01*
X460000Y349000D02*
Y351000D01*
X449000Y330000D02*
X451000D01*
X450000Y329000D02*
Y331000D01*
X459000Y310000D02*
X461000D01*
X460000Y309000D02*
Y311000D01*
X449000Y170000D02*
X451000D01*
X450000Y169000D02*
Y171000D01*
X449000Y10000D02*
X451000D01*
X450000Y9000D02*
Y11000D01*
X429000Y770001D02*
X431000D01*
X430000Y769000D02*
Y771001D01*
X439000Y750001D02*
X441000D01*
X440000Y749000D02*
Y751001D01*
X429000Y730001D02*
X431000D01*
X430000Y729000D02*
Y731001D01*
X439000Y710001D02*
X441000D01*
X440000Y709000D02*
Y711001D01*
X429000Y690001D02*
X431000D01*
X430000Y689000D02*
Y691001D01*
X439000Y670001D02*
X441000D01*
X440000Y669000D02*
Y671001D01*
X429000Y650001D02*
X431000D01*
X430000Y649000D02*
Y651001D01*
X439000Y630000D02*
X441000D01*
X440000Y629001D02*
Y631001D01*
X429000Y610000D02*
X431000D01*
X430000Y609001D02*
Y611001D01*
X439000Y590000D02*
X441000D01*
X440000Y589000D02*
Y591000D01*
X429000Y570000D02*
X431000D01*
X430000Y569000D02*
Y571000D01*
X439000Y550000D02*
X441000D01*
X440000Y549000D02*
Y551000D01*
X439000Y510000D02*
X441000D01*
X440000Y509000D02*
Y511000D01*
X429000Y490000D02*
X431000D01*
X430000Y489000D02*
Y491000D01*
X439000Y470000D02*
X441000D01*
X440000Y469000D02*
Y471000D01*
X439000Y430000D02*
X441000D01*
X440000Y429000D02*
Y431000D01*
X439000Y350000D02*
X441000D01*
X440000Y349000D02*
Y351000D01*
X429000Y330000D02*
X431000D01*
X430000Y329000D02*
Y331000D01*
X439000Y310000D02*
X441000D01*
X440000Y309000D02*
Y311000D01*
X429000Y210000D02*
X431000D01*
X430000Y209000D02*
Y211000D01*
X429000Y170000D02*
X431000D01*
X430000Y169000D02*
Y171000D01*
X429000Y10000D02*
X431000D01*
X430000Y9000D02*
Y11000D01*
X409000Y770001D02*
X411000D01*
X410000Y769000D02*
Y771001D01*
X419000Y750001D02*
X421000D01*
X420000Y749000D02*
Y751001D01*
X409000Y730001D02*
X411000D01*
X410000Y729000D02*
Y731001D01*
X419000Y710001D02*
X421000D01*
X420000Y709000D02*
Y711001D01*
X409000Y690001D02*
X411000D01*
X410000Y689000D02*
Y691001D01*
X419000Y670001D02*
X421000D01*
X420000Y669000D02*
Y671001D01*
X409000Y650001D02*
X411000D01*
X410000Y649000D02*
Y651001D01*
X419000Y630000D02*
X421000D01*
X420000Y629001D02*
Y631001D01*
X409000Y610000D02*
X411000D01*
X410000Y609001D02*
Y611001D01*
X419000Y590000D02*
X421000D01*
X420000Y589000D02*
Y591000D01*
X409000Y570000D02*
X411000D01*
X410000Y569000D02*
Y571000D01*
X419000Y550000D02*
X421000D01*
X420000Y549000D02*
Y551000D01*
X419000Y510000D02*
X421000D01*
X420000Y509000D02*
Y511000D01*
X409000Y490000D02*
X411000D01*
X410000Y489000D02*
Y491000D01*
X419000Y470000D02*
X421000D01*
X420000Y469000D02*
Y471000D01*
X419000Y430000D02*
X421000D01*
X420000Y429000D02*
Y431000D01*
X409000Y370000D02*
X411000D01*
X410000Y369000D02*
Y371000D01*
X419000Y350000D02*
X421000D01*
X420000Y349000D02*
Y351000D01*
X409000Y330000D02*
X411000D01*
X410000Y329000D02*
Y331000D01*
X419000Y310000D02*
X421000D01*
X420000Y309000D02*
Y311000D01*
X409000Y290000D02*
X411000D01*
X410000Y289000D02*
Y291000D01*
X419000Y190000D02*
X421000D01*
X420000Y189000D02*
Y191000D01*
X409000Y170000D02*
X411000D01*
X410000Y169000D02*
Y171000D01*
X409000Y50000D02*
X411000D01*
X410000Y49000D02*
Y51000D01*
X409000Y10000D02*
X411000D01*
X410000Y9000D02*
Y11000D01*
X389000Y770001D02*
X391000D01*
X390000Y769000D02*
Y771001D01*
X399000Y750001D02*
X401000D01*
X400000Y749000D02*
Y751001D01*
X389000Y730001D02*
X391000D01*
X390000Y729000D02*
Y731001D01*
X399000Y710001D02*
X401000D01*
X400000Y709000D02*
Y711001D01*
X389000Y690001D02*
X391000D01*
X390000Y689000D02*
Y691001D01*
X399000Y670001D02*
X401000D01*
X400000Y669000D02*
Y671001D01*
X389000Y650001D02*
X391000D01*
X390000Y649000D02*
Y651001D01*
X399000Y630000D02*
X401000D01*
X400000Y629001D02*
Y631001D01*
X389000Y610000D02*
X391000D01*
X390000Y609001D02*
Y611001D01*
X399000Y590000D02*
X401000D01*
X400000Y589000D02*
Y591000D01*
X389000Y370000D02*
X391000D01*
X390000Y369000D02*
Y371000D01*
X399000Y310000D02*
X401000D01*
X400000Y309000D02*
Y311000D01*
X389000Y290000D02*
X391000D01*
X390000Y289000D02*
Y291000D01*
X399000Y190000D02*
X401000D01*
X400000Y189000D02*
Y191000D01*
X389000Y170000D02*
X391000D01*
X390000Y169000D02*
Y171000D01*
X389000Y50000D02*
X391000D01*
X390000Y49000D02*
Y51000D01*
X389000Y10000D02*
X391000D01*
X390000Y9000D02*
Y11000D01*
X369000Y770001D02*
X371000D01*
X370000Y769000D02*
Y771001D01*
X379000Y750001D02*
X381000D01*
X380000Y749000D02*
Y751001D01*
X369000Y730001D02*
X371000D01*
X370000Y729000D02*
Y731001D01*
X379000Y710001D02*
X381000D01*
X380000Y709000D02*
Y711001D01*
X369000Y690001D02*
X371000D01*
X370000Y689000D02*
Y691001D01*
X379000Y670001D02*
X381000D01*
X380000Y669000D02*
Y671001D01*
X369000Y650001D02*
X371000D01*
X370000Y649000D02*
Y651001D01*
X379000Y630000D02*
X381000D01*
X380000Y629001D02*
Y631001D01*
X369000Y610000D02*
X371000D01*
X370000Y609001D02*
Y611001D01*
X379000Y590000D02*
X381000D01*
X380000Y589000D02*
Y591000D01*
X369000Y570000D02*
X371000D01*
X370000Y569000D02*
Y571000D01*
X379000Y550000D02*
X381000D01*
X380000Y549000D02*
Y551000D01*
X379000Y510000D02*
X381000D01*
X380000Y509000D02*
Y511000D01*
X379000Y350000D02*
X381000D01*
X380000Y349000D02*
Y351000D01*
X369000Y290000D02*
X371000D01*
X370000Y289000D02*
Y291000D01*
X379000Y190000D02*
X381000D01*
X380000Y189000D02*
Y191000D01*
X379000Y70000D02*
X381000D01*
X380000Y69000D02*
Y71000D01*
X369000Y50000D02*
X371000D01*
X370000Y49000D02*
Y51000D01*
X369000Y10000D02*
X371000D01*
X370000Y9000D02*
Y11000D01*
X349000Y770001D02*
X351000D01*
X350000Y769000D02*
Y771001D01*
X359000Y750001D02*
X361000D01*
X360000Y749000D02*
Y751001D01*
X349000Y730001D02*
X351000D01*
X350000Y729000D02*
Y731001D01*
X359000Y710001D02*
X361000D01*
X360000Y709000D02*
Y711001D01*
X349000Y690001D02*
X351000D01*
X350000Y689000D02*
Y691001D01*
X359000Y670001D02*
X361000D01*
X360000Y669000D02*
Y671001D01*
X349000Y650001D02*
X351000D01*
X350000Y649000D02*
Y651001D01*
X359000Y630000D02*
X361000D01*
X360000Y629001D02*
Y631001D01*
X349000Y570000D02*
X351000D01*
X350000Y569000D02*
Y571000D01*
X359000Y190000D02*
X361000D01*
X360000Y189000D02*
Y191000D01*
X359000Y150000D02*
X361000D01*
X360000Y149000D02*
Y151000D01*
X349000Y50000D02*
X351000D01*
X350000Y49000D02*
Y51000D01*
X349000Y10000D02*
X351000D01*
X350000Y9000D02*
Y11000D01*
X329000Y770001D02*
X331000D01*
X330000Y769000D02*
Y771001D01*
X339000Y750001D02*
X341000D01*
X340000Y749000D02*
Y751001D01*
X329000Y730001D02*
X331000D01*
X330000Y729000D02*
Y731001D01*
X339000Y710001D02*
X341000D01*
X340000Y709000D02*
Y711001D01*
X329000Y690001D02*
X331000D01*
X330000Y689000D02*
Y691001D01*
X339000Y670001D02*
X341000D01*
X340000Y669000D02*
Y671001D01*
X329000Y650001D02*
X331000D01*
X330000Y649000D02*
Y651001D01*
X339000Y630000D02*
X341000D01*
X340000Y629001D02*
Y631001D01*
X329000Y610000D02*
X331000D01*
X330000Y609001D02*
Y611001D01*
X339000Y590000D02*
X341000D01*
X340000Y589000D02*
Y591000D01*
X339000Y270000D02*
X341000D01*
X340000Y269000D02*
Y271000D01*
X329000Y130000D02*
X331000D01*
X330000Y129000D02*
Y131000D01*
X339000Y110000D02*
X341000D01*
X340000Y109000D02*
Y111000D01*
X329000Y90000D02*
X331000D01*
X330000Y89000D02*
Y91000D01*
X339000Y70000D02*
X341000D01*
X340000Y69000D02*
Y71000D01*
X329000Y50000D02*
X331000D01*
X330000Y49000D02*
Y51000D01*
X329000Y10000D02*
X331000D01*
X330000Y9000D02*
Y11000D01*
X309000Y770001D02*
X311000D01*
X310000Y769000D02*
Y771001D01*
X319000Y750001D02*
X321000D01*
X320000Y749000D02*
Y751001D01*
X309000Y730001D02*
X311000D01*
X310000Y729000D02*
Y731001D01*
X319000Y710001D02*
X321000D01*
X320000Y709000D02*
Y711001D01*
X309000Y690001D02*
X311000D01*
X310000Y689000D02*
Y691001D01*
X319000Y670001D02*
X321000D01*
X320000Y669000D02*
Y671001D01*
X309000Y610000D02*
X311000D01*
X310000Y609001D02*
Y611001D01*
X309000Y570000D02*
X311000D01*
X310000Y569000D02*
Y571000D01*
X309000Y250000D02*
X311000D01*
X310000Y249000D02*
Y251000D01*
X309000Y130000D02*
X311000D01*
X310000Y129000D02*
Y131000D01*
X319000Y110000D02*
X321000D01*
X320000Y109000D02*
Y111000D01*
X309000Y90000D02*
X311000D01*
X310000Y89000D02*
Y91000D01*
X319000Y70000D02*
X321000D01*
X320000Y69000D02*
Y71000D01*
X309000Y50000D02*
X311000D01*
X310000Y49000D02*
Y51000D01*
X309000Y10000D02*
X311000D01*
X310000Y9000D02*
Y11000D01*
X289000Y770001D02*
X291000D01*
X290000Y769000D02*
Y771001D01*
X299000Y750001D02*
X301000D01*
X300000Y749000D02*
Y751001D01*
X289000Y730001D02*
X291000D01*
X290000Y729000D02*
Y731001D01*
X299000Y710001D02*
X301000D01*
X300000Y709000D02*
Y711001D01*
X289000Y690001D02*
X291000D01*
X290000Y689000D02*
Y691001D01*
X299000Y670001D02*
X301000D01*
X300000Y669000D02*
Y671001D01*
X289000Y650001D02*
X291000D01*
X290000Y649000D02*
Y651001D01*
X299000Y630000D02*
X301000D01*
X300000Y629001D02*
Y631001D01*
X289000Y570000D02*
X291000D01*
X290000Y569000D02*
Y571000D01*
X299000Y190000D02*
X301000D01*
X300000Y189000D02*
Y191000D01*
X299000Y110000D02*
X301000D01*
X300000Y109000D02*
Y111000D01*
X289000Y10000D02*
X291000D01*
X290000Y9000D02*
Y11000D01*
X269000Y770001D02*
X271000D01*
X270000Y769000D02*
Y771001D01*
X279000Y750001D02*
X281000D01*
X280000Y749000D02*
Y751001D01*
X269000Y730001D02*
X271000D01*
X270000Y729000D02*
Y731001D01*
X279000Y710001D02*
X281000D01*
X280000Y709000D02*
Y711001D01*
X269000Y650001D02*
X271000D01*
X270000Y649000D02*
Y651001D01*
X269000Y610000D02*
X271000D01*
X270000Y609001D02*
Y611001D01*
X279000Y590000D02*
X281000D01*
X280000Y589000D02*
Y591000D01*
X269000Y570000D02*
X271000D01*
X270000Y569000D02*
Y571000D01*
X279000Y550000D02*
X281000D01*
X280000Y549000D02*
Y551000D01*
X269000Y210000D02*
X271000D01*
X270000Y209000D02*
Y211000D01*
X269000Y130000D02*
X271000D01*
X270000Y129000D02*
Y131000D01*
X269000Y90000D02*
X271000D01*
X270000Y89000D02*
Y91000D01*
X269000Y10000D02*
X271000D01*
X270000Y9000D02*
Y11000D01*
X249000Y770001D02*
X251000D01*
X250000Y769000D02*
Y771001D01*
X259000Y750001D02*
X261000D01*
X260000Y749000D02*
Y751001D01*
X249000Y730001D02*
X251000D01*
X250000Y729000D02*
Y731001D01*
X259000Y710001D02*
X261000D01*
X260000Y709000D02*
Y711001D01*
X259000Y670001D02*
X261000D01*
X260000Y669000D02*
Y671001D01*
X249000Y610000D02*
X251000D01*
X250000Y609001D02*
Y611001D01*
X259000Y590000D02*
X261000D01*
X260000Y589000D02*
Y591000D01*
X249000Y570000D02*
X251000D01*
X250000Y569000D02*
Y571000D01*
X259000Y550000D02*
X261000D01*
X260000Y549000D02*
Y551000D01*
X249000Y450000D02*
X251000D01*
X250000Y449000D02*
Y451000D01*
X249000Y330000D02*
X251000D01*
X250000Y329000D02*
Y331000D01*
X249000Y290000D02*
X251000D01*
X250000Y289000D02*
Y291000D01*
X249000Y170000D02*
X251000D01*
X250000Y169000D02*
Y171000D01*
X249000Y130000D02*
X251000D01*
X250000Y129000D02*
Y131000D01*
X259000Y110000D02*
X261000D01*
X260000Y109000D02*
Y111000D01*
X249000Y90000D02*
X251000D01*
X250000Y89000D02*
Y91000D01*
X259000Y70000D02*
X261000D01*
X260000Y69000D02*
Y71000D01*
X259000Y30000D02*
X261000D01*
X260000Y29000D02*
Y31000D01*
X249000Y10000D02*
X251000D01*
X250000Y9000D02*
Y11000D01*
X239000Y750001D02*
X241000D01*
X240000Y749000D02*
Y751001D01*
X239000Y710001D02*
X241000D01*
X240000Y709000D02*
Y711001D01*
X239000Y630000D02*
X241000D01*
X240000Y629001D02*
Y631001D01*
X229000Y610000D02*
X231000D01*
X230000Y609001D02*
Y611001D01*
X239000Y590000D02*
X241000D01*
X240000Y589000D02*
Y591000D01*
X229000Y570000D02*
X231000D01*
X230000Y569000D02*
Y571000D01*
X229000Y530000D02*
X231000D01*
X230000Y529000D02*
Y531000D01*
X239000Y510000D02*
X241000D01*
X240000Y509000D02*
Y511000D01*
X239000Y350000D02*
X241000D01*
X240000Y349000D02*
Y351000D01*
X229000Y330000D02*
X231000D01*
X230000Y329000D02*
Y331000D01*
X239000Y310000D02*
X241000D01*
X240000Y309000D02*
Y311000D01*
X229000Y290000D02*
X231000D01*
X230000Y289000D02*
Y291000D01*
X239000Y190000D02*
X241000D01*
X240000Y189000D02*
Y191000D01*
X229000Y170000D02*
X231000D01*
X230000Y169000D02*
Y171000D01*
X239000Y150000D02*
X241000D01*
X240000Y149000D02*
Y151000D01*
X229000Y130000D02*
X231000D01*
X230000Y129000D02*
Y131000D01*
X239000Y110000D02*
X241000D01*
X240000Y109000D02*
Y111000D01*
X229000Y90000D02*
X231000D01*
X230000Y89000D02*
Y91000D01*
X229000Y50000D02*
X231000D01*
X230000Y49000D02*
Y51000D01*
X239000Y30000D02*
X241000D01*
X240000Y29000D02*
Y31000D01*
X229000Y10000D02*
X231000D01*
X230000Y9000D02*
Y11000D01*
X219000Y750001D02*
X221000D01*
X220000Y749000D02*
Y751001D01*
X219000Y710001D02*
X221000D01*
X220000Y709000D02*
Y711001D01*
X219000Y630000D02*
X221000D01*
X220000Y629001D02*
Y631001D01*
X209000Y610000D02*
X211000D01*
X210000Y609001D02*
Y611001D01*
X219000Y590000D02*
X221000D01*
X220000Y589000D02*
Y591000D01*
X209000Y530000D02*
X211000D01*
X210000Y529000D02*
Y531000D01*
X209000Y490000D02*
X211000D01*
X210000Y489000D02*
Y491000D01*
X209000Y450000D02*
X211000D01*
X210000Y449000D02*
Y451000D01*
X219000Y430000D02*
X221000D01*
X220000Y429000D02*
Y431000D01*
X209000Y410000D02*
X211000D01*
X210000Y409000D02*
Y411000D01*
X219000Y390000D02*
X221000D01*
X220000Y389000D02*
Y391000D01*
X219000Y350000D02*
X221000D01*
X220000Y349000D02*
Y351000D01*
X209000Y330000D02*
X211000D01*
X210000Y329000D02*
Y331000D01*
X219000Y310000D02*
X221000D01*
X220000Y309000D02*
Y311000D01*
X209000Y290000D02*
X211000D01*
X210000Y289000D02*
Y291000D01*
X219000Y270000D02*
X221000D01*
X220000Y269000D02*
Y271000D01*
X219000Y190000D02*
X221000D01*
X220000Y189000D02*
Y191000D01*
X219000Y110000D02*
X221000D01*
X220000Y109000D02*
Y111000D01*
X209000Y90000D02*
X211000D01*
X210000Y89000D02*
Y91000D01*
X209000Y50000D02*
X211000D01*
X210000Y49000D02*
Y51000D01*
X219000Y30000D02*
X221000D01*
X220000Y29000D02*
Y31000D01*
X209000Y10000D02*
X211000D01*
X210000Y9000D02*
Y11000D01*
X199000Y750001D02*
X201000D01*
X200000Y749000D02*
Y751001D01*
X189000Y730001D02*
X191000D01*
X190000Y729000D02*
Y731001D01*
X199000Y670001D02*
X201000D01*
X200000Y669000D02*
Y671001D01*
X189000Y650001D02*
X191000D01*
X190000Y649000D02*
Y651001D01*
X199000Y630000D02*
X201000D01*
X200000Y629001D02*
Y631001D01*
X189000Y610000D02*
X191000D01*
X190000Y609001D02*
Y611001D01*
X189000Y570000D02*
X191000D01*
X190000Y569000D02*
Y571000D01*
X199000Y550000D02*
X201000D01*
X200000Y549000D02*
Y551000D01*
X189000Y530000D02*
X191000D01*
X190000Y529000D02*
Y531000D01*
X199000Y510000D02*
X201000D01*
X200000Y509000D02*
Y511000D01*
X199000Y470000D02*
X201000D01*
X200000Y469000D02*
Y471000D01*
X189000Y450000D02*
X191000D01*
X190000Y449000D02*
Y451000D01*
X199000Y430000D02*
X201000D01*
X200000Y429000D02*
Y431000D01*
X189000Y410000D02*
X191000D01*
X190000Y409000D02*
Y411000D01*
X199000Y390000D02*
X201000D01*
X200000Y389000D02*
Y391000D01*
X199000Y350000D02*
X201000D01*
X200000Y349000D02*
Y351000D01*
X189000Y330000D02*
X191000D01*
X190000Y329000D02*
Y331000D01*
X189000Y210000D02*
X191000D01*
X190000Y209000D02*
Y211000D01*
X199000Y150000D02*
X201000D01*
X200000Y149000D02*
Y151000D01*
X189000Y130000D02*
X191000D01*
X190000Y129000D02*
Y131000D01*
X199000Y110000D02*
X201000D01*
X200000Y109000D02*
Y111000D01*
X189000Y90000D02*
X191000D01*
X190000Y89000D02*
Y91000D01*
X199000Y70000D02*
X201000D01*
X200000Y69000D02*
Y71000D01*
X189000Y50000D02*
X191000D01*
X190000Y49000D02*
Y51000D01*
X199000Y30000D02*
X201000D01*
X200000Y29000D02*
Y31000D01*
X189000Y10000D02*
X191000D01*
X190000Y9000D02*
Y11000D01*
X179000Y750001D02*
X181000D01*
X180000Y749000D02*
Y751001D01*
X179000Y670001D02*
X181000D01*
X180000Y669000D02*
Y671001D01*
X179000Y630000D02*
X181000D01*
X180000Y629001D02*
Y631001D01*
X169000Y570000D02*
X171000D01*
X170000Y569000D02*
Y571000D01*
X179000Y550000D02*
X181000D01*
X180000Y549000D02*
Y551000D01*
X169000Y530000D02*
X171000D01*
X170000Y529000D02*
Y531000D01*
X169000Y490000D02*
X171000D01*
X170000Y489000D02*
Y491000D01*
X179000Y470000D02*
X181000D01*
X180000Y469000D02*
Y471000D01*
X169000Y450000D02*
X171000D01*
X170000Y449000D02*
Y451000D01*
X179000Y430000D02*
X181000D01*
X180000Y429000D02*
Y431000D01*
X169000Y410000D02*
X171000D01*
X170000Y409000D02*
Y411000D01*
X179000Y390000D02*
X181000D01*
X180000Y389000D02*
Y391000D01*
X179000Y350000D02*
X181000D01*
X180000Y349000D02*
Y351000D01*
X169000Y330000D02*
X171000D01*
X170000Y329000D02*
Y331000D01*
X179000Y310000D02*
X181000D01*
X180000Y309000D02*
Y311000D01*
X169000Y130000D02*
X171000D01*
X170000Y129000D02*
Y131000D01*
X179000Y110000D02*
X181000D01*
X180000Y109000D02*
Y111000D01*
X169000Y90000D02*
X171000D01*
X170000Y89000D02*
Y91000D01*
X179000Y70000D02*
X181000D01*
X180000Y69000D02*
Y71000D01*
X169000Y50000D02*
X171000D01*
X170000Y49000D02*
Y51000D01*
X179000Y30000D02*
X181000D01*
X180000Y29000D02*
Y31000D01*
X169000Y10000D02*
X171000D01*
X170000Y9000D02*
Y11000D01*
X159000Y750001D02*
X161000D01*
X160000Y749000D02*
Y751001D01*
X159000Y670001D02*
X161000D01*
X160000Y669000D02*
Y671001D01*
X149000Y610000D02*
X151000D01*
X150000Y609001D02*
Y611001D01*
X159000Y590000D02*
X161000D01*
X160000Y589000D02*
Y591000D01*
X149000Y570000D02*
X151000D01*
X150000Y569000D02*
Y571000D01*
X159000Y550000D02*
X161000D01*
X160000Y549000D02*
Y551000D01*
X159000Y510000D02*
X161000D01*
X160000Y509000D02*
Y511000D01*
X149000Y490000D02*
X151000D01*
X150000Y489000D02*
Y491000D01*
X159000Y470000D02*
X161000D01*
X160000Y469000D02*
Y471000D01*
X149000Y450000D02*
X151000D01*
X150000Y449000D02*
Y451000D01*
X159000Y430000D02*
X161000D01*
X160000Y429000D02*
Y431000D01*
X149000Y410000D02*
X151000D01*
X150000Y409000D02*
Y411000D01*
X159000Y390000D02*
X161000D01*
X160000Y389000D02*
Y391000D01*
X159000Y350000D02*
X161000D01*
X160000Y349000D02*
Y351000D01*
X149000Y330000D02*
X151000D01*
X150000Y329000D02*
Y331000D01*
X159000Y310000D02*
X161000D01*
X160000Y309000D02*
Y311000D01*
X159000Y150000D02*
X161000D01*
X160000Y149000D02*
Y151000D01*
X149000Y130000D02*
X151000D01*
X150000Y129000D02*
Y131000D01*
X159000Y110000D02*
X161000D01*
X160000Y109000D02*
Y111000D01*
X159000Y70000D02*
X161000D01*
X160000Y69000D02*
Y71000D01*
X149000Y50000D02*
X151000D01*
X150000Y49000D02*
Y51000D01*
X159000Y30000D02*
X161000D01*
X160000Y29000D02*
Y31000D01*
X149000Y10000D02*
X151000D01*
X150000Y9000D02*
Y11000D01*
X139000Y590000D02*
X141000D01*
X140000Y589000D02*
Y591000D01*
X139000Y510000D02*
X141000D01*
X140000Y509000D02*
Y511000D01*
X139000Y470000D02*
X141000D01*
X140000Y469000D02*
Y471000D01*
X139000Y430000D02*
X141000D01*
X140000Y429000D02*
Y431000D01*
X139000Y390000D02*
X141000D01*
X140000Y389000D02*
Y391000D01*
X139000Y350000D02*
X141000D01*
X140000Y349000D02*
Y351000D01*
X139000Y310000D02*
X141000D01*
X140000Y309000D02*
Y311000D01*
X139000Y70000D02*
X141000D01*
X140000Y69000D02*
Y71000D01*
X129000Y50000D02*
X131000D01*
X130000Y49000D02*
Y51000D01*
X139000Y30000D02*
X141000D01*
X140000Y29000D02*
Y31000D01*
X129000Y10000D02*
X131000D01*
X130000Y9000D02*
Y11000D01*
X109000Y770001D02*
X111000D01*
X110000Y769000D02*
Y771001D01*
X119000Y750001D02*
X121000D01*
X120000Y749000D02*
Y751001D01*
X109000Y730001D02*
X111000D01*
X110000Y729000D02*
Y731001D01*
X119000Y670001D02*
X121000D01*
X120000Y669000D02*
Y671001D01*
X109000Y650001D02*
X111000D01*
X110000Y649000D02*
Y651001D01*
X119000Y630000D02*
X121000D01*
X120000Y629001D02*
Y631001D01*
X109000Y610000D02*
X111000D01*
X110000Y609001D02*
Y611001D01*
X119000Y590000D02*
X121000D01*
X120000Y589000D02*
Y591000D01*
X119000Y550000D02*
X121000D01*
X120000Y549000D02*
Y551000D01*
X109000Y530000D02*
X111000D01*
X110000Y529000D02*
Y531000D01*
X119000Y510000D02*
X121000D01*
X120000Y509000D02*
Y511000D01*
X109000Y490000D02*
X111000D01*
X110000Y489000D02*
Y491000D01*
X119000Y470000D02*
X121000D01*
X120000Y469000D02*
Y471000D01*
X109000Y450000D02*
X111000D01*
X110000Y449000D02*
Y451000D01*
X119000Y430000D02*
X121000D01*
X120000Y429000D02*
Y431000D01*
X109000Y410000D02*
X111000D01*
X110000Y409000D02*
Y411000D01*
X119000Y350000D02*
X121000D01*
X120000Y349000D02*
Y351000D01*
X109000Y330000D02*
X111000D01*
X110000Y329000D02*
Y331000D01*
X119000Y310000D02*
X121000D01*
X120000Y309000D02*
Y311000D01*
X109000Y290000D02*
X111000D01*
X110000Y289000D02*
Y291000D01*
X119000Y270000D02*
X121000D01*
X120000Y269000D02*
Y271000D01*
X109000Y250000D02*
X111000D01*
X110000Y249000D02*
Y251000D01*
X109000Y210000D02*
X111000D01*
X110000Y209000D02*
Y211000D01*
X109000Y170000D02*
X111000D01*
X110000Y169000D02*
Y171000D01*
X109000Y50000D02*
X111000D01*
X110000Y49000D02*
Y51000D01*
X119000Y30000D02*
X121000D01*
X120000Y29000D02*
Y31000D01*
X109000Y10000D02*
X111000D01*
X110000Y9000D02*
Y11000D01*
X89000Y770001D02*
X91000D01*
X90000Y769000D02*
Y771001D01*
X99000Y750001D02*
X101000D01*
X100000Y749000D02*
Y751001D01*
X99000Y630000D02*
X101000D01*
X100000Y629001D02*
Y631001D01*
X89000Y570000D02*
X91000D01*
X90000Y569000D02*
Y571000D01*
X99000Y550000D02*
X101000D01*
X100000Y549000D02*
Y551000D01*
X89000Y530000D02*
X91000D01*
X90000Y529000D02*
Y531000D01*
X99000Y510000D02*
X101000D01*
X100000Y509000D02*
Y511000D01*
X89000Y490000D02*
X91000D01*
X90000Y489000D02*
Y491000D01*
X99000Y470000D02*
X101000D01*
X100000Y469000D02*
Y471000D01*
X89000Y450000D02*
X91000D01*
X90000Y449000D02*
Y451000D01*
X99000Y430000D02*
X101000D01*
X100000Y429000D02*
Y431000D01*
X89000Y410000D02*
X91000D01*
X90000Y409000D02*
Y411000D01*
X89000Y330000D02*
X91000D01*
X90000Y329000D02*
Y331000D01*
X99000Y310000D02*
X101000D01*
X100000Y309000D02*
Y311000D01*
X89000Y290000D02*
X91000D01*
X90000Y289000D02*
Y291000D01*
X99000Y270000D02*
X101000D01*
X100000Y269000D02*
Y271000D01*
X89000Y250000D02*
X91000D01*
X90000Y249000D02*
Y251000D01*
X99000Y230000D02*
X101000D01*
X100000Y229000D02*
Y231000D01*
X89000Y210000D02*
X91000D01*
X90000Y209000D02*
Y211000D01*
X99000Y190000D02*
X101000D01*
X100000Y189000D02*
Y191000D01*
X89000Y170000D02*
X91000D01*
X90000Y169000D02*
Y171000D01*
X99000Y150000D02*
X101000D01*
X100000Y149000D02*
Y151000D01*
X89000Y50000D02*
X91000D01*
X90000Y49000D02*
Y51000D01*
X99000Y30000D02*
X101000D01*
X100000Y29000D02*
Y31000D01*
X89000Y10000D02*
X91000D01*
X90000Y9000D02*
Y11000D01*
X69000Y770001D02*
X71000D01*
X70000Y769000D02*
Y771001D01*
X79000Y750001D02*
X81000D01*
X80000Y749000D02*
Y751001D01*
X69000Y650001D02*
X71000D01*
X70000Y649000D02*
Y651001D01*
X69000Y610000D02*
X71000D01*
X70000Y609001D02*
Y611001D01*
X79000Y590000D02*
X81000D01*
X80000Y589000D02*
Y591000D01*
X69000Y570000D02*
X71000D01*
X70000Y569000D02*
Y571000D01*
X79000Y550000D02*
X81000D01*
X80000Y549000D02*
Y551000D01*
X69000Y530000D02*
X71000D01*
X70000Y529000D02*
Y531000D01*
X79000Y510000D02*
X81000D01*
X80000Y509000D02*
Y511000D01*
X69000Y490000D02*
X71000D01*
X70000Y489000D02*
Y491000D01*
X79000Y470000D02*
X81000D01*
X80000Y469000D02*
Y471000D01*
X69000Y450000D02*
X71000D01*
X70000Y449000D02*
Y451000D01*
X79000Y430000D02*
X81000D01*
X80000Y429000D02*
Y431000D01*
X79000Y310000D02*
X81000D01*
X80000Y309000D02*
Y311000D01*
X69000Y290000D02*
X71000D01*
X70000Y289000D02*
Y291000D01*
X79000Y270000D02*
X81000D01*
X80000Y269000D02*
Y271000D01*
X69000Y250000D02*
X71000D01*
X70000Y249000D02*
Y251000D01*
X79000Y230000D02*
X81000D01*
X80000Y229000D02*
Y231000D01*
X69000Y210000D02*
X71000D01*
X70000Y209000D02*
Y211000D01*
X79000Y190000D02*
X81000D01*
X80000Y189000D02*
Y191000D01*
X69000Y170000D02*
X71000D01*
X70000Y169000D02*
Y171000D01*
X79000Y150000D02*
X81000D01*
X80000Y149000D02*
Y151000D01*
X69000Y50000D02*
X71000D01*
X70000Y49000D02*
Y51000D01*
X79000Y30000D02*
X81000D01*
X80000Y29000D02*
Y31000D01*
X69000Y10000D02*
X71000D01*
X70000Y9000D02*
Y11000D01*
X49000Y730001D02*
X51000D01*
X50000Y729000D02*
Y731001D01*
X49000Y650001D02*
X51000D01*
X50000Y649000D02*
Y651001D01*
X59000Y630000D02*
X61000D01*
X60000Y629001D02*
Y631001D01*
X49000Y610000D02*
X51000D01*
X50000Y609001D02*
Y611001D01*
X59000Y590000D02*
X61000D01*
X60000Y589000D02*
Y591000D01*
X49000Y570000D02*
X51000D01*
X50000Y569000D02*
Y571000D01*
X59000Y550000D02*
X61000D01*
X60000Y549000D02*
Y551000D01*
X49000Y530000D02*
X51000D01*
X50000Y529000D02*
Y531000D01*
X59000Y510000D02*
X61000D01*
X60000Y509000D02*
Y511000D01*
X49000Y490000D02*
X51000D01*
X50000Y489000D02*
Y491000D01*
X59000Y470000D02*
X61000D01*
X60000Y469000D02*
Y471000D01*
X49000Y450000D02*
X51000D01*
X50000Y449000D02*
Y451000D01*
X59000Y430000D02*
X61000D01*
X60000Y429000D02*
Y431000D01*
X49000Y410000D02*
X51000D01*
X50000Y409000D02*
Y411000D01*
X49000Y290000D02*
X51000D01*
X50000Y289000D02*
Y291000D01*
X59000Y270000D02*
X61000D01*
X60000Y269000D02*
Y271000D01*
X49000Y250000D02*
X51000D01*
X50000Y249000D02*
Y251000D01*
X59000Y230000D02*
X61000D01*
X60000Y229000D02*
Y231000D01*
X49000Y210000D02*
X51000D01*
X50000Y209000D02*
Y211000D01*
X59000Y190000D02*
X61000D01*
X60000Y189000D02*
Y191000D01*
X49000Y170000D02*
X51000D01*
X50000Y169000D02*
Y171000D01*
X59000Y150000D02*
X61000D01*
X60000Y149000D02*
Y151000D01*
X59000Y110000D02*
X61000D01*
X60000Y109000D02*
Y111000D01*
X49000Y10000D02*
X51000D01*
X50000Y9000D02*
Y11000D01*
X29000Y730001D02*
X31000D01*
X30000Y729000D02*
Y731001D01*
X39000Y710001D02*
X41000D01*
X40000Y709000D02*
Y711001D01*
X29000Y650001D02*
X31000D01*
X30000Y649000D02*
Y651001D01*
X39000Y630000D02*
X41000D01*
X40000Y629001D02*
Y631001D01*
X29000Y610000D02*
X31000D01*
X30000Y609001D02*
Y611001D01*
X39000Y590000D02*
X41000D01*
X40000Y589000D02*
Y591000D01*
X29000Y570000D02*
X31000D01*
X30000Y569000D02*
Y571000D01*
X39000Y550000D02*
X41000D01*
X40000Y549000D02*
Y551000D01*
X29000Y530000D02*
X31000D01*
X30000Y529000D02*
Y531000D01*
X39000Y510000D02*
X41000D01*
X40000Y509000D02*
Y511000D01*
X29000Y490000D02*
X31000D01*
X30000Y489000D02*
Y491000D01*
X39000Y470000D02*
X41000D01*
X40000Y469000D02*
Y471000D01*
X29000Y450000D02*
X31000D01*
X30000Y449000D02*
Y451000D01*
X39000Y430000D02*
X41000D01*
X40000Y429000D02*
Y431000D01*
X39000Y390000D02*
X41000D01*
X40000Y389000D02*
Y391000D01*
X29000Y370000D02*
X31000D01*
X30000Y369000D02*
Y371000D01*
X39000Y350000D02*
X41000D01*
X40000Y349000D02*
Y351000D01*
X39000Y310000D02*
X41000D01*
X40000Y309000D02*
Y311000D01*
X29000Y290000D02*
X31000D01*
X30000Y289000D02*
Y291000D01*
X39000Y270000D02*
X41000D01*
X40000Y269000D02*
Y271000D01*
X29000Y250000D02*
X31000D01*
X30000Y249000D02*
Y251000D01*
X39000Y230000D02*
X41000D01*
X40000Y229000D02*
Y231000D01*
X29000Y210000D02*
X31000D01*
X30000Y209000D02*
Y211000D01*
X39000Y190000D02*
X41000D01*
X40000Y189000D02*
Y191000D01*
X29000Y170000D02*
X31000D01*
X30000Y169000D02*
Y171000D01*
X39000Y70000D02*
X41000D01*
X40000Y69000D02*
Y71000D01*
X29000Y10000D02*
X31000D01*
X30000Y9000D02*
Y11000D01*
X9000Y770001D02*
X11000D01*
X10000Y769000D02*
Y771001D01*
X9000Y730001D02*
X11000D01*
X10000Y729000D02*
Y731001D01*
X19000Y710001D02*
X21000D01*
X20000Y709000D02*
Y711001D01*
X9000Y650001D02*
X11000D01*
X10000Y649000D02*
Y651001D01*
X19000Y630000D02*
X21000D01*
X20000Y629001D02*
Y631001D01*
X9000Y610000D02*
X11000D01*
X10000Y609001D02*
Y611001D01*
X19000Y590000D02*
X21000D01*
X20000Y589000D02*
Y591000D01*
X9000Y570000D02*
X11000D01*
X10000Y569000D02*
Y571000D01*
X19000Y550000D02*
X21000D01*
X20000Y549000D02*
Y551000D01*
X9000Y530000D02*
X11000D01*
X10000Y529000D02*
Y531000D01*
X19000Y510000D02*
X21000D01*
X20000Y509000D02*
Y511000D01*
X9000Y490000D02*
X11000D01*
X10000Y489000D02*
Y491000D01*
X19000Y470000D02*
X21000D01*
X20000Y469000D02*
Y471000D01*
X9000Y450000D02*
X11000D01*
X10000Y449000D02*
Y451000D01*
X19000Y430000D02*
X21000D01*
X20000Y429000D02*
Y431000D01*
X9000Y410000D02*
X11000D01*
X10000Y409000D02*
Y411000D01*
X19000Y390000D02*
X21000D01*
X20000Y389000D02*
Y391000D01*
X9000Y370000D02*
X11000D01*
X10000Y369000D02*
Y371000D01*
X19000Y350000D02*
X21000D01*
X20000Y349000D02*
Y351000D01*
X9000Y330000D02*
X11000D01*
X10000Y329000D02*
Y331000D01*
X19000Y310000D02*
X21000D01*
X20000Y309000D02*
Y311000D01*
X9000Y290000D02*
X11000D01*
X10000Y289000D02*
Y291000D01*
X19000Y270000D02*
X21000D01*
X20000Y269000D02*
Y271000D01*
X9000Y250000D02*
X11000D01*
X10000Y249000D02*
Y251000D01*
X19000Y230000D02*
X21000D01*
X20000Y229000D02*
Y231000D01*
X9000Y210000D02*
X11000D01*
X10000Y209000D02*
Y211000D01*
X19000Y190000D02*
X21000D01*
X20000Y189000D02*
Y191000D01*
X9000Y170000D02*
X11000D01*
X10000Y169000D02*
Y171000D01*
X19000Y150000D02*
X21000D01*
X20000Y149000D02*
Y151000D01*
X9000Y130000D02*
X11000D01*
X10000Y129000D02*
Y131000D01*
X9000Y90000D02*
X11000D01*
X10000Y89000D02*
Y91000D01*
X19000Y70000D02*
X21000D01*
X20000Y69000D02*
Y71000D01*
X9000Y50000D02*
X11000D01*
X10000Y49000D02*
Y51000D01*
X821000Y458000D02*
X823000D01*
X822000Y457000D02*
Y459000D01*
X767000Y176000D02*
X769000D01*
X768000Y175000D02*
Y177000D01*
X804000Y187500D02*
X806000D01*
X805000Y186500D02*
Y188500D01*
X806500Y460000D02*
X808500D01*
X807500Y459000D02*
Y461000D01*
X391500Y527500D02*
X393500D01*
X392500Y526500D02*
Y528500D01*
X384000Y527500D02*
X386000D01*
X385000Y526500D02*
Y528500D01*
X376500Y527500D02*
X378500D01*
X377500Y526500D02*
Y528500D01*
X369000Y527500D02*
X371000D01*
X370000Y526500D02*
Y528500D01*
X293000Y463000D02*
X295000D01*
X294000Y462000D02*
Y464000D01*
X307000Y463000D02*
X309000D01*
X308000Y462000D02*
Y464000D01*
X300000Y463000D02*
X302000D01*
X301000Y462000D02*
Y464000D01*
X293000Y443000D02*
X295000D01*
X294000Y442000D02*
Y444000D01*
X300000Y443000D02*
X302000D01*
X301000Y442000D02*
Y444000D01*
X307000Y443000D02*
X309000D01*
X308000Y442000D02*
Y444000D01*
X307000Y450000D02*
X309000D01*
X308000Y449000D02*
Y451000D01*
X300000Y450000D02*
X302000D01*
X301000Y449000D02*
Y451000D01*
X293000Y450000D02*
X295000D01*
X294000Y449000D02*
Y451000D01*
X50000Y340000D02*
X52000D01*
X51000Y339000D02*
Y341000D01*
X364000Y105000D02*
X366000D01*
X365000Y104000D02*
Y106000D01*
X354000Y105000D02*
X356000D01*
X355000Y104000D02*
Y106000D01*
X374000Y125000D02*
X376000D01*
X375000Y124000D02*
Y126000D01*
X364000Y125000D02*
X366000D01*
X365000Y124000D02*
Y126000D01*
X364000Y115000D02*
X366000D01*
X365000Y114000D02*
Y116000D01*
X354000Y115000D02*
X356000D01*
X355000Y114000D02*
Y116000D01*
X354000Y125000D02*
X356000D01*
X355000Y124000D02*
Y126000D01*
X374000Y265000D02*
X376000D01*
X375000Y264000D02*
Y266000D01*
X374000Y275000D02*
X376000D01*
X375000Y274000D02*
Y276000D01*
X364000Y275000D02*
X366000D01*
X365000Y274000D02*
Y276000D01*
X364000Y265000D02*
X366000D01*
X365000Y264000D02*
Y266000D01*
X364000Y255000D02*
X366000D01*
X365000Y254000D02*
Y256000D01*
X359000Y230000D02*
X361000D01*
X360000Y229000D02*
Y231000D01*
X354000Y225000D02*
X356000D01*
X355000Y224000D02*
Y226000D01*
X354000Y215000D02*
X356000D01*
X355000Y214000D02*
Y216000D01*
X354000Y205000D02*
X356000D01*
X355000Y204000D02*
Y206000D01*
X359000Y210000D02*
X361000D01*
X360000Y209000D02*
Y211000D01*
X359000Y220000D02*
X361000D01*
X360000Y219000D02*
Y221000D01*
X379000Y260000D02*
X381000D01*
X380000Y259000D02*
Y261000D01*
X389000Y280000D02*
X391000D01*
X390000Y279000D02*
Y281000D01*
X389000Y270000D02*
X391000D01*
X390000Y269000D02*
Y271000D01*
X379000Y270000D02*
X381000D01*
X380000Y269000D02*
Y271000D01*
X379000Y280000D02*
X381000D01*
X380000Y279000D02*
Y281000D01*
X369000Y280000D02*
X371000D01*
X370000Y279000D02*
Y281000D01*
X369000Y270000D02*
X371000D01*
X370000Y269000D02*
Y271000D01*
X369000Y260000D02*
X371000D01*
X370000Y259000D02*
Y261000D01*
X369000Y250000D02*
X371000D01*
X370000Y249000D02*
Y251000D01*
X359000Y250000D02*
X361000D01*
X360000Y249000D02*
Y251000D01*
X359000Y260000D02*
X361000D01*
X360000Y259000D02*
Y261000D01*
X359000Y270000D02*
X361000D01*
X360000Y269000D02*
Y271000D01*
X359000Y280000D02*
X361000D01*
X360000Y279000D02*
Y281000D01*
X349000Y130000D02*
X351000D01*
X350000Y129000D02*
Y131000D01*
X349000Y60000D02*
X351000D01*
X350000Y59000D02*
Y61000D01*
X349000Y70000D02*
X351000D01*
X350000Y69000D02*
Y71000D01*
X349000Y80000D02*
X351000D01*
X350000Y79000D02*
Y81000D01*
X349000Y90000D02*
X351000D01*
X350000Y89000D02*
Y91000D01*
X349000Y100000D02*
X351000D01*
X350000Y99000D02*
Y101000D01*
X349000Y110000D02*
X351000D01*
X350000Y109000D02*
Y111000D01*
X349000Y120000D02*
X351000D01*
X350000Y119000D02*
Y121000D01*
X379000Y120000D02*
X381000D01*
X380000Y119000D02*
Y121000D01*
X379000Y130000D02*
X381000D01*
X380000Y129000D02*
Y131000D01*
X369000Y130000D02*
X371000D01*
X370000Y129000D02*
Y131000D01*
X369000Y120000D02*
X371000D01*
X370000Y119000D02*
Y121000D01*
X369000Y110000D02*
X371000D01*
X370000Y109000D02*
Y111000D01*
X369000Y100000D02*
X371000D01*
X370000Y99000D02*
Y101000D01*
X359000Y100000D02*
X361000D01*
X360000Y99000D02*
Y101000D01*
X359000Y110000D02*
X361000D01*
X360000Y109000D02*
Y111000D01*
X359000Y120000D02*
X361000D01*
X360000Y119000D02*
Y121000D01*
X359000Y130000D02*
X361000D01*
X360000Y129000D02*
Y131000D01*
X265000Y542500D02*
X267000D01*
X266000Y541500D02*
Y543500D01*
X345911Y430500D02*
X347911D01*
X346911Y429500D02*
Y431500D01*
X314121Y311621D02*
X316121D01*
X315121Y310621D02*
Y312621D01*
X315000Y302871D02*
X317000D01*
X316000Y301871D02*
Y303871D01*
X224000Y260000D02*
X226000D01*
X225000Y259000D02*
Y261000D01*
X224000Y250000D02*
X226000D01*
X225000Y249000D02*
Y251000D01*
X224000Y240000D02*
X226000D01*
X225000Y239000D02*
Y241000D01*
X214000Y240000D02*
X216000D01*
X215000Y239000D02*
Y241000D01*
X214000Y250000D02*
X216000D01*
X215000Y249000D02*
Y251000D01*
X214000Y260000D02*
X216000D01*
X215000Y259000D02*
Y261000D01*
X204000Y260000D02*
X206000D01*
X205000Y259000D02*
Y261000D01*
X204000Y250000D02*
X206000D01*
X205000Y249000D02*
Y251000D01*
X204000Y240000D02*
X206000D01*
X205000Y239000D02*
Y241000D01*
X194000Y240000D02*
X196000D01*
X195000Y239000D02*
Y241000D01*
X194000Y250000D02*
X196000D01*
X195000Y249000D02*
Y251000D01*
X194000Y260000D02*
X196000D01*
X195000Y259000D02*
Y261000D01*
X199000Y160000D02*
X201000D01*
X200000Y159000D02*
Y161000D01*
X209000Y160000D02*
X211000D01*
X210000Y159000D02*
Y161000D01*
X219000Y160000D02*
X221000D01*
X220000Y159000D02*
Y161000D01*
X219000Y180000D02*
X221000D01*
X220000Y179000D02*
Y181000D01*
X219000Y170000D02*
X221000D01*
X220000Y169000D02*
Y171000D01*
X209000Y170000D02*
X211000D01*
X210000Y169000D02*
Y171000D01*
X199000Y170000D02*
X201000D01*
X200000Y169000D02*
Y171000D01*
X238000Y204000D02*
X240000D01*
X239000Y203000D02*
Y205000D01*
X334000Y156000D02*
X336000D01*
X335000Y155000D02*
Y157000D01*
X463000Y280000D02*
X465000D01*
X464000Y279000D02*
Y281000D01*
X340000Y244000D02*
X342000D01*
X341000Y243000D02*
Y245000D01*
X462000Y136000D02*
X464000D01*
X463000Y135000D02*
Y137000D01*
X373000Y164000D02*
X375000D01*
X374000Y163000D02*
Y165000D01*
X301750Y495500D02*
X303750D01*
X302750Y494500D02*
Y496500D01*
X300000Y410000D02*
X302000D01*
X301000Y409000D02*
Y411000D01*
X276998Y462870D02*
X278998D01*
X277998Y461870D02*
Y463870D01*
X259573Y426000D02*
X261573D01*
X260573Y425000D02*
Y427000D01*
X274661Y412000D02*
X276661D01*
X275661Y411000D02*
Y413000D01*
X262625Y226375D02*
X264625D01*
X263625Y225375D02*
Y227375D01*
X534000Y80000D02*
X536000D01*
X535000Y79000D02*
Y81000D01*
X544000Y80000D02*
X546000D01*
X545000Y79000D02*
Y81000D01*
X519000Y90000D02*
X521000D01*
X520000Y89000D02*
Y91000D01*
X529000Y90000D02*
X531000D01*
X530000Y89000D02*
Y91000D01*
X539000Y90000D02*
X541000D01*
X540000Y89000D02*
Y91000D01*
X544000Y105000D02*
X546000D01*
X545000Y104000D02*
Y106000D01*
X534000Y105000D02*
X536000D01*
X535000Y104000D02*
Y106000D01*
X524000Y105000D02*
X526000D01*
X525000Y104000D02*
Y106000D01*
X529000Y110000D02*
X531000D01*
X530000Y109000D02*
Y111000D01*
X529000Y100000D02*
X531000D01*
X530000Y99000D02*
Y101000D01*
X539000Y100000D02*
X541000D01*
X540000Y99000D02*
Y101000D01*
X539000Y110000D02*
X541000D01*
X540000Y109000D02*
Y111000D01*
X539000Y130000D02*
X541000D01*
X540000Y129000D02*
Y131000D01*
X539000Y120000D02*
X541000D01*
X540000Y119000D02*
Y121000D01*
X529000Y120000D02*
X531000D01*
X530000Y119000D02*
Y121000D01*
X529000Y130000D02*
X531000D01*
X530000Y129000D02*
Y131000D01*
X519000Y130000D02*
X521000D01*
X520000Y129000D02*
Y131000D01*
X519000Y120000D02*
X521000D01*
X520000Y119000D02*
Y121000D01*
X509000Y120000D02*
X511000D01*
X510000Y119000D02*
Y121000D01*
X509000Y130000D02*
X511000D01*
X510000Y129000D02*
Y131000D01*
X529000Y225000D02*
X531000D01*
X530000Y224000D02*
Y226000D01*
X539000Y225000D02*
X541000D01*
X540000Y224000D02*
Y226000D01*
X549000Y225000D02*
X551000D01*
X550000Y224000D02*
Y226000D01*
X519000Y235000D02*
X521000D01*
X520000Y234000D02*
Y236000D01*
X549000Y235000D02*
X551000D01*
X550000Y234000D02*
Y236000D01*
X539000Y235000D02*
X541000D01*
X540000Y234000D02*
Y236000D01*
X529000Y235000D02*
X531000D01*
X530000Y234000D02*
Y236000D01*
X529000Y245000D02*
X531000D01*
X530000Y244000D02*
Y246000D01*
X539000Y245000D02*
X541000D01*
X540000Y244000D02*
Y246000D01*
X549000Y245000D02*
X551000D01*
X550000Y244000D02*
Y246000D01*
X549000Y255000D02*
X551000D01*
X550000Y254000D02*
Y256000D01*
X539000Y255000D02*
X541000D01*
X540000Y254000D02*
Y256000D01*
X529000Y255000D02*
X531000D01*
X530000Y254000D02*
Y256000D01*
X514000Y265000D02*
X516000D01*
X515000Y264000D02*
Y266000D01*
X524000Y265000D02*
X526000D01*
X525000Y264000D02*
Y266000D01*
X534000Y265000D02*
X536000D01*
X535000Y264000D02*
Y266000D01*
X544000Y265000D02*
X546000D01*
X545000Y264000D02*
Y266000D01*
X544000Y275000D02*
X546000D01*
X545000Y274000D02*
Y276000D01*
X534000Y275000D02*
X536000D01*
X535000Y274000D02*
Y276000D01*
X524000Y275000D02*
X526000D01*
X525000Y274000D02*
Y276000D01*
X514000Y275000D02*
X516000D01*
X515000Y274000D02*
Y276000D01*
X504000Y103000D02*
X506000D01*
X505000Y102000D02*
Y104000D01*
X453000Y87000D02*
X455000D01*
X454000Y86000D02*
Y88000D01*
X493000Y52500D02*
X495000D01*
X494000Y51500D02*
Y53500D01*
X509000Y247000D02*
X511000D01*
X510000Y246000D02*
Y248000D01*
X456679Y231348D02*
X458679D01*
X457679Y230348D02*
Y232348D01*
X410000Y271000D02*
X412000D01*
X411000Y270000D02*
Y272000D01*
X345911Y454935D02*
X347911D01*
X346911Y453935D02*
Y455935D01*
X278000Y494316D02*
X280000D01*
X279000Y493316D02*
Y495316D01*
X338004Y563278D02*
X340004D01*
X339004Y562277D02*
Y564277D01*
X332234Y563278D02*
X334234D01*
X333234Y562277D02*
Y564277D01*
X326464Y563278D02*
X328464D01*
X327464Y562277D02*
Y564277D01*
X330884Y434500D02*
X332884D01*
X331884Y433500D02*
Y435500D01*
X330884Y467020D02*
X332884D01*
X331884Y466020D02*
Y468020D01*
X336411Y497727D02*
X338411D01*
X337411Y496727D02*
Y498727D01*
X286000Y495250D02*
X288000D01*
X287000Y494250D02*
Y496250D01*
X294000Y495500D02*
X296000D01*
X295000Y494500D02*
Y496500D01*
X321710Y494872D02*
X323710D01*
X322710Y493872D02*
Y495872D01*
X317353Y479228D02*
X319353D01*
X318353Y478228D02*
Y480228D01*
X329512Y475503D02*
X331512D01*
X330512Y474503D02*
Y476503D01*
X325643Y479784D02*
X327643D01*
X326643Y478783D02*
Y480784D01*
X345911Y470500D02*
X347911D01*
X346911Y469500D02*
Y471500D01*
X345911Y446645D02*
X347911D01*
X346911Y445645D02*
Y447645D01*
X345911Y438355D02*
X347911D01*
X346911Y437355D02*
Y439355D01*
X330884Y449690D02*
X332884D01*
X331884Y448690D02*
Y450690D01*
X330884Y457980D02*
X332884D01*
X331884Y456980D02*
Y458980D01*
X330884Y442500D02*
X332884D01*
X331884Y441500D02*
Y443500D01*
X436345Y133750D02*
X438345D01*
X437345Y132750D02*
Y134750D01*
X412500Y139500D02*
X414500D01*
X413500Y138500D02*
Y140500D01*
X153000Y230500D02*
X155000D01*
X154000Y229500D02*
Y231500D01*
X272000Y235750D02*
X274000D01*
X273000Y234750D02*
Y236750D01*
X287622Y253122D02*
X289622D01*
X288622Y252122D02*
Y254122D01*
X288250Y245500D02*
X290250D01*
X289250Y244500D02*
Y246500D01*
X294098Y245423D02*
X296098D01*
X295098Y244423D02*
Y246423D01*
X283750Y209500D02*
X285750D01*
X284750Y208500D02*
Y210500D01*
X277115Y446465D02*
X279116D01*
X278116Y445465D02*
Y447465D01*
X261839Y434500D02*
X263839D01*
X262839Y433500D02*
Y435500D01*
X499000Y194750D02*
X501000D01*
X500000Y193750D02*
Y195750D01*
X442500Y273750D02*
X444500D01*
X443500Y272750D02*
Y274750D01*
X276855Y430500D02*
X278855D01*
X277855Y429500D02*
Y431500D01*
X276855Y438500D02*
X278855D01*
X277855Y437500D02*
Y439500D01*
X262184Y442500D02*
X264184D01*
X263184Y441500D02*
Y443500D01*
X262184Y449677D02*
X264184D01*
X263184Y448677D02*
Y450677D01*
X262171Y457967D02*
X264171D01*
X263171Y456967D02*
Y458967D01*
X280480Y467855D02*
X282480D01*
X281480Y466855D02*
Y468855D01*
X290000Y480989D02*
X292000D01*
X291000Y479989D02*
Y481989D01*
X282000Y480989D02*
X284000D01*
X283000Y479989D02*
Y481989D01*
X279000Y452234D02*
X281000D01*
X280000Y451234D02*
Y453234D01*
X262184Y467145D02*
X264184D01*
X263184Y466145D02*
Y468145D01*
X269000Y51000D02*
X271000D01*
X270000Y50000D02*
Y52000D01*
X759144Y218000D02*
X761144D01*
X760144Y217000D02*
Y219000D01*
X753374Y218000D02*
X755374D01*
X754374Y217000D02*
Y219000D01*
X747604Y218000D02*
X749604D01*
X748604Y217000D02*
Y219000D01*
X741834Y218000D02*
X743834D01*
X742834Y217000D02*
Y219000D01*
X712984Y218000D02*
X714984D01*
X713984Y217000D02*
Y219000D01*
X718754Y218000D02*
X720754D01*
X719754Y217000D02*
Y219000D01*
X724524Y218000D02*
X726524D01*
X725524Y217000D02*
Y219000D01*
X730294Y218000D02*
X732294D01*
X731294Y217000D02*
Y219000D01*
X736064Y218000D02*
X738064D01*
X737064Y217000D02*
Y219000D01*
X419000Y419016D02*
X421000D01*
X420000Y418016D02*
Y420016D01*
X345816Y478500D02*
X347816D01*
X346816Y477500D02*
Y479500D01*
X419000Y413246D02*
X421000D01*
X420000Y412246D02*
Y414246D01*
X419000Y407476D02*
X421000D01*
X420000Y406476D02*
Y408476D01*
X419000Y401706D02*
X421000D01*
X420000Y400706D02*
Y402706D01*
X419000Y372856D02*
X421000D01*
X420000Y371856D02*
Y373856D01*
X419000Y378626D02*
X421000D01*
X420000Y377626D02*
Y379626D01*
X419000Y384396D02*
X421000D01*
X420000Y383396D02*
Y385396D01*
X419000Y390166D02*
X421000D01*
X420000Y389166D02*
Y391166D01*
X419000Y395936D02*
X421000D01*
X420000Y394936D02*
Y396936D01*
X760000Y424000D02*
X762000D01*
X761000Y423000D02*
Y425000D01*
X753000Y410000D02*
X755000D01*
X754000Y409000D02*
Y411000D01*
X788000Y410000D02*
X790000D01*
X789000Y409000D02*
Y411000D01*
X760000Y397000D02*
X762000D01*
X761000Y396000D02*
Y398000D01*
X760000Y403000D02*
X762000D01*
X761000Y402000D02*
Y404000D01*
X760000Y416000D02*
X762000D01*
X761000Y415000D02*
Y417000D01*
X760000Y384000D02*
X762000D01*
X761000Y383000D02*
Y385000D01*
X760000Y391000D02*
X762000D01*
X761000Y390000D02*
Y392000D01*
X262000Y482000D02*
X264000D01*
X263000Y481000D02*
Y483000D01*
X221500Y490000D02*
X223500D01*
X222500Y489000D02*
Y491000D01*
X221500Y515000D02*
X223500D01*
X222500Y514000D02*
Y516000D01*
X244385Y366000D02*
X246385D01*
X245385Y365000D02*
Y367000D01*
X238615Y366000D02*
X240615D01*
X239615Y365000D02*
Y367000D01*
X262184Y474500D02*
X264184D01*
X263184Y473500D02*
Y475500D01*
M02*
