M48
;Layer_Color=9474304
;FILE_FORMAT=4:4
METRIC,LZ
;TYPE=PLATED
T01F00S00C0.2000
T02F00S00C0.4000
T04F00S00C1.1000
T05F00S00C1.1000
T06F00S00C1.4000
T07F00S00C3.3000
;TYPE=NON_PLATED
%
T01
X0003Y0001
X0005
X0007
X0009
X0011
X0013
X0014Y0003
X0012
X001
X0008
X0009Y0005
X0011
X0013
X0014Y0007
X0007Y0005
X0004Y0007
X0002
X0001Y0009
Y0013
X0006Y0011
X0001Y0005
X0015
X0017
X0019
X0021
X0023
X0024Y0003
X0026
X0027Y0001
X0029
X0031
X0033
X0035
X0037
X0039
X0041
X0043
X0045
X0047
X0049
X0051
X0053
X0054Y0007
X00535Y0008
X0053Y0009
X0052
X00525Y00105
X00535
X0053Y001
Y0011
Y0012
X0054
Y0011
Y001
Y0009
Y0013
X0053
X0052
Y0012
X0051
Y0013
X00505Y00103
X00494Y000525
X00454Y00087
X00463Y00136
X00437345Y0013375
X004135Y001395
X0038Y0013
X00375Y00125
X00365
X0037Y0013
Y0012
X00365Y00115
X0037Y0011
X00365Y00105
X0037Y001
X0036
X00355Y00105
X0035Y001
Y0009
Y0008
Y0007
X0034Y0007
X0035Y0006
X0035Y0005
X0037
X0039
X0041
X0038Y0007
X0038Y0012
X0036
X00355Y00115
X0035Y0011
X0034Y0011
X0035Y0012
X00355Y00125
X0035Y0013
X0036
Y0011
X0032Y0011
X003
X0031Y0013
X0033
Y0009
X0031
X0032Y0007
X0033Y0005
X0031
X0027Y00051
X0026Y0007
X0027Y0009
X0025
X0023
X0021
X0019
X0017
X0018Y0011
X002
X0022
X0024
X0026
X0027Y0013
X0025
X0023
X0019
X0017
X0015
X0016Y0011
Y0007
X0018
X002
Y0003
X0022
X0023Y0001
X0025
X0021
X0019
X0017
X0015
X0016Y0003
X0018
X0055Y0005
X0057
X0059
X0061
X0063
X00650001
X00670001
X00690001
X00710001
X00730001
X00750001
X00770001
X00790001
X00810001
X00820001Y0007
X00840001
X00860001
X00880001
X00900001
X00920001
X00940001
X00930001Y0005
X00910001
X00890001
X00870001
X00850001
X00860001Y0003
X00880001
X00900001
X00920001
X00940001
X00880001Y0011
X00860001
X00840001
X00820001
X00830001Y0009
X00850001
X00810001
X00670001
X00650001
X0063
X0061
X0059
X0057
X0055
X00545Y0008
Y00105
X0055Y0013
X0057
X0059
X0061
X0063
X00650001
X00670001
X00690001
X00660001Y0011
X00640001
X0062
X006
X0058
Y0007
X006
X0062
X00640001
X00660001
X00680001Y0003
X0063Y0001
X0061
X0059
X0057
X0055
X0056Y0007
X00960001
X00980001
X01000001
X01010001Y0009
X01030001
X01040001Y0011
X01020001
X01000001
X00980001
X00960001
X00970001Y0013
X00990001
X01010001
X01030001
X01050001
X01070001Y0009
X01080001Y0007
X01060001
X01030001Y0005
X01020001Y0003
X01030001Y0001
X01050001
X01070001
X01010001
X00990001
Y0005
X00970001
X00950001
X00960001Y0003
X00990001Y0009
X00950001Y0013
X00960001Y0015
X00980001
X01000001
X01020001
X01040001
X01050001Y0017
X01030001
X01010001
X00990001
X00970001
X00950001
X00960001Y0019
X00980001
X01000001
X01020001
X01040001
X01050001Y0021
X01030001
X01010001
X00990001
X00970001
X00950001
X00960001Y0023
X00980001
X01000001
X01020001
X01040001
X01050001Y0025
X01030001
X01010001
X00990001
X00970001
X00950001
X00960001Y0027
X00980001
X01000001
X01020001
X01040001
X01050001Y0029
X01030001
X01010001
X00990001
X00970001
X00950001
X00960001Y0031
X00980001
X01000001
X01020001
X01040001
X01030001Y0033
X01010001
X00990001
X00970001
X00950001
X00960001Y0035
X00980001
X01000001
X01020001
X01040001
X01060001
X01070001Y0037
X01050001
X01030001
X01010001
X00990001
X00970001
X00980001Y0039
X01000001
X01020001
X01040001
X01060001
X01070001Y0041
X01050001
X01030001
X01010001
X00990001
X01000001Y0043
X01020001
X01040001
X01060001
X01070001Y0045
X01050001
X01030001
X01010001
X00990001
X00970001
X00950001
X00960001Y0047
X00980001
X01000001
X01020001
X01040001
X01050001Y0049
X01030001
X01010001
X00990001
X00970001
X00950001
X00960001Y0051
X00980001
X01000001
X01020001
X01040001
X01060001
X01070001Y0053
X01050001
X01030001
X01010001
X00990001
X00970001
X00980001Y0043
X00960001
X00940001
X00920001
X00900001
X00910001Y0045
X00930001
X00940001Y0047
X00910001Y0049
Y0053
X00930001
X00870001
X00850001
X00830001
X00810001
X00790001
X00820001Y0051
X00840001
X00860001
X00880001
X00870001Y0049
X00850001
X00830001
X00840001Y0047
X00860001
X00850001Y0045
X00822Y00458
X00820001Y0047
X008075Y0046
X00780001Y0047
X00760001
X00740001
X00720001
X00700001
X00680001
X00660001
X00640001
X0062
X006
X0058
X0056
X0057Y0049
X0059
X0061
X0063
X00650001
X00670001
X00690001
X00710001
X00730001
X00750001
X00770001
X00760001Y0051
X00740001
X00720001
X00700001
X00680001
X00660001
X00640001
X0062
X006
X0058
X0056
X0055Y0049
Y0045
X0057
X0059
X0061
X0063
X00650001
X00670001
X00690001
X00710001
X00730001
X00750001
X00740001Y0043
X00720001
X00700001
X00680001
X00660001
X00640001
X0062
X006
X0058
X0056
Y0035
X0058
X006
X0062
X0063Y0033
X00650001
X00660001Y0031
X00640001
X0062
X006
X0058
X0056
X0057Y0033
X0059
X0061
Y0029
X0063
X00650001
X00670001
X00690001
X00700001Y0027
X00680001
X00660001
X00640001
X0062
X006
X0058
X0056
X00545Y00275
Y00265
X0055Y00255
Y00245
Y00235
Y00225
X0055Y0021
X0057
X0059
X0061
X0063
X00650001
X00670001
X00690001
X00700001Y0023
X00680001
X00660001
X00640001
X0062
X006
X0058
X0056
Y0019
X0058
X006
X0062
X00640001
X00660001
X00680001
X00700001
X00710001Y0017
X00730001
X00750001
X00768Y00176
X00810001Y0017
X00830001
X00850001
X00870001
X00890001
X00910001
X00930001
X00940001Y0019
X00920001
X00900001
X00880001
X00860001
X00840001
X00820001
X00805Y001875
X00790001Y0021
X00780001Y0023
X00760001
X00760144Y00218
X00754374
X00748604
X00742834
X00737064
X00731294
X00725524
X00719754
X00713984
X00710001Y0025
X00690001
X00670001
X00650001
X0063
X0061
X0059
Y0029
X0057
X0055
Y0033
X00710001
X00730001
X00750001
X00770001
X00790001
X00780001Y0035
X00760001
X00740001
X00720001
X00700001
X00710001Y0037
X00730001
X00750001
X00761Y00384
Y00391
Y00397
Y00403
Y00416
Y00424
X00754Y0041
X00789
X00820001Y0035
X00840001
X00860001
X00880001
X00900001
X00920001
X00940001
X00930001Y0033
X00910001
X00890001
X00870001
X00850001
X00830001
X00840001Y0031
X00860001
X00880001
X00900001
X00920001
X00940001
X00930001Y0029
X00910001
X00890001
X00870001
X00850001
X00830001
X00840001Y0027
X00860001
X00880001
X00900001
X00920001
X00940001
X00930001Y0025
X00910001
X00890001
X00870001
X00850001
X00830001
X00840001Y0023
X00860001
X00880001
X00900001
X00920001
X00940001
X00930001Y0021
X00910001
X00890001
X00870001
X00850001
X00830001
X00820001Y0023
Y0027
Y0031
X00780001
X00760001
X00740001
X00750001Y0029
X00770001
X00790001
X00780001Y0027
X00760001
X00770001Y0025
X00790001
X00800001Y0015
X00820001
X00840001
X00860001
X00880001
X00900001
X00920001
X00940001
X00700001
X00680001
X00660001
X00640001
X0062
X006
X0058
X0056
X0057Y0017
X0059
X0061
X0063
X00650001
X00670001
X00690001
X0055
X00670001Y0037
X00690001
X00850001
X0053
X0051
X0049
X0047
X0045
X0046Y0035
X0048
X005
X0052
X0054
X0053Y0033
X0051
X0049
X0047
X0045
X0043
X0041
X0042Y0035
X0044
Y0031
X0046
X0048
X005
X0052
X0054
X0053Y0029
X00535Y00275
Y00265
X00525
X00515
Y00275
X00525
X0053Y00255
Y00245
Y00235
Y00225
X0054
Y00235
Y00245
Y00255
X0051Y00247
X0052Y00235
X005Y0019475
X0049Y0017
X0047
X0045
X0043
X0041
X0039
X00374Y00164
X0036Y0015
X00335Y00156
X0036Y0019
X0038
X004
X0042
X0043Y0021
X00457679Y00231348
X00464Y0028
X0047Y0029
X004435Y0027375
X00411Y00271
X0041Y0029
X0039
X0039Y0028
Y0027
X0038
X00375Y00265
Y00275
X0038Y0028
X0037
X00365Y00275
Y00265
X0037Y0027
Y0026
X00365Y00255
X0037Y0025
X0036
Y0026
Y0027
Y0028
X0037Y0029
X0038Y0026
X0034Y0027
X00341Y00244
X0036Y0023
X00355Y00225
Y00215
X0036Y0021
Y0022
X00355Y00205
X003Y0019
X0028475Y002095
X0027Y0021
X00263625Y00226375
X00273Y0023575
X0028925Y002455
X00295098Y00245423
X00288622Y00253122
X0031Y0025
X00316Y00302871
X00315121Y00311621
X0024Y0031
X0022
X0023Y0033
X0025
X0024Y0035
X00239615Y00366
X00245385
X0022Y0035
X002
X0018
X0016
X0017Y0033
X0019
X0021
Y0029
X0023
X0025
X0022Y0027
X00225Y0026
Y0025
Y0024
X00215
Y0025
Y0026
X00205
Y0025
Y0024
X00195
Y0025
Y0026
X0019Y0021
X0022Y0019
X0022Y0018
Y0017
Y0016
X0021
Y0017
X002
Y0016
X002Y0015
X0024
X0025Y0017
X0023
X0024Y0019
X00239Y00204
X00154Y002305
X0016Y0031
X0018
X0015Y0033
X0016Y0039
X0018
X002
X0022
X0021Y0041
X0019
X0017
X0015
X0016Y0043
X0018
X002
X0022
X0021Y0045
X0019
X0017
X0015
X0016Y0047
X0018
X002
X0021Y0049
X002225Y0049
Y00515
X0024Y0051
X0023Y0053
X0021
X0019
X0017
X0016Y0051
X0017Y0049
X0015
X002Y0051
X00263Y00482
X00263184Y004745
Y00467145
X00263171Y00457967
X00263184Y00449677
Y004425
X00262839Y004345
X00260573Y00426
X00277855Y004305
Y004385
X00278116Y00446465
X0028Y00452234
X00277998Y0046287
X0028148Y00467855
X00283Y00480989
X00291Y00480989
X00287Y0049525
X00295Y004955
X0030275
X0032271Y00494872
X00337411Y00497727
X00346816Y004785
X00346911Y004705
Y00454935
Y00446645
Y00438355
Y004305
X00359Y00426209
X00331884Y004345
Y004425
Y0044969
Y0045798
Y0046702
X00330512Y00475503
X00326643Y00479784
X00318353Y00479228
X00306Y00475
X00308Y00463
X00301
X00294
Y0045
Y00443
X00301
X00308
Y0045
X00301
Y0041
X00275661Y00412
X0025Y0045
X00279Y00494316
X00266Y005425
X0037Y005275
X003775
X00385
X003925
X0038Y0051
X0042
X0044
X0046
X0048
X005
X0052
X0054
X0053Y0049
X0051
X0049
X0047
X0045
X0043
X0041
X0042Y0047
X0044
X0046
X0048
X005
X0052
X0054
X005Y0043
X0048
X0046
X0044
X0042
X0042Y00419016
Y00413246
Y00407476
Y00401706
Y00395936
Y00390166
Y00384396
Y00378626
Y00372856
X0041Y0037
X0039
X0038Y0035
X004Y0031
X0042
X00365Y00456
X00366Y00471
X0048Y0015
X005
X0052
X0054
X0053Y0017
X0054Y0019
X0016Y0015
X001
X0008
X0006
X0007Y0017
X0009
X0011
X001Y0019
X0008
X0006
X0004
X0002
X0003Y0021
X0005
X0007
X0009
X0011
X001Y0023
X0008
X0006
X0004
X0002
X0003Y0025
X0005
X0007
X0009
X0011
X0012Y0027
X001
X0008
X0006
X0004
X0002
X0003Y0029
X0005
X0007
X0009
X0011
X0012Y0031
X0014
Y0035
X0012
X0011Y0033
X0009
X001Y0031
X0008
X0004
X0002
X0001Y0033
X0002Y0035
X0004
X00051Y0034
X0003Y0037
X0001
X0002Y0039
X0004
X0005Y0041
X0006Y0043
X0008
X001
X0012
X0014
Y0047
X0012
X001
X0008
X0006
X0004
X0002
X0003Y0049
X0005
X0007
X0009
X0011
X0012Y0051
X0014
X001
X0008
X0006
X0004
X0002
X0003Y0053
X0005
X0007
X0009
X0011
Y0045
X0009
X0007
X0005
X0003
X0001
X0002Y0043
X0004
X0001Y0041
X0009
X0011
X0014Y0039
X0001Y0049
Y0053
Y0029
Y0025
Y0021
Y0017
X0003
X0005
X0002Y0015
Y0055
X0004
X0006
X0008
X001
X0012
Y0059
X0014
X0011Y0061
X0012Y0063
X001
X0011Y00650001
X0012Y00670001
X0011Y00730001
X0012Y00750001
X001
X0008
X0009Y00770001
X0011
X0007
X0005Y00730001
X0003
X0001
X0002Y00710001
X0004
X0005Y00650001
X0007
X0006Y0063
X0004
X0002
X0003Y00650001
X0001
Y0061
X0003
X0005
X0007
X0008Y0059
X0006
X0004
X0002
X0003Y0057
X0005
X0007
X0009
X0001
Y00770001
X0016Y00750001
X0018
X002
X0022
X0024
X0026
X0028
X003
X0032
X0034
X0036
X0038
X004
X0042
X0044
X0046
X0048
X005
X0052
X0054
X0053Y00770001
X0051
X0049
X0047
X0045
X0043
X0041
X0039
X0037
X0035
X0033
X0031
X0029
X0027
X0025
Y00730001
X0027
X0029
X0031
X0033
X0035
X0037
X0039
X0041
X0043
X0045
X0047
X0049
X0051
X0053
X0054Y00710001
X0052
X005
X0048
X0046
X0044
X0042
X004
X0038
X0036
X0034
X0032
X003
X0028
X0026
X0024
X0022
X0019Y00730001
X002Y00670001
X0018
X0016
X0019Y00650001
X002Y0063
X0022
X0024
X0025Y0061
X0027
X0028Y0059
X0026
X0024
X0022
X0023Y0061
X0021
X0019
X0018Y0063
X0015Y0061
X0016Y0059
X0017Y0057
X0019
X002Y0055
X0018
X0016
X0015Y0057
X0023
X0025
X0027
X0029
X0031
X00327464Y00563278
X00333234
X00339004
X0035Y0057
X0037
X0038Y0059
X004
X0042
X0044
X0046
X0048
X005
X0052
X0054
X0053Y0061
X0051
X0049
X0047
X0045
X0043
X0041
X0039
X0037
X0038Y0063
X004
X0042
X0044
X0046
X0048
X005
X0052
X0054
X0053Y00650001
X0051
X0049
X0047
X0045
X0043
X0041
X0039
X0037
X0035
X0033
X0034Y00670001
X0036
X0038
X004
X0042
X0044
X0046
X0048
X005
X0052
X0054
X0053Y00690001
X0051
X0049
X0047
X0045
X0043
X0041
X0039
X0037
X0035
X0033
X0031
X0029
X003Y00670001
X0032
X0029Y00650001
X0027
X0026Y00670001
X003Y0063
X0031Y0061
X0033
X0034Y0063
X0036
X0034Y0059
X0038Y0055
X0042
X0044
X0046
X0048
X005
X0052
X0054
X0053Y0057
X0051
X0049
X0047
X0045
X0043
X0041
X0028Y0055
X0026
X0056
X0058
X006
X0062
X00640001
X00660001
X00680001
X00700001
X00720001
X00740001
X00760001
X00780001
X00800001
X00820001
X00840001
X00860001
X00880001
X00870001Y0057
X00850001
X00830001
X00810001
X00790001
X00770001
X00750001
X00730001
X00710001
X00690001
X00670001
X00650001
X0063
X0061
X0059
X0057
X0055
X0056Y0059
X0058
X006
X0062
X00640001
X00660001
X00680001
X00700001
X00720001
X00740001
X00760001
X00780001
X00800001
X00820001
X00840001
X00860001
X00880001
X00870001Y0061
X00850001
X00830001
X00810001
X00790001
X00770001
X00750001
X00730001
X00710001
X00690001
X00670001
X00650001
X0063
X0061
X0059
X0057
X0055
X0056Y0063
X0058
X006
X0062
X00640001
X00660001
X00680001
X00700001
X00720001
X00740001
X00760001
X00780001
X00800001
X00820001
X00840001
X00860001
X00880001
X00870001Y00650001
X00850001
X00830001
X00810001
X00790001
X00770001
X00750001
X00730001
X00710001
X00690001
X00670001
X00650001
X0063
X0061
X0059
X0057
X0055
X0056Y00670001
X0058
X006
X0062
X00640001
X00660001
X00680001
X00700001
X00720001
X00740001
X00760001
X00780001
X00800001
X00820001
X00840001
X00860001
X00880001
X00870001Y00690001
X00850001
X00830001
X00810001
X00790001
X00770001
X00750001
X00730001
X00710001
X00690001
X00670001
X00650001
X0063
X0061
X0059
X0057
X0055
X0056Y00710001
X0058
X006
X0062
X00640001
X00660001
X00680001
X00700001
X00720001
X00740001
X00760001
X00780001
X00800001
X00820001
X00840001
X00850001Y00730001
X00870001
X00890001
X00910001
X00930001
X00940001Y00750001
X00920001
X00900001
X00880001
X00860001
X00830001Y00730001
X00810001
X00790001
X00770001
X00750001
X00730001
X00710001
X00690001
X00670001
X00650001
X0063
X0061
X0059
X0057
X0055
X0056Y00750001
X0058
X006
X0062
X00640001
X00660001
X00680001
X00700001
X00720001
X00740001
X00760001
X00770001Y00770001
X00790001
X00730001
X00710001
X00690001
X00670001
X00650001
X0063
X0061
X0059
X0057
X0055
X00910001Y00690001
X00930001
Y00650001
X00910001
Y0061
X00930001
Y0057
X00910001
X00970001
X00990001
X01010001
X01030001
X01050001
X01060001Y0059
X01040001
X01020001
X01000001
X00980001
X00960001
X00970001Y0061
X00990001
X01010001
X01030001
X01050001
X01020001Y0063
X01000001
X00980001
X00960001
X00970001Y00650001
X00990001
X01010001
X01030001
X01040001Y00670001
X01060001
Y00710001
X01080001
X01070001Y00730001
X01050001
X01020001Y00750001
X01030001Y00770001
X01010001
X00980001Y00750001
X00960001
X00970001Y00730001
X00990001
X01000001Y00710001
X01020001
X01030001Y00690001
X01010001
X00990001
X00970001
X00980001Y00670001
X01000001
X01020001
X00960001
X00950001Y00730001
X00960001Y0055
X00980001
X01000001
X01020001
X01040001
X01060001
T02
X0006675Y0034025
Y0034875
Y0035725
Y0036575
Y0037425
Y0038275
Y0039125
Y0039975
X0008025
Y0039125
Y0038275
Y0037425
Y0036575
Y0035725
Y0034875
Y0034025
T04
X006892Y000773
X007146
Y001027
X006892
X0074
X007654
X007908
Y000773
X007654
X0074
T05
X000221Y000975
X000475
X000729
X000983
Y001229
X000729
X000475
X000221
X009583Y003871
Y004125
X009329
Y003871
X009075
X008821
Y004125
X009075
X000983Y006671
X000729
X000475
X000221
Y006925
X000475
X000729
X000983
T06
X0087Y000895
X00895
X0092
X00945
X0097
X0092Y007105
X00895
X0087
X00945
X0097
T07
X0004Y0004
X0106
X0004Y0076
X0106
M30
